<?xml version="1.0" encoding="iso-8859-1"?>
<!-- Generator: Adobe Illustrator 19.0.0, SVG Export Plug-In . SVG Version: 6.00 Build 0)  -->
<svg xmlns="http://www.w3.org/2000/svg" xmlns:xlink="http://www.w3.org/1999/xlink" version="1.1" id="Capa_1" x="0px" y="0px" viewBox="0 0 512 512" style="enable-background:new 0 0 512 512;" xml:space="preserve">
<path style="fill:#FEDB41;" d="M255.957,0c-11.7,0-23.401,1.199-35.398,3.6c-65.102,13.799-116.104,66.899-126.9,131.999  c-12.305,69.901,19.497,137.701,80.698,172.5c2.999,1.8,5.398,5.402,6.299,9.6c1.201,7.2,7.5,12.301,14.7,12.301h121.201  c7.2,0,13.499-5.101,14.7-12.301c0.901-4.199,3.6-7.8,7.5-10.199c50.698-29.401,82.2-84,82.2-142.5  C420.957,72.299,345.957,0.3,255.957,0z"/>
<path style="fill:#FFCC33;" d="M420.957,165c0,58.5-31.501,113.099-82.2,142.5c-3.9,2.399-6.599,6-7.5,10.199  c-1.201,7.2-7.5,12.301-14.7,12.301h-60.601V0C345.957,0.3,420.957,72.299,420.957,165z"/>
<path style="fill:#FEA832;" d="M326.456,175.499l-55.499,55.8V315c0,8.399-6.599,15-15,15c-8.401,0-15-6.601-15-15v-83.701  l-55.499-55.8c-14.103-14.099,7.2-35.099,20.999-21l49.501,49.2l49.501-49.2C319.556,140.4,340.559,161.7,326.456,175.499z"/>
<path style="fill:#FE9923;" d="M255.957,330V203.699l49.501-49.2c14.099-14.099,35.101,7.202,20.999,21l-55.499,55.8V315  C270.957,323.399,264.358,330,255.957,330z"/>
<path style="fill:#E1E4FB;" d="M285.957,422h-60c-8.401,0-15,6.599-15,15v30c0,24.899,20.098,45,45,45s45-20.101,45-45v-30  C300.957,428.599,294.358,422,285.957,422z"/>
<path style="fill:#C5C9F7;" d="M300.957,437v30c0,24.899-20.098,45-45,45v-90h30C294.358,422,300.957,428.599,300.957,437z"/>
<path style="fill:#E1E4FB;" d="M180.656,317.399c0,0.901,0.3,4.2,0,9.001c0.601,15.599,0.3,45.3,0.3,48.6c0,8.399,6.599,15,15,15  h120c8.401,0,15-6.601,15-15v-55.8c0-0.601,0.3-1.201,0.3-1.802L180.656,317.399L180.656,317.399z"/>
<g>
	<path style="fill:#C5C9F7;" d="M331.257,317.399c0,0.601-0.3,1.201-0.3,1.802V375c0,8.399-6.599,15-15,15h-60v-72.601H331.257z"/>
	<path style="fill:#C5C9F7;" d="M180.957,375v30c0,19.499,12.598,38.299,30,44.299c4.797,1.8,9.602,2.701,15,2.701h60   c2.999,0,5.999-0.3,9.001-0.901c2.098-0.3,4.197-0.899,5.999-1.8c17.402-6,30-24.8,30-44.299v-30H180.957z"/>
</g>
<path style="fill:#A8AFF1;" d="M330.957,375v30c0,19.499-12.598,38.299-30,44.299c-1.802,0.901-3.9,1.5-5.999,1.8  c-3.003,0.601-6.002,0.901-9.001,0.901h-30v-77H330.957z"/>
<g>
</g>
<g>
</g>
<g>
</g>
<g>
</g>
<g>
</g>
<g>
</g>
<g>
</g>
<g>
</g>
<g>
</g>
<g>
</g>
<g>
</g>
<g>
</g>
<g>
</g>
<g>
</g>
<g>
</g>
</svg>
