<?xml version="1.0" encoding="iso-8859-1"?>
<!-- Generator: Adobe Illustrator 19.0.0, SVG Export Plug-In . SVG Version: 6.00 Build 0)  -->
<svg xmlns="http://www.w3.org/2000/svg" xmlns:xlink="http://www.w3.org/1999/xlink" version="1.1" id="Capa_1" x="0px" y="0px" viewBox="0 0 512 512" style="enable-background:new 0 0 512 512;" xml:space="preserve">
<path style="fill:#0A4EAF;" d="M234.288,55.67l-34.597-49.34c-4.815-6.62-14.141-8.425-21.06-3.61l-24.67,17.45l-24.67,17.146  c-6.618,4.815-8.425,14.141-3.61,21.06l34.599,49.34c4.813,6.618,14.139,8.423,21.059,3.61l24.369-17.148l24.972-17.45  C237.298,71.915,239.103,62.589,234.288,55.67z"/>
<g>
	<path style="fill:#A8AFF1;" d="M148.859,437.815c-53.002-24.444-89.415-84.007-89.415-142.428   c0-54.706,32.095-113.946,80.307-140.668c14.407-7.947,29.296,9.864,18.994,22.608c-11.853,14.676-7.722,35.49,6.993,44.041   c8.496,4.948,10.006,16.547,3.188,23.519c-11.003,11.267-19.226,34.782-19.226,50.501c0,33.185,29.142,66.187,62.327,66.187   c8.315,0,15.043,6.728,15.043,15.043c0,8.315-6.728,15.043-15.043,15.043c-19.67,0-36.681,13.339-41.338,32.45l-0.941,3.716   C167.455,436.994,157.331,441.739,148.859,437.815z"/>
	<path style="fill:#A8AFF1;" d="M317.323,451.829h-45.128c-14.091,0-15.22-13.819-18.774-27.515   c-4.715-19.318-21.726-32.655-41.396-32.655c-8.315,0-15.043-6.728-15.043-15.043c0-8.314,6.728-15.043,15.043-15.043h165.468   c8.315,0,15.043,6.728,15.043,15.043C392.536,418.086,358.793,451.829,317.323,451.829z"/>
</g>
<path style="fill:#0A4EAF;" d="M301.679,493.347l-18.954-76.417c-8.122-32.491-37.004-55.356-70.699-55.356  s-62.578,22.865-70.4,55.356l-19.253,76.417c-2.408,9.326,4.813,18.653,14.44,18.653h150.425  C297.167,512,304.086,502.673,301.679,493.347z"/>
<g>
	<path style="fill:#063E8B;" d="M407.578,391.659h-180.51c-8.315,0-15.043-6.728-15.043-15.043c0-8.314,6.728-15.043,15.043-15.043   h180.51C427.409,361.574,427.49,391.659,407.578,391.659z"/>
	<path style="fill:#063E8B;" d="M287.238,512h-75.213V361.574c33.695,0,62.577,22.865,70.699,55.356l18.954,76.417   C304.086,502.673,297.167,512,287.238,512z"/>
</g>
<g>
	<path style="fill:#0A4EAF;" d="M354.93,228.057l-17.148-24.67c-4.512-6.618-13.84-8.423-21.06-3.61l-24.97,17.45l-24.369,17.149   c-6.62,4.813-8.425,14.139-3.612,21.059l17.148,24.67c14.442,20.458,42.12,25.272,62.879,11.432c0-0.301,0.301-0.301,0.301-0.301   C364.256,276.794,369.07,248.514,354.93,228.057z"/>
	<path style="fill:#0A4EAF;" d="M437.664,512H106.728c-19.855,0-19.855-30.085,0-30.085h330.936   C457.52,481.914,457.52,512,437.664,512z"/>
</g>
<g>
	<path style="fill:#063E8B;" d="M136.662,147.97c14.209-11.872,28.399-24.315,39.111-9.026l52.454,72.376   c3.394,4.877,4.465,11.938,0.528,16.394C157.022,308.92,74.391,199.998,136.662,147.97z"/>
	<path style="fill:#063E8B;" d="M234.288,55.67c4.815,6.919,3.01,16.245-3.61,21.059l-24.972,17.45l-51.745-74.008l24.67-17.45   c6.919-4.815,16.245-3.01,21.06,3.61L234.288,55.67z"/>
	<path style="fill:#063E8B;" d="M344.1,291.235c0,0-0.301,0-0.301,0.301l-52.046-74.309l24.97-17.45   c7.22-4.813,16.548-3.007,21.06,3.61l17.148,24.67C369.07,248.514,364.256,276.794,344.1,291.235z"/>
	<path style="fill:#063E8B;" d="M437.664,512H212.025v-30.085h225.638C457.52,481.914,457.52,512,437.664,512z"/>
</g>
<path style="fill:#C5C9F7;" d="M345.001,161.569L276.108,62.89c-14.742-20.458-42.72-24.972-62.879-10.831l-24.67,17.448  L164.19,86.657c-20.458,14.141-25.571,42.12-11.43,62.879l69.196,98.377c13.838,20.46,42.419,25.573,62.877,11.131l24.369-17.146  l24.972-17.45C354.629,210.306,359.142,181.727,345.001,161.569z"/>
<path style="fill:#A8AFF1;" d="M334.171,224.447l-24.972,17.45L188.558,69.509l24.67-17.448  c20.158-14.141,48.137-9.627,62.879,10.831l68.894,98.678C359.142,181.727,354.629,210.306,334.171,224.447z"/>
<g>
</g>
<g>
</g>
<g>
</g>
<g>
</g>
<g>
</g>
<g>
</g>
<g>
</g>
<g>
</g>
<g>
</g>
<g>
</g>
<g>
</g>
<g>
</g>
<g>
</g>
<g>
</g>
<g>
</g>
</svg>
