<?xml version="1.0" encoding="iso-8859-1"?>
<!-- Generator: Adobe Illustrator 19.0.0, SVG Export Plug-In . SVG Version: 6.00 Build 0)  -->
<svg xmlns="http://www.w3.org/2000/svg" xmlns:xlink="http://www.w3.org/1999/xlink" version="1.1" id="Capa_1" x="0px" y="0px" viewBox="0 0 512 512" style="enable-background:new 0 0 512 512;" xml:space="preserve">
<path style="fill:#063E8B;" d="M359.399,493.4c-10.8-43.5-18.9-76.501-30-120c-1.5-6.601-7.5-11.4-14.399-11.4H195  c-6.899,0-12.9,4.799-14.399,11.4c-11.1,43.499-19.2,76.5-30,120C148.2,502.7,155.099,512,165,512h180  C354.901,512,361.8,502.7,359.399,493.4z"/>
<path style="fill:#032E68;" d="M359.399,493.4C361.8,502.7,354.901,512,345,512h-90V362h60c6.899,0,12.9,4.799,14.399,11.4  C340.499,416.899,348.6,449.9,359.399,493.4z"/>
<path style="fill:#1DE8F1;" d="M467,15c16.5,0,30,13.5,30,30v272H15V45c0-16.5,13.5-30,30-30H467z"/>
<path style="fill:#1BD9DE;" d="M467,15c16.5,0,30,13.5,30,30v272H255V15H467z"/>
<path style="fill:#0A4EAF;" d="M512,45c0-24.901-20.099-45-45-45H45C20.099,0,0,20.099,0,45v272c0,8.399,6.599,15,15,15h482  c8.401,0,15-6.601,15-15V45z M482,302H30V45c0-8.401,6.599-15,15-15h422c8.401,0,15,6.599,15,15V302z"/>
<path style="fill:#E1E4FB;" d="M375,60h-90c-11.4,0-21.899,4.499-30,11.4c-8.101-6.901-18.6-11.4-30-11.4h-90  c-24.901,0-45,20.099-45,45v122c0,24.899,20.099,45,45,45h240c24.901,0,47-20.101,47-45V105C422,80.099,399.901,60,375,60z"/>
<path style="fill:#C5C9F7;" d="M422,105v122c0,24.899-22.099,45-47,45H255V71.4c8.101-6.901,18.6-11.4,30-11.4h90  C399.901,60,422,80.099,422,105z"/>
<path style="fill:#063E8B;" d="M467,0c24.901,0,45,20.099,45,45v272c0,8.399-6.599,15-15,15H255v-30h227V45c0-8.401-6.599-15-15-15  H255V0H467z"/>
<g>
	<path style="fill:#18A7FC;" d="M195,150h-30c-19.773,0-19.854-30,0-30h30C214.773,120,214.854,150,195,150z"/>
	<path style="fill:#18A7FC;" d="M195,212h-30c-19.773,0-19.854-30,0-30h30C214.773,182,214.854,212,195,212z"/>
</g>
<g>
	<path style="fill:#1689FC;" d="M345,212h-30c-19.773,0-19.854-30,0-30h30C364.773,182,364.854,212,345,212z"/>
	<path style="fill:#1689FC;" d="M345,150h-30c-19.773,0-19.854-30,0-30h30C364.773,120,364.854,150,345,150z"/>
</g>
<path style="fill:#0A4EAF;" d="M512,302H0v45c0,24.899,19.501,44.7,45,45h422c24.901,0,45-20.101,45-45V302z"/>
<path style="fill:#063E8B;" d="M512,302v45c0,24.899-20.099,45-45,45H255v-90H512z"/>
<path style="fill:#0A4EAF;" d="M405,512H105c-8.284,0-15-6.716-15-15l0,0c0-8.284,6.716-15,15-15h300c8.284,0,15,6.716,15,15l0,0  C420,505.284,413.284,512,405,512z"/>
<path style="fill:#063E8B;" d="M405,482H255v30h150c8.284,0,15-6.716,15-15C420,488.714,413.284,482,405,482z"/>
<g>
</g>
<g>
</g>
<g>
</g>
<g>
</g>
<g>
</g>
<g>
</g>
<g>
</g>
<g>
</g>
<g>
</g>
<g>
</g>
<g>
</g>
<g>
</g>
<g>
</g>
<g>
</g>
<g>
</g>
</svg>
