<?xml version="1.0" encoding="iso-8859-1"?>
<!-- Generator: Adobe Illustrator 19.0.0, SVG Export Plug-In . SVG Version: 6.00 Build 0)  -->
<svg xmlns="http://www.w3.org/2000/svg" xmlns:xlink="http://www.w3.org/1999/xlink" version="1.1" id="Capa_1" x="0px" y="0px" viewBox="0 0 512 512" style="enable-background:new 0 0 512 512;" xml:space="preserve">
<g>
	<path style="fill:#E1E4FB;" d="M30,407V227c0-8.291,6.709-15,15-15s15,6.709,15,15c0,41.353,33.647,75,75,75   c19.773,0,19.854,30,0,30c-41.353,0-75,33.647-75,75C60,426.773,30,426.854,30,407z"/>
	<path style="fill:#E1E4FB;" d="M467,512H225c-8.401,0-15-6.601-15-15c0-8.401,6.599-15,15-15c19.799,0,19.799-30,0-30   c-8.401,0-15-6.601-15-15v-30c0-20.101-7.8-38.701-21.899-53.101C173.699,339.8,155.099,332,135,332c-19.799,0-19.799-30,0-30   c41.4,0,75-33.6,75-75v-30c0-8.401,6.599-15,15-15c19.799,0,19.799-30,0-30H45c-8.401,0-15-6.601-15-15V62.399   C30,26.999,57.001,0,90,0c20.7,0,69,10.499,79.799,26.4l15.3,33.6H407c8.401,0,15,6.599,15,15v392C422,491.899,442.099,512,467,512   z"/>
</g>
<path style="fill:#A8AFF1;" d="M508.367,431.771c-2.183-5.874-7.793-9.771-14.063-9.771H407c-8.291,0-15,6.709-15,15v15  c0,33.091,26.909,60,60,60h15c24.853,0,45-20.147,45-45v-15C512,444.969,510.813,438.348,508.367,431.771z"/>
<path style="fill:#C5C9F7;" d="M467,512H270V60h137c8.401,0,15,6.599,15,15v392C422,491.899,442.099,512,467,512z"/>
<g>
	<path style="fill:#FFDAAA;" d="M209.099,332.899C189.3,312.8,162.9,302,135,302c-57.9,0-105,47.1-105,105v30   c0,8.399,6.599,15,15,15h30c3.9,0,7.8-1.5,10.499-4.501l49.501-49.2l49.501,49.2C187.2,450.5,191.1,452,195,452h30   c8.401,0,15-6.601,15-15v-30C240,379.1,229.2,352.7,209.099,332.899z"/>
	<path style="fill:#FFDAAA;" d="M225,182H45c-8.401,0-15,6.599-15,15v30c0,57.9,47.1,105,105,105s105-47.1,105-105v-30   C240,188.599,233.401,182,225,182z"/>
</g>
<path style="fill:#FE5436;" d="M205.499,426.499l-60-60C142.8,363.5,138.9,362,135,362s-7.8,1.5-10.499,4.499l-60,60  C54.901,435.799,61.5,452,75,452h120c6,0,11.4-3.6,13.801-9.3C211.199,437,210,430.699,205.499,426.499z"/>
<g>
	<path style="fill:#FFC27A;" d="M240,197v30c0,57.9-47.1,105-105,105V182h90C233.401,182,240,188.599,240,197z"/>
	<path style="fill:#FFC27A;" d="M240,407v30c0,8.399-6.599,15-15,15h-30c-3.9,0-7.8-1.5-10.499-4.501L135,398.299V302   c27.9,0,54.3,10.8,74.099,30.899C229.2,352.7,240,379.1,240,407z"/>
</g>
<path style="fill:#F24D25;" d="M208.801,442.7C206.4,448.4,201,452,195,452h-60v-90c3.9,0,7.8,1.5,10.499,4.499l60,60  C210,430.699,211.199,437,208.801,442.7z"/>
<path style="fill:#063E8B;" d="M225,122H45c-59.399,0-59.399,90,0,90h180C284.399,212,284.399,122,225,122z"/>
<path style="fill:#032E68;" d="M225,212h-90v-90h90C284.399,122,284.399,212,225,212z"/>
<path style="fill:#063E8B;" d="M225,422H45c-24.901,0-45,20.099-45,45c0,24.899,20.099,45,45,45h180c29.7,0,44.7-22.5,44.7-45  S254.7,422,225,422z"/>
<path style="fill:#032E68;" d="M269.7,467c0,22.5-15,45-44.7,45h-90v-90h90C254.7,422,269.7,444.5,269.7,467z"/>
<path style="fill:#C5C9F7;" d="M512,60v15c0,8.399-6.599,15-15,15H150V60c0-33.001-27.001-60-60-60h362C484.999,0,512,26.999,512,60  z"/>
<path style="fill:#A8AFF1;" d="M512,60v15c0,8.399-6.599,15-15,15H270V0h182C484.999,0,512,26.999,512,60z"/>
<g>
</g>
<g>
</g>
<g>
</g>
<g>
</g>
<g>
</g>
<g>
</g>
<g>
</g>
<g>
</g>
<g>
</g>
<g>
</g>
<g>
</g>
<g>
</g>
<g>
</g>
<g>
</g>
<g>
</g>
</svg>
