<?xml version="1.0" encoding="iso-8859-1"?>
<!-- Generator: Adobe Illustrator 19.0.0, SVG Export Plug-In . SVG Version: 6.00 Build 0)  -->
<svg xmlns="http://www.w3.org/2000/svg" xmlns:xlink="http://www.w3.org/1999/xlink" version="1.1" id="Capa_1" x="0px" y="0px" viewBox="0 0 512 512" style="enable-background:new 0 0 512 512;" xml:space="preserve">
<path style="fill:#E0E4EC;" d="M91,392c-33,0-60,27-60,60s27,60,60,60h375c8.4,0,15-6.6,15-15V392H91z"/>
<path style="fill:#0A4EAF;" d="M106,0c-5.1,0-10.2,0.6-15,1.5C56.8,8.4,31,38.7,31,75v377c0,19.83,30,19.91,30,0  c0-16.5,13.5-30,30-30h15c8.4,0,15-6.6,15-15V15C121,6.6,114.4,0,106,0z"/>
<path style="fill:#FD003A;" d="M436,0H106c-5.1,0-10.2,0.6-15,1.5V422h375c8.4,0,15-6.6,15-15V45C481,20.1,460.9,0,436,0z"/>
<path style="fill:#E50027;" d="M436,0c24.901,0,45,20.099,45,45v362c0,8.399-6.599,15-15,15H286V0H436z"/>
<path style="fill:#FFDAAA;" d="M326.01,120H346c8.29,0,15-6.71,15-15s-6.71-15-15-15h-59.98c-0.01,0-0.01,0-0.01,0H286  c-0.01,0-0.02,0-0.02,0H226c-8.29,0-15,6.71-15,15s6.71,15,15,15h19.99C217.79,146.82,181,188.72,181,225  c0,17.55,4.42,30.09,13.56,38.35c14.59,13.23,35.34,11.13,59.18,8.74c5.46-0.54,11.29-0.9,17.26-1.15V300h-45c-8.29,0-15,6.71-15,15  s6.71,15,15,15h120c8.29,0,15-6.71,15-15s-6.71-15-15-15h-45v-29.06c5.97,0.25,11.8,0.61,17.26,1.15  c9.05,0.91,17.63,1.76,25.63,1.76c13.07,0,24.49-2.3,33.55-10.5c9.14-8.26,13.56-20.8,13.56-38.35  C391,188.72,354.21,146.82,326.01,120z M271,240.59c-7,0.44-13.82,1.01-20.21,1.65c-15.39,1.57-31.41,3.15-36.1-1.13  c-2.34-2.12-3.69-7.99-3.69-16.11c0-23.84,30.92-60.21,60-87.28V240.59z M357.31,241.11c-4.69,4.27-20.71,2.68-36.1,1.13  c-6.39-0.64-13.21-1.21-20.21-1.65V137.72c29.08,27.07,60,63.44,60,87.28C361,233.12,359.65,238.99,357.31,241.11z"/>
<path style="fill:#FFC27A;" d="M326.01,120H346c8.29,0,15-6.71,15-15s-6.71-15-15-15h-59.98c-0.01,0-0.01,0-0.01,0L286,330h60  c8.29,0,15-6.71,15-15s-6.71-15-15-15h-45v-29.06c5.97,0.25,11.8,0.61,17.26,1.15c9.05,0.91,17.63,1.76,25.63,1.76  c13.07,0,24.49-2.3,33.55-10.5c9.14-8.26,13.56-20.8,13.56-38.35C391,188.72,354.21,146.82,326.01,120z M357.31,241.11  c-4.69,4.27-20.71,2.68-36.1,1.13c-6.39-0.64-13.21-1.21-20.21-1.65V137.72c29.08,27.07,60,63.44,60,87.28  C361,233.12,359.65,238.99,357.31,241.11z"/>
<path style="fill:#D1D7E3;" d="M481,392v105c0,8.4-6.6,15-15,15H286V392H481z"/>
<path style="fill:#E50027;" d="M481,392v30H91c-16.5,0-30,13.5-30,30s13.5,30,30,30h390v15c0,8.4-6.6,15-15,15H91c-33,0-60-27-60-60  s27-60,60-60H481z"/>
<g>
	<rect x="286" y="392" style="fill:#C1001F;" width="195" height="30"/>
	<path style="fill:#C1001F;" d="M481,482v15c0,8.4-6.6,15-15,15H286v-30H481z"/>
</g>
<g>
</g>
<g>
</g>
<g>
</g>
<g>
</g>
<g>
</g>
<g>
</g>
<g>
</g>
<g>
</g>
<g>
</g>
<g>
</g>
<g>
</g>
<g>
</g>
<g>
</g>
<g>
</g>
<g>
</g>
</svg>
