<?xml version="1.0" encoding="iso-8859-1"?>
<!-- Generator: Adobe Illustrator 19.0.0, SVG Export Plug-In . SVG Version: 6.00 Build 0)  -->
<svg xmlns="http://www.w3.org/2000/svg" xmlns:xlink="http://www.w3.org/1999/xlink" version="1.1" id="Capa_1" x="0px" y="0px" viewBox="0 0 512 512" style="enable-background:new 0 0 512 512;" xml:space="preserve">
<path style="fill:#CA80DC;" d="M467.45,212.601h-23c-4.801-20.099-12.9-39.6-24-57.299l14.4-14.402  c41.999-41.999-21.601-105.599-63.6-63.6l-14.401,14.4c-17.699-11.1-37.2-19.199-57.299-24V44.399c0-29.7-22.5-44.399-45-44.399  s-45,14.7-45,44.399V67.7c-20.099,4.801-39.6,12.9-57.299,24l-14.402-14.4C95.85,35.301,32.25,98.901,74.249,140.9l14.399,14.401  c-11.1,17.699-19.199,37.2-24,57.299H44.55c-59.399,0-59.399,90,0,90h20.099c4.801,20.099,12.9,39.6,24,57.299L74.25,374.3  c-41.999,41.999,21.601,105.599,63.6,63.6l14.401-14.399c17.699,11.1,37.2,19.199,57.299,24V467.6c0,29.7,22.5,44.399,45,44.399  s45-14.7,45-44.399v-20.099c20.099-4.801,39.6-12.9,57.299-24L371.25,437.9c41.999,41.999,105.599-21.601,63.6-63.6l-14.4-14.4  c11.1-17.699,19.199-37.2,24-57.299h23C526.85,302.601,526.85,212.601,467.45,212.601z"/>
<path style="fill:#B758CE;" d="M467.45,302.601h-23c-4.801,20.099-12.9,39.6-24,57.299l14.399,14.401  c41.999,41.999-21.601,105.599-63.6,63.6l-14.401-14.399c-17.699,11.1-37.2,19.199-57.299,24v20.099c0,29.7-22.5,44.399-45,44.399V0  c22.5,0,45,14.7,45,44.399V67.7c20.099,4.801,39.6,12.9,57.299,24l14.402-14.4c41.999-41.999,105.599,21.601,63.6,63.6  l-14.399,14.401c11.1,17.699,19.199,37.2,24,57.299h23C526.85,212.601,526.85,302.601,467.45,302.601z"/>
<path style="fill:#E1E4FB;" d="M194.55,242.601c-24.814,0-45-20.186-45-45s20.186-45,45-45s45,20.186,45,45  S219.364,242.601,194.55,242.601z"/>
<g>
	<path style="fill:#FE73B1;" d="M269.55,137.601c0,8.401-6.599,15-15,15s-15-6.599-15-15s6.599-15,15-15   S269.55,129.2,269.55,137.601z"/>
	<circle style="fill:#FE73B1;" cx="164.55" cy="347.6" r="15"/>
</g>
<circle style="fill:#FE52A2;" cx="344.55" cy="347.6" r="15"/>
<path style="fill:#C5C9F7;" d="M315.941,262.859l-36.606-36.606c-41.896-41.896,21.687-105.215,63.398-63.398l36.606,36.606  C421.395,241.516,358.145,305.063,315.941,262.859z"/>
<path style="fill:#E1E4FB;" d="M254.55,273.201c-22.5,0-45,14.7-45,44.399v30c0,29.7,22.5,44.399,45,44.399s45-14.7,45-44.399v-30  C299.55,287.901,277.05,273.201,254.55,273.201z"/>
<path style="fill:#FE73B1;" d="M153.944,298.206l-30-30c-5.859-5.859-5.859-15.352,0-21.211c5.859-5.859,15.352-5.859,21.211,0  l30,30C189.366,291.206,167.685,311.947,153.944,298.206z"/>
<path style="fill:#FE52A2;" d="M254.55,152.601v-30c8.401,0,15,6.599,15,15S262.95,152.601,254.55,152.601z"/>
<path style="fill:#C5C9F7;" d="M299.55,317.601v30c0,29.7-22.5,44.399-45,44.399V273.201  C277.05,273.201,299.55,287.901,299.55,317.601z"/>
<g>
</g>
<g>
</g>
<g>
</g>
<g>
</g>
<g>
</g>
<g>
</g>
<g>
</g>
<g>
</g>
<g>
</g>
<g>
</g>
<g>
</g>
<g>
</g>
<g>
</g>
<g>
</g>
<g>
</g>
</svg>
