<?xml version="1.0" encoding="iso-8859-1"?>
<!-- Generator: Adobe Illustrator 19.0.0, SVG Export Plug-In . SVG Version: 6.00 Build 0)  -->
<svg xmlns="http://www.w3.org/2000/svg" xmlns:xlink="http://www.w3.org/1999/xlink" version="1.1" id="Capa_1" x="0px" y="0px" viewBox="0 0 512 512" style="enable-background:new 0 0 512 512;" xml:space="preserve">
<path style="fill:#9D481A;" d="M406,60c24.814,0,45,20.186,45,45v362c0,24.814-20.186,45-45,45H106c-24.814,0-45-20.186-45-45V105  c0-24.814,20.186-45,45-45C170.774,60,340.468,60,406,60z"/>
<path style="fill:#6E351C;" d="M256,512h150c24.814,0,45-20.186,45-45V105c0-24.814-20.186-45-45-45c-32.714,0-91.382,0-150,0V512z"/>
<path style="fill:#E1E4FB;" d="M106,482c-8.276,0-15-6.724-15-15V105c0-8.276,6.724-15,15-15h300c8.276,0,15,6.724,15,15v362  c0,8.276-6.724,15-15,15H106z"/>
<path style="fill:#C5C9F7;" d="M256,482h150c8.276,0,15-6.724,15-15V105c0-8.276-6.724-15-15-15H256V482z"/>
<g>
	<path style="fill:#18A7FC;" d="M211,182h-60c-8.291,0-15-6.709-15-15s6.709-15,15-15h60c8.291,0,15,6.709,15,15   S219.291,182,211,182z"/>
	<path style="fill:#18A7FC;" d="M211,392h-60c-8.291,0-15-6.709-15-15s6.709-15,15-15h60c8.291,0,15,6.709,15,15   S219.291,392,211,392z"/>
	<path style="fill:#18A7FC;" d="M211,287h-60c-8.291,0-15-6.709-15-15s6.709-15,15-15h60c8.291,0,15,6.709,15,15   S219.291,287,211,287z"/>
</g>
<g>
	<path style="fill:#6ECD24;" d="M316,302c-3.838,0-7.676-1.465-10.605-4.395l-30-30c-5.859-5.859-5.859-15.352,0-21.211   s15.352-5.859,21.211,0L316,265.789l34.395-34.395c5.859-5.859,15.352-5.859,21.211,0s5.859,15.352,0,21.211l-45,45   C323.676,300.535,319.838,302,316,302z"/>
	<path style="fill:#6ECD24;" d="M316,212c-3.838,0-7.676-1.465-10.605-4.395l-30-30c-5.859-5.859-5.859-15.352,0-21.211   s15.352-5.859,21.211,0L316,175.789l34.395-34.395c5.859-5.859,15.352-5.859,21.211,0s5.859,15.352,0,21.211l-45,45   C323.676,210.535,319.838,212,316,212z"/>
</g>
<path style="fill:#E50027;" d="M337.211,377l19.395-19.395c5.859-5.859,5.859-15.352,0-21.211s-15.352-5.859-21.211,0L316,355.789  l-19.395-19.395c-5.859-5.859-15.352-5.859-21.211,0s-5.859,15.352,0,21.211L294.789,377l-19.395,19.395  c-5.859,5.859-5.859,15.352,0,21.211c2.93,2.93,6.768,4.395,10.605,4.395s7.676-1.465,10.605-4.395L316,398.211l19.395,19.395  c2.93,2.93,6.768,4.395,10.605,4.395s7.676-1.465,10.605-4.395c5.859-5.859,5.859-15.352,0-21.211L337.211,377z"/>
<path style="fill:#FEDB41;" d="M346,90H166c-8.291,0-15-6.709-15-15l0,0c0-24.814,20.186-45,45-45h17.563  C219.76,12.539,236.444,0,256,0s36.24,12.539,42.437,30H316c24.814,0,45,20.186,45,45l0,0C361,83.291,354.291,90,346,90z"/>
<path style="fill:#FFCC33;" d="M346,90c8.291,0,15-6.709,15-15c0-24.814-20.186-45-45-45h-17.563C292.24,12.539,275.556,0,256,0v90  H346z"/>
<g>
</g>
<g>
</g>
<g>
</g>
<g>
</g>
<g>
</g>
<g>
</g>
<g>
</g>
<g>
</g>
<g>
</g>
<g>
</g>
<g>
</g>
<g>
</g>
<g>
</g>
<g>
</g>
<g>
</g>
</svg>
