<?xml version="1.0" encoding="iso-8859-1"?>
<!-- Generator: Adobe Illustrator 19.0.0, SVG Export Plug-In . SVG Version: 6.00 Build 0)  -->
<svg xmlns="http://www.w3.org/2000/svg" xmlns:xlink="http://www.w3.org/1999/xlink" version="1.1" id="Capa_1" x="0px" y="0px" viewBox="0 0 512 512" style="enable-background:new 0 0 512 512;" xml:space="preserve">
<path style="fill:#FD003A;" d="M45.339,510.18c-24.774,0-44.928-20.154-44.928-44.928V74.88c0-24.774,20.154-44.928,44.928-44.928  h29.952c8.278,0,14.976,6.698,14.976,14.976v360.421c0,8.263,6.713,14.976,14.976,14.976h91.852c41.287,0,74.88,33.593,74.88,74.88  C271.974,519.698,241.406,510.18,45.339,510.18z"/>
<path style="fill:#E50027;" d="M466.661,510.18c-196.068,0-224.639,9.518-224.639-14.976c0-41.287,33.593-74.88,74.88-74.88h89.856  c8.263,0,14.976-6.713,14.976-14.976V44.928c0-8.278,6.698-14.976,14.976-14.976h29.952c24.774,0,44.928,20.154,44.928,44.928  v390.372C511.588,490.026,491.436,510.18,466.661,510.18z"/>
<path style="fill:#E1E4FB;" d="M406.758,0h-29.952c-8.388,0-14.976,6.588-14.976,14.976v143.468  c-10.185-9.885-15.576-14.376-29.952,0V14.976C331.878,6.588,325.29,0,316.902,0H286.95c-11.681,0-21.864,4.492-29.952,11.681  C248.91,4.491,238.728,0,227.047,0H105.242C80.381,0,60.315,20.067,60.315,44.928v360.421c0,24.859,20.067,44.928,44.928,44.928  h91.852c24.861,0,44.928,20.067,44.928,44.928c0,9.883,7.488,14.976,14.976,14.976c7.488,0,14.976-5.093,14.976-14.976  c0-24.861,20.067-44.928,44.928-44.928h89.856c24.861,0,44.928-20.069,44.928-44.928V44.928C451.685,20.067,431.618,0,406.758,0z"/>
<path style="fill:#C5C9F7;" d="M451.685,44.928v360.421c0,24.859-20.067,44.928-44.928,44.928h-89.856  c-24.861,0-44.928,20.067-44.928,44.928c0,9.883-7.488,14.976-14.976,14.976V11.681C265.086,4.491,275.269,0,286.95,0h29.952  c8.388,0,14.976,6.588,14.976,14.976v143.468c14.376-14.376,19.767-9.885,29.952,0V14.976C361.83,6.588,368.418,0,376.806,0h29.952  C431.618,0,451.685,20.067,451.685,44.928z"/>
<path style="fill:#E50027;" d="M366.217,205.275l-19.364-19.364l-19.364,19.364c-9.465,9.465-25.564,2.688-25.564-10.588V0h89.856  v194.687C391.782,208.042,375.583,214.642,366.217,205.275z"/>
<g>
	<path style="fill:#1689FC;" d="M376.806,390.372h-59.904c-19.741,0-19.822-29.952,0-29.952h59.904   C396.547,360.421,396.628,390.372,376.806,390.372z"/>
	<path style="fill:#1689FC;" d="M376.806,330.469h-59.904c-19.741,0-19.822-29.952,0-29.952h59.904   C396.547,300.517,396.628,330.469,376.806,330.469z"/>
	<path style="fill:#1689FC;" d="M376.806,269.567h-59.904c-19.741,0-19.822-29.952,0-29.952h59.904   C396.547,239.615,396.628,269.567,376.806,269.567z"/>
</g>
<g>
	<path style="fill:#18A7FC;" d="M197.095,209.663h-61.9c-19.741,0-19.822-29.952,0-29.952h61.9   C216.836,179.711,216.917,209.663,197.095,209.663z"/>
	<path style="fill:#18A7FC;" d="M197.095,269.567c-42.949,0-76.876,7.284-76.876-14.976c0-8.278,6.698-14.976,14.976-14.976h61.9   C216.836,239.615,216.917,269.567,197.095,269.567z"/>
	<path style="fill:#18A7FC;" d="M197.095,330.469h-61.9c-19.741,0-19.822-29.952,0-29.952h61.9   C216.836,300.517,216.917,330.469,197.095,330.469z"/>
	<path style="fill:#18A7FC;" d="M197.095,390.372h-61.9c-19.741,0-19.822-29.952,0-29.952h61.9   C216.836,360.421,216.917,390.372,197.095,390.372z"/>
	<path style="fill:#18A7FC;" d="M197.095,149.759h-61.9c-8.278,0-14.976-6.698-14.976-14.976V74.88   c0-8.278,6.698-14.976,14.976-14.976h61.9c8.278,0,14.976,6.698,14.976,14.976v59.904   C212.071,143.061,205.372,149.759,197.095,149.759z"/>
</g>
<g>
</g>
<g>
</g>
<g>
</g>
<g>
</g>
<g>
</g>
<g>
</g>
<g>
</g>
<g>
</g>
<g>
</g>
<g>
</g>
<g>
</g>
<g>
</g>
<g>
</g>
<g>
</g>
<g>
</g>
</svg>
