<?xml version="1.0" encoding="iso-8859-1"?>
<!-- Generator: Adobe Illustrator 19.0.0, SVG Export Plug-In . SVG Version: 6.00 Build 0)  -->
<svg xmlns="http://www.w3.org/2000/svg" xmlns:xlink="http://www.w3.org/1999/xlink" version="1.1" id="Capa_1" x="0px" y="0px" viewBox="0 0 512 512" style="enable-background:new 0 0 512 512;" xml:space="preserve">
<path style="fill:#A8AFF1;" d="M452,376.5c0,8.291-6.709,15-15,15h-60c-8.291,0-15-6.709-15-15v-181c0-8.291,6.709-15,15-15h60  c8.291,0,15,6.709,15,15V376.5z"/>
<g>
	<path style="fill:#C5C9F7;" d="M135,391.5H75c-8.291,0-15-6.709-15-15v-181c0-8.291,6.709-15,15-15h60c8.291,0,15,6.709,15,15v181   C150,384.791,143.291,391.5,135,391.5z"/>
	<path style="fill:#C5C9F7;" d="M285,180.5h-60c-8.401,0-15,6.599-15,15v181c0,8.399,6.599,15,15,15h60c8.401,0,15-6.601,15-15v-181   C300,187.099,293.401,180.5,285,180.5z"/>
</g>
<path style="fill:#E1E4FB;" d="M437,361.5H75c-24.901,0-45,20.099-45,45v30c0,8.399,6.599,15,15,15h422c8.401,0,15-6.601,15-15v-30  C482,381.599,461.901,361.5,437,361.5z"/>
<path style="fill:#A8AFF1;" d="M285,391.5h-30v-211h30c8.401,0,15,6.599,15,15v181C300,384.899,293.401,391.5,285,391.5z"/>
<path style="fill:#C5C9F7;" d="M482,406.5v30c0,8.399-6.599,15-15,15H255v-90h182C461.901,361.5,482,381.599,482,406.5z"/>
<path style="fill:#E1E4FB;" d="M482,135.5c0-8.401-6.599-15-15-15H45c-8.401,0-15,6.599-15,15v30c0,24.899,20.099,45,45,45h362  c24.901,0,45-20.101,45-45V135.5z"/>
<g>
	<path style="fill:#C5C9F7;" d="M467,120.5c8.401,0,15,6.599,15,15v30c0,24.899-20.099,45-45,45H255v-90H467z"/>
	<path style="fill:#C5C9F7;" d="M502.4,91.399l-242-90C258.6,0.8,256.8,0.5,255,0.5s-3.6,0.3-5.4,0.899l-240,90   c-5.7,2.1-9.6,7.8-9.6,14.101v30c0,8.399,6.599,15,15,15h482c8.401,0,15-6.601,15-15v-30C512,99.199,508.1,93.499,502.4,91.399z"/>
</g>
<path style="fill:#A8AFF1;" d="M512,105.5v30c0,8.399-6.599,15-15,15H255V0.5c1.8,0,3.6,0.3,5.4,0.899l242,90  C508.1,93.499,512,99.199,512,105.5z"/>
<path style="fill:#C5C9F7;" d="M467,421.5H45c-24.901,0-45,20.099-45,45v30c0,8.399,6.599,15,15,15h482c8.401,0,15-6.601,15-15v-30  C512,441.599,491.901,421.5,467,421.5z"/>
<path style="fill:#A8AFF1;" d="M512,466.5v30c0,8.399-6.599,15-15,15H255v-90h212C491.901,421.5,512,441.599,512,466.5z"/>
<g>
</g>
<g>
</g>
<g>
</g>
<g>
</g>
<g>
</g>
<g>
</g>
<g>
</g>
<g>
</g>
<g>
</g>
<g>
</g>
<g>
</g>
<g>
</g>
<g>
</g>
<g>
</g>
<g>
</g>
</svg>
