<?xml version="1.0" encoding="iso-8859-1"?>
<!-- Generator: Adobe Illustrator 19.0.0, SVG Export Plug-In . SVG Version: 6.00 Build 0)  -->
<svg xmlns="http://www.w3.org/2000/svg" xmlns:xlink="http://www.w3.org/1999/xlink" version="1.1" id="Capa_1" x="0px" y="0px" viewBox="0 0 512 512" style="enable-background:new 0 0 512 512;" xml:space="preserve">
<path style="fill:#FD003A;" d="M482,212H30c-16.569,0-30-13.431-30-30v-77c0-24.853,20.147-45,45-45h422c24.853,0,45,20.147,45,45  v77C512,198.569,498.569,212,482,212z"/>
<path style="fill:#E50027;" d="M467,60H256v152h226c16.569,0,30-13.433,30-30v-77C512,80.147,491.853,60,467,60z"/>
<path style="fill:#E1E4FB;" d="M467,512H45c-24.853,0-45-20.147-45-45V182h512v285C512,491.853,491.853,512,467,512z"/>
<path style="fill:#C5C9F7;" d="M256,512h211c24.853,0,45-20.147,45-45V182H256V512z"/>
<g>
	<path style="fill:#18A7FC;" d="M166,332h-60c-8.291,0-15-6.709-15-15v-60c0-8.291,6.709-15,15-15h60c8.291,0,15,6.709,15,15v60   C181,325.291,174.291,332,166,332z"/>
	<path style="fill:#18A7FC;" d="M166,452h-60c-8.291,0-15-6.709-15-15v-60c0-8.291,6.709-15,15-15h60c8.291,0,15,6.709,15,15v60   C181,445.291,174.291,452,166,452z"/>
	<path style="fill:#18A7FC;" d="M286,452h-60c-8.291,0-15-6.709-15-15v-60c0-8.291,6.709-15,15-15h60c8.291,0,15,6.709,15,15v60   C301,445.291,294.291,452,286,452z"/>
	<path style="fill:#18A7FC;" d="M286,332h-60c-8.291,0-15-6.709-15-15v-60c0-8.291,6.709-15,15-15h60c8.291,0,15,6.709,15,15v60   C301,325.291,294.291,332,286,332z"/>
</g>
<g>
	<path style="fill:#1689FC;" d="M406,332h-60c-8.291,0-15-6.709-15-15v-60c0-8.291,6.709-15,15-15h60c8.291,0,15,6.709,15,15v60   C421,325.291,414.291,332,406,332z"/>
	<path style="fill:#1689FC;" d="M406,452h-60c-8.291,0-15-6.709-15-15v-60c0-8.291,6.709-15,15-15h60c8.291,0,15,6.709,15,15v60   C421,445.291,414.291,452,406,452z"/>
</g>
<path style="fill:#0A4EAF;" d="M105,135c-16.538,0-30-13.462-30-30V30c0-16.538,13.462-30,30-30s30,13.462,30,30v75  C135,121.538,121.538,135,105,135z"/>
<path style="fill:#063E8B;" d="M407,135c-16.538,0-30-13.462-30-30V30c0-16.538,13.462-30,30-30s30,13.462,30,30v75  C437,121.538,423.538,135,407,135z"/>
<g>
	<path style="fill:#1689FC;" d="M286,362h-30v90h30c8.291,0,15-6.709,15-15v-60C301,368.709,294.291,362,286,362z"/>
	<path style="fill:#1689FC;" d="M286,242h-30v90h30c8.291,0,15-6.709,15-15v-60C301,248.709,294.291,242,286,242z"/>
</g>
<g>
</g>
<g>
</g>
<g>
</g>
<g>
</g>
<g>
</g>
<g>
</g>
<g>
</g>
<g>
</g>
<g>
</g>
<g>
</g>
<g>
</g>
<g>
</g>
<g>
</g>
<g>
</g>
<g>
</g>
</svg>
