<?xml version="1.0" encoding="iso-8859-1"?>
<!-- Generator: Adobe Illustrator 19.0.0, SVG Export Plug-In . SVG Version: 6.00 Build 0)  -->
<svg xmlns="http://www.w3.org/2000/svg" xmlns:xlink="http://www.w3.org/1999/xlink" version="1.1" id="Capa_1" x="0px" y="0px" viewBox="0 0 512 512" style="enable-background:new 0 0 512 512;" xml:space="preserve">
<path style="fill:#FD003A;" d="M424.415,151.2L360.73,87.515c-11.717-11.717-11.716-30.715,0.004-42.43l31.999-31.988  c17.473-17.467,46.06-17.462,63.527,0.011l42.572,42.587C507.327,64.176,512,75.455,512,87.452c0,11.982-4.673,23.262-13.169,31.758  l-31.99,31.99C455.125,162.916,436.13,162.916,424.415,151.2z"/>
<path style="fill:#E50027;" d="M512,87.452c0-11.997-4.673-23.276-13.169-31.758l-21.295-21.302l-84.965,84.965l31.844,31.844  c11.715,11.715,30.71,11.715,42.426,0l31.99-31.99C507.327,110.714,512,99.435,512,87.452z"/>
<path style="fill:#E1E4FB;" d="M382.125,193.49l-63.687-63.687c-11.716-11.716-11.716-30.711,0-42.426l42.288-42.288  l106.113,106.113l-42.288,42.288C412.835,205.206,393.84,205.206,382.125,193.49z"/>
<path style="fill:#C5C9F7;" d="M382.125,193.491c11.715,11.715,30.71,11.715,42.426,0l42.288-42.288l-53.057-53.057l-63.501,63.501  L382.125,193.491z"/>
<path style="fill:#FEA832;" d="M152.814,465.301l271.735-271.808L318.436,87.379L46.701,359.188l21.328,42.349  c7.91,7.91,18.252,12.524,29.341,13.11c0.586,10.679,4.951,21.182,13.096,29.326L152.814,465.301z"/>
<path style="fill:#FE9923;" d="M97.37,414.646c0.586,10.679,4.951,21.182,13.096,29.326l42.349,21.328L424.55,193.492  l-53.057-53.057L97.359,414.643C97.363,414.643,97.366,414.646,97.37,414.646z"/>
<path style="fill:#E1E4FB;" d="M121.067,433.36c-11.715-11.715-11.715-30.71,0-42.426c-11.715,11.715-30.71,11.715-42.426,0  L46.798,359.09l-0.097,0.097c-1.655,1.655-2.886,3.662-3.633,5.874l-29.473,88.623c22.178,5.158,39.564,22.542,44.722,44.722  l88.623-29.473c2.212-0.747,4.219-1.978,5.874-3.633l0.097-0.097L121.067,433.36z"/>
<path style="fill:#C5C9F7;" d="M4.396,507.605C7.253,510.462,11.091,512,15.002,512c1.582,0,3.179-0.249,4.731-0.762l127.207-42.305  c2.212-0.747,4.219-1.978,5.874-3.633l0.097-0.097l-31.844-31.844c-11.715-11.715-11.715-30.71,0-42.426L4.396,507.605z"/>
<path style="fill:#063E8B;" d="M13.595,453.685L0.763,492.269c-1.787,5.391-0.381,11.323,3.633,15.337  C7.253,510.462,11.091,512,15.002,512c1.582,0,3.179-0.249,4.731-0.762l38.584-12.832C53.159,476.227,35.773,458.843,13.595,453.685  z"/>
<path style="fill:#032E68;" d="M15.002,512c1.582,0,3.179-0.249,4.731-0.762l38.584-12.832c-2.58-11.091-8.214-20.98-15.978-28.744  L4.396,507.605C7.253,510.462,11.091,512,15.002,512z"/>
<g>
</g>
<g>
</g>
<g>
</g>
<g>
</g>
<g>
</g>
<g>
</g>
<g>
</g>
<g>
</g>
<g>
</g>
<g>
</g>
<g>
</g>
<g>
</g>
<g>
</g>
<g>
</g>
<g>
</g>
</svg>
