<?xml version="1.0" encoding="iso-8859-1"?>
<!-- Generator: Adobe Illustrator 19.0.0, SVG Export Plug-In . SVG Version: 6.00 Build 0)  -->
<svg xmlns="http://www.w3.org/2000/svg" xmlns:xlink="http://www.w3.org/1999/xlink" version="1.1" id="Capa_1" x="0px" y="0px" viewBox="0 0 512 512" style="enable-background:new 0 0 512 512;" xml:space="preserve">
<path style="fill:#E1E4FB;" d="M455.85,54v254H53.849V54h72.9l1.201,3.9c5.7,15.601,20.4,26.1,36.899,26.1h180  c16.5,0,31.199-10.499,36.899-26.1l1.201-3.9H455.85z"/>
<path style="fill:#C5C9F7;" d="M455.85,54v254h-201V84h90c16.5,0,31.199-10.499,36.899-26.1l1.201-3.9H455.85z"/>
<path style="fill:#FEDB41;" d="M304.861,122.887c-15.972,0-31.354,4.438-44.369,12.127c-21.889,12.425-37.863,34.313-42.891,60.343  c-0.886,4.732,0.592,9.762,4.142,13.015l51.764,51.764c17.157,17.451,45.552,17.451,62.709,0l31.946-31.946  c5.62-5.324,15.676-2.957,21.296-8.577c2.663-2.959,4.142-6.805,4.142-10.944C392.121,161.34,352.483,122.887,304.861,122.887z"/>
<path style="fill:#FFCC33;" d="M304.861,122.887c-15.972,0-31.354,4.438-44.369,12.127c-1.929,1.095-3.809,2.267-5.642,3.505V241.48  l18.657,18.657c17.157,17.451,45.552,17.451,62.708,0l31.947-31.946c5.62-5.324,15.676-2.957,21.296-8.577  c2.663-2.959,4.142-6.805,4.142-10.944C392.121,161.34,352.483,122.887,304.861,122.887z"/>
<path style="fill:#9D481A;" d="M284.849,302h-60c-8.401,0-15,6.599-15,15v60c0,8.401,6.599,15,15,15h60c8.401,0,15-6.599,15-15v-60  C299.849,308.599,293.25,302,284.849,302z"/>
<path style="fill:#6E351C;" d="M299.849,317v60c0,8.401-6.599,15-15,15h-30v-90h30C293.25,302,299.849,308.599,299.849,317z"/>
<path style="fill:#9D481A;" d="M284.849,422h-60c-8.401,0-15,6.599-15,15v60c0,8.401,6.599,15,15,15h60c8.401,0,15-6.599,15-15v-60  C299.849,428.599,293.25,422,284.849,422z"/>
<path style="fill:#6E351C;" d="M299.849,437v60c0,8.401-6.599,15-15,15h-30v-90h30C293.25,422,299.849,428.599,299.849,437z"/>
<path style="fill:#9D481A;" d="M398.849,432.201l-19.799-60c-1.8-6-7.5-10.201-14.101-10.201H144.75  c-6.601,0-12.301,4.2-14.101,10.201l-19.799,60c-3.3,9.899,3.9,19.799,14.099,19.799H384.75  C394.949,452,402.149,442.099,398.849,432.201z"/>
<path style="fill:#6E351C;" d="M398.849,432.201c3.3,9.899-3.9,19.799-14.099,19.799H254.849v-90h110.099  c6.601,0,12.301,4.2,14.101,10.201L398.849,432.201z"/>
<path style="fill:#9D481A;" d="M104.849,512h-60c-10.257,0-17.482-10.065-14.224-19.746l60-180  C92.662,306.131,98.389,302,104.849,302h60c4.819,0,9.36,2.314,12.173,6.24c2.827,3.911,3.589,8.95,2.051,13.521l-60,180  C117.022,507.884,111.295,512,104.849,512z"/>
<path style="fill:#66BD21;" d="M406.649,207.8c-16.5-16.8-47.1-16.8-63.6,0l-32.4,32.4c-6,5.7-15.599,5.7-21.599,0l-92.401-92.4  c-17.401-17.699-46.199-17.699-63.6,0l-88.2,88.2v81h420v-51L406.649,207.8z"/>
<path style="fill:#6E351C;" d="M464.849,512h-60c-6.445,0-12.173-4.116-14.224-10.239l-60-180c-1.538-4.57-0.776-9.609,2.051-13.521  c2.813-3.926,7.354-6.24,12.173-6.24h60c6.46,0,12.188,4.131,14.224,10.254l60,180C482.331,501.935,475.106,512,464.849,512z"/>
<path style="fill:#5DAD1D;" d="M464.849,266v51h-210V206l34.2,34.2c6,5.7,15.599,5.7,21.599,0l32.401-32.401  c16.5-16.8,47.1-16.8,63.6,0L464.849,266z"/>
<path style="fill:#9D481A;" d="M464.849,30h-90c-8.401,0-15,6.599-15,15s-6.599,15-15,15h-180c-8.401,0-15-6.599-15-15  s-6.599-15-15-15h-90c-8.401,0-15,6.599-15,15v272c0,8.401,6.599,15,15,15h420c8.401,0,15-6.599,15-15V45  C479.849,36.599,473.25,30,464.849,30z M449.849,302h-390V60h62.701c5.999,17.401,22.798,30,42.299,30h180  c19.501,0,36.301-12.599,42.299-30h62.701V302z"/>
<path style="fill:#6E351C;" d="M479.849,45v272c0,8.401-6.599,15-15,15h-210v-30h195V60h-62.701c-5.999,17.401-22.798,30-42.299,30  h-90V60h90c8.401,0,15-6.599,15-15s6.599-15,15-15h90C473.25,30,479.849,36.599,479.849,45z"/>
<path style="fill:#C5C9F7;" d="M344.849,0h-180c-24.901,0-45,20.099-45,45s20.099,45,45,45h180c24.901,0,45-20.099,45-45  S369.75,0,344.849,0z"/>
<path style="fill:#A8AFF1;" d="M344.849,90h-90V0h90c24.901,0,45,20.099,45,45S369.75,90,344.849,90z"/>
<path style="fill:#BC620F;" d="M497.151,332H14.849c-19.799,0-19.799-30,0-30H497.15C516.95,302,516.95,332,497.151,332z"/>
<path style="fill:#9D481A;" d="M497.151,332H254.849v-30H497.15C516.95,302,516.95,332,497.151,332z"/>
<g>
</g>
<g>
</g>
<g>
</g>
<g>
</g>
<g>
</g>
<g>
</g>
<g>
</g>
<g>
</g>
<g>
</g>
<g>
</g>
<g>
</g>
<g>
</g>
<g>
</g>
<g>
</g>
<g>
</g>
</svg>
