<?xml version="1.0" encoding="iso-8859-1"?>
<!-- Generator: Adobe Illustrator 19.0.0, SVG Export Plug-In . SVG Version: 6.00 Build 0)  -->
<svg xmlns="http://www.w3.org/2000/svg" xmlns:xlink="http://www.w3.org/1999/xlink" version="1.1" id="Capa_1" x="0px" y="0px" viewBox="0 0 512 512" style="enable-background:new 0 0 512 512;" xml:space="preserve">
<path style="fill:#0A4EAF;" d="M466,497c0,8.399-6.599,15-15,15H31c-8.401,0-15-6.601-15-15c0-90.901,74.099-167,165-167  c5.099,0,9.6,2.399,12.599,6.599l47.401,71.4l47.401-71.4c2.999-4.2,7.5-6.599,12.599-6.599C391.901,330,466,406.099,466,497z"/>
<path style="fill:#063E8B;" d="M466,497c0,8.399-6.599,15-15,15H241V407.999l47.401-71.4c2.999-4.2,7.5-6.599,12.599-6.599  C391.901,330,466,406.099,466,497z"/>
<path style="fill:#FFCF99;" d="M302.201,313.5l-6.599-13.2c-3.604-7.202-11.704-10.201-18.904-7.202  C265.001,297.599,253.001,300,241,300s-24.001-2.401-35.698-6.901c-7.2-2.999-15.3,0-18.904,7.202l-6.599,13.2l-8.401,17.098  L241,435l69.602-104.401L302.201,313.5z"/>
<path style="fill:#C5C9F7;" d="M361,450h-30c-19.773,0-19.854-30,0-30h30C380.773,420,380.854,450,361,450z"/>
<path style="fill:#FFC380;" d="M310.602,330.599L241,435V300c12.001,0,24.001-2.401,35.698-6.901c7.2-2.999,15.3,0,18.904,7.202  l6.599,13.2L310.602,330.599z"/>
<path style="fill:#FFDBB2;" d="M375.399,166.8v-2.401c0-18.6-27.599-20.4-30-1.8C344.801,167.1,342.4,171,338.5,172.8  c-29.7,14.7-63.6,21.9-97.5,21.9s-67.8-7.5-97.8-21.899c-3.3-1.501-6-5.402-6.899-9.6c-3.9-17.401-28.5-15-29.7,2.1v2.098  c-0.3,4.2-0.601,8.101-0.601,12.601c0,56.7,29.099,108.3,73.801,133.5c4.799,2.699,9.6,5.099,14.7,7.2  c15.3,6.299,30.899,9.3,46.5,9.3s31.199-3.001,46.8-9.3c5.099-2.1,9.901-4.501,14.399-7.2C346.901,288.3,376,236.7,376,180  C376,175.8,375.7,171.599,375.399,166.8z"/>
<path style="fill:#FFCF99;" d="M376,180c0,56.7-29.099,108.3-73.801,133.5c-4.499,2.699-9.3,5.099-14.399,7.2  c-15.601,6.299-31.199,9.3-46.8,9.3V194.7c33.9,0,67.8-7.2,97.5-21.899c3.9-1.8,6.301-5.7,6.899-10.201c2.401-18.6,30-16.8,30,1.8  v2.401C375.7,171.599,376,175.8,376,180z"/>
<path style="fill:#063E8B;" d="M370,88.799c-3.6-2.699-8.699-3.6-13.2-2.399L241,119.399L125.2,86.4  c-9.6-2.701-19.2,4.499-19.2,14.399v59.099c0,2.401,0.3,5.101,0.601,7.5c2.1,13.801,10.8,26.4,23.399,32.401  C163.9,216.299,202.301,225,241,225s77.1-8.701,110.7-25.201c13.5-6.299,21.599-19.499,23.699-32.999  c0.3-2.401,0.601-4.501,0.601-6.901V100.8C376,96,373.9,91.8,370,88.799z"/>
<path style="fill:#FE9923;" d="M436,255V86.25c0-19.773,30-19.854,30,0V255C466,274.773,436,274.854,436,255z"/>
<path style="fill:#FFCC33;" d="M481,330h-60c-8.291,0-15-6.709-15-15v-30c0-24.814,20.186-45,45-45s45,20.186,45,45v30  C496,323.291,489.291,330,481,330z"/>
<path style="fill:#032E68;" d="M376,100.8v59.099c0,2.401-0.3,4.501-0.601,6.901c-2.1,13.5-10.199,26.7-23.699,32.999  C318.1,216.299,279.699,225,241,225V119.399L356.8,86.4c4.501-1.201,9.6-0.3,13.2,2.399C373.9,91.8,376,96,376,100.8z"/>
<path style="fill:#0A4EAF;" d="M455.2,60.599l-210-60C243.999,0,242.5,0,241,0s-2.999,0-4.2,0.599l-210,60  c-14.399,4.2-14.399,24.6,0,28.801l210,60c1.201,0.6,2.7,0.6,4.2,0.6s2.999,0,4.2-0.601l210-60  C469.6,85.199,469.6,64.799,455.2,60.599z"/>
<path style="fill:#063E8B;" d="M245.2,149.399C243.999,150,242.5,150,241,150V0c1.5,0,2.999,0,4.2,0.599l210,60  c14.399,4.2,14.399,24.6,0,28.801L245.2,149.399z"/>
<g>
</g>
<g>
</g>
<g>
</g>
<g>
</g>
<g>
</g>
<g>
</g>
<g>
</g>
<g>
</g>
<g>
</g>
<g>
</g>
<g>
</g>
<g>
</g>
<g>
</g>
<g>
</g>
<g>
</g>
</svg>
