<?xml version="1.0" encoding="iso-8859-1"?>
<!-- Generator: Adobe Illustrator 19.0.0, SVG Export Plug-In . SVG Version: 6.00 Build 0)  -->
<svg xmlns="http://www.w3.org/2000/svg" xmlns:xlink="http://www.w3.org/1999/xlink" version="1.1" id="Capa_1" x="0px" y="0px" viewBox="0 0 512 512" style="enable-background:new 0 0 512 512;" xml:space="preserve">
<path style="fill:#E1E4FB;" d="M377,272c8.401,0,15-6.601,15-15V105c0-8.401-6.599-15-15-15h-75V15c0-8.401-6.599-15-15-15H45  C20.099,0,0,20.099,0,45v422c0,24.899,20.099,45,45,45h332c8.401,0,15-6.601,15-15c0-8.401-6.599-15-15-15c-57.9,0-105-47.1-105-105  S319.1,272,377,272z"/>
<path style="fill:#C5C9F7;" d="M272,377c0,57.9,47.1,105,105,105c8.401,0,15,6.599,15,15c0,8.399-6.599,15-15,15H167V0h120  c8.401,0,15,6.599,15,15v75h75c8.401,0,15,6.599,15,15v152c0,8.399-6.599,15-15,15C319.1,272,272,319.1,272,377z"/>
<g>
	<path style="fill:#18A7FC;" d="M257,272H75c-19.872,0-19.872-30,0-30h182C276.872,242,276.872,272,257,272z"/>
	<path style="fill:#18A7FC;" d="M197,392H75c-19.872,0-19.872-30,0-30h122C216.872,362,216.872,392,197,392z"/>
	<path style="fill:#18A7FC;" d="M197,452H75c-19.872,0-19.872-30,0-30h122C216.872,422,216.872,452,197,452z"/>
	<path style="fill:#18A7FC;" d="M197,332H75c-19.872,0-19.872-30,0-30h122C216.872,302,216.872,332,197,332z"/>
</g>
<g>
	<path style="fill:#1689FC;" d="M197,452h-30v-30h30C216.872,422,216.872,452,197,452z"/>
	<path style="fill:#1689FC;" d="M197,392h-30v-30h30C216.872,362,216.872,392,197,392z"/>
	<path style="fill:#1689FC;" d="M197,332h-30v-30h30C216.872,302,216.872,332,197,332z"/>
	<path style="fill:#1689FC;" d="M257,272h-90v-30h90C276.872,242,276.872,272,257,272z"/>
</g>
<path style="fill:#E1E4FB;" d="M497,377c0,66.299-53.699,120-120,120s-120-53.701-120-120c0-66.301,53.699-120,120-120  S497,310.699,497,377z"/>
<path style="fill:#E50027;" d="M377,242c-74.399,0-135,60.599-135,135c0,74.399,60.601,135,135,135s135-60.601,135-135  C512,302.599,451.399,242,377,242z M377,482c-57.9,0-105-47.1-105-105s47.1-105,105-105s105,47.1,105,105S434.9,482,377,482z"/>
<path style="fill:#18A7FC;" d="M197,60H75c-8.401,0-15,6.599-15,15v120c0,8.399,6.599,15,15,15h122c8.401,0,15-6.601,15-15V75  C212,66.599,205.401,60,197,60z"/>
<g>
	<path style="fill:#1689FC;" d="M197,210h-30V60h30c8.401,0,15,6.599,15,15v120C212,203.399,205.401,210,197,210z"/>
	<path style="fill:#1689FC;" d="M317,180h-60c-19.773,0-19.854-30,0-30h60C336.773,150,336.854,180,317,180z"/>
</g>
<path style="fill:#A8AFF1;" d="M392,120H287c-8.291,0-15-6.709-15-15V0h32.695c11.763,0,23.291,4.775,31.611,13.096l42.598,42.598  C387.225,64.014,392,75.542,392,87.305V120z"/>
<g>
	<path style="fill:#063E8B;" d="M390.236,391h-15c-8.284,0-15-6.716-15-15v-60c0-8.284,6.716-15,15-15s15,6.716,15,15V391z"/>
	<path style="fill:#063E8B;" d="M450.236,376c0,8.284-6.716,15-15,15h-60c-8.284,0-15-6.716-15-15v-15h75   C443.52,361,450.236,367.716,450.236,376z"/>
</g>
<g>
</g>
<g>
</g>
<g>
</g>
<g>
</g>
<g>
</g>
<g>
</g>
<g>
</g>
<g>
</g>
<g>
</g>
<g>
</g>
<g>
</g>
<g>
</g>
<g>
</g>
<g>
</g>
<g>
</g>
</svg>
