<?xml version="1.0" encoding="iso-8859-1"?>
<!-- Generator: Adobe Illustrator 19.0.0, SVG Export Plug-In . SVG Version: 6.00 Build 0)  -->
<svg xmlns="http://www.w3.org/2000/svg" xmlns:xlink="http://www.w3.org/1999/xlink" version="1.1" id="Capa_1" x="0px" y="0px" viewBox="0 0 512.002 512.002" style="enable-background:new 0 0 512.002 512.002;" xml:space="preserve">
<path style="fill:#0A4EAF;" d="M422.649,477.526l-136.198-243.3c-5.702-9.901-16.201-9.3-22.8-3.6  c-1.198-0.601-2.399-0.901-3.9-0.901c-1.201,0-2.402,0.3-3.6,0.901c-6.603-5.402-17.399-6-22.8,3.6l-136.799,243  c-9.602,17.401,16.498,32.1,26.396,15c0,0,3.375-6.053,8.278-14.844c12.995-23.306,36.722-65.856,36.722-65.856l1.024-1.8h75.778  c0,26.822,0,44.036,0,75c0,9.901,7.5,15,15,15c7.5,0,15-5.099,15-15c0-102.215,0-61.652,0-75h75.54  c9.648,17.241,22.161,39.602,32.227,57.59c7.824,13.885,14.035,24.91,14.035,24.91c2.699,4.799,7.8,7.8,12.898,7.8  c2.703,0,5.098-0.601,7.5-2.1C424.15,494.026,426.552,484.726,422.649,477.526z M333.505,379.726h-58.754v-105L333.505,379.726z   M244.751,275.327v104.399h-58.744L244.751,275.327z"/>
<path style="fill:#063E8B;" d="M274.751,484.726c0-57.025,0-69.582,0-71.882c0-0.278,0-0.434,0-0.472c0-0.423,0-1.168,0-2.646h75.54  c9.648,17.241,22.161,39.602,32.227,57.59c7.824,13.885,14.035,24.91,14.035,24.91c2.699,4.799,7.8,7.8,12.898,7.8  c2.703,0,5.098-0.601,7.5-2.1c7.2-3.9,9.602-13.2,5.698-20.4l-136.198-243.3c-5.702-9.901-16.201-9.3-22.8-3.6  c-1.198-0.601-2.399-0.901-3.9-0.901v270C267.251,499.726,274.751,494.626,274.751,484.726z M274.751,274.726l58.755,105h-58.755  V274.726z"/>
<path style="fill:#FEA832;" d="M407.348,128.326l-10.496-58.801c-1.501-8.699-10.203-14.099-18.904-11.699l-248.378,71.1  c-7.2,2.1-11.997,9.6-10.499,17.1l5.402,30l5.098,29.099c1.201,7.2,7.5,12.301,14.7,12.301h0.901l90.577-4.501  c12.601-0.601,11.104-13.2,24.001-13.2c12.297,0,11.7,12.001,23.701,10.8l120.3-5.099c8.998-0.3,15.901-8.699,14.099-17.701  L407.348,128.326z"/>
<path style="fill:#FE9923;" d="M417.851,187.725c1.802,9.001-5.101,17.401-14.099,17.701l-120.3,5.099  c-12.001,1.201-11.404-10.8-23.701-10.8c-12.898,0-11.4,12.599-24.001,13.2l-90.577,4.501h-0.901c-7.2,0-13.499-5.101-14.7-12.301  l-5.098-29.099l282.875-47.701L417.851,187.725z"/>
<path style="fill:#FEDB41;" d="M496.151,113.025L480.55,24.226c-1.198-8.101-9.298-13.5-17.399-12.001l-59.099,10.499  c-24.302,4.501-40.803,27.601-36.599,52.202l10.496,58.2l10.503,59.7c3.596,22.2,22.8,37.5,44.099,37.5  c6.299,0,60.901-10.201,67.2-11.4c8.101-1.5,13.499-9.3,12.001-17.401L496.151,113.025z"/>
<path style="fill:#FFCC33;" d="M511.751,201.526c1.498,8.101-3.9,15.901-12.001,17.401c-6.299,1.199-60.901,11.4-67.2,11.4  c-21.299,0-40.503-15.3-44.099-37.5l-10.503-59.7l118.202-20.101L511.751,201.526z"/>
<path style="fill:#FEDB41;" d="M137.371,173.926l-7.8-45l-2.999,0.599l-54.598,9.6c-8.101,1.501-13.502,9.3-12.004,17.401  l5.402,29.7l5.101,29.401c1.501,8.099,9.302,13.499,17.399,11.999l46.501-8.399l10.8-1.8L137.371,173.926z"/>
<path style="fill:#FFCC33;" d="M137.371,173.926l7.8,43.5l-10.8,1.8l-46.501,8.399c-8.097,1.5-15.897-3.9-17.399-11.999  l-5.101-29.401L137.371,173.926z"/>
<path style="fill:#FEA832;" d="M99.871,210.525v-0.3l-5.098-29.099l-5.402-30c-11.1-59.7-99.001-41.4-88.502,15.899l5.101,29.401  l5.402,29.399C20.971,284.626,109.774,269.626,99.871,210.525z"/>
<path style="fill:#FE9923;" d="M99.871,210.525c9.902,59.101-78.9,74.101-88.499,15.3l-5.401-29.399l88.802-15.3l5.098,29.099  V210.525z"/>
<path style="fill:#E1E4FB;" d="M289.751,214.726c0,16.5-13.198,29.7-30,29.7c-17.999,0-30-14.7-30-29.7c0-17.999,14.7-30,30-30  C276.552,184.726,289.751,198.527,289.751,214.726z"/>
<path style="fill:#C5C9F7;" d="M289.751,214.726c0,16.5-13.198,29.7-30,29.7v-59.7C276.552,184.726,289.751,198.527,289.751,214.726  z"/>
<path style="fill:#0A4EAF;" d="M259.751,170.627c-22.5,0-45,15-45,44.099c0,24.6,20.098,45,45,45c24.302,0,45-19.2,45-45  C304.751,185.026,282.251,170.627,259.751,170.627z M259.751,229.726c-7.5,0-15-5.099-15-15c0-9,7.5-15,15-15  c8.401,0,15,6.899,15,15C274.751,224.626,267.251,229.726,259.751,229.726z"/>
<path style="fill:#063E8B;" d="M304.751,214.726c0,25.8-20.698,45-45,45v-30c7.5,0,15-5.099,15-15c0-8.101-6.599-15-15-15v-29.099  C282.251,170.627,304.751,185.026,304.751,214.726z"/>
<g>
</g>
<g>
</g>
<g>
</g>
<g>
</g>
<g>
</g>
<g>
</g>
<g>
</g>
<g>
</g>
<g>
</g>
<g>
</g>
<g>
</g>
<g>
</g>
<g>
</g>
<g>
</g>
<g>
</g>
</svg>
