<?xml version="1.0" encoding="iso-8859-1"?>
<!-- Generator: Adobe Illustrator 19.0.0, SVG Export Plug-In . SVG Version: 6.00 Build 0)  -->
<svg xmlns="http://www.w3.org/2000/svg" xmlns:xlink="http://www.w3.org/1999/xlink" version="1.1" id="Capa_1" x="0px" y="0px" viewBox="0 0 512 512" style="enable-background:new 0 0 512 512;" xml:space="preserve">
<g>
	<path style="fill:#063E8B;" d="M119.977,437v60c0,9.899-7.5,15-15,15s-15-5.101-15-15v-60c0-9.901,7.5-15,15-15   S119.977,427.099,119.977,437z"/>
	<path style="fill:#063E8B;" d="M134.977,512h-60c-19.799,0-19.799-30,0-30h60C154.776,482,154.776,512,134.977,512z"/>
</g>
<g>
	<path style="fill:#032E68;" d="M119.977,437v60c0,9.899-7.5,15-15,15v-90C112.477,422,119.977,427.099,119.977,437z"/>
	<path style="fill:#032E68;" d="M269.977,407V105c0-19.773,30-19.854,30,0v302C299.977,426.773,269.977,426.854,269.977,407z"/>
	<path style="fill:#032E68;" d="M452,407V75c0-19.773,30-19.854,30,0v332C482,426.773,452,426.854,452,407z"/>
</g>
<path style="fill:#063E8B;" d="M119.977,105v182c0,8.399-6.599,15-15,15s-15-6.601-15-15V105c0-8.401,6.599-15,15-15  S119.977,96.599,119.977,105z"/>
<path style="fill:#032E68;" d="M104.977,302V90c8.401,0,15,6.599,15,15v182C119.977,295.399,113.378,302,104.977,302z"/>
<path style="fill:#C5C9F7;" d="M377,302c-57.9,0-107.023,47.1-107.023,105S319.1,512,377,512s105-47.1,105-105S434.9,302,377,302z"/>
<path style="fill:#A8AFF1;" d="M482,407c0,57.9-47.1,105-105,105V302C434.9,302,482,349.1,482,407z"/>
<path style="fill:#E1E4FB;" d="M377,362c-24.901,0-47.023,20.099-47.023,45c0,24.899,22.122,45,47.023,45s45-20.101,45-45  C422,382.099,401.901,362,377,362z"/>
<path style="fill:#F29A36;" d="M191.677,343.999c-1.5-6.899-7.5-11.999-14.7-11.999H32.976c-7.2,0-13.2,5.099-14.7,11.999  l-17.999,90c-1.8,9.3,5.4,18.001,14.7,18.001h180c9.3,0,16.5-8.701,14.7-18.001L191.677,343.999z"/>
<g>
	<path style="fill:#F9BC35;" d="M179.677,283.999c-1.5-6.899-7.5-11.999-14.7-11.999h-120c-7.2,0-13.2,5.099-14.7,11.999L14.677,362   h180.601L179.677,283.999z"/>
	<path style="fill:#F9BC35;" d="M497,90h-60c-8.291,0-15-6.709-15-15V15c0-8.291,6.709-15,15-15h60c8.291,0,15,6.709,15,15v60   C512,83.291,505.291,90,497,90z"/>
</g>
<path style="fill:#C5C9F7;" d="M422,407c0,24.899-20.099,45-45,45v-90C401.901,362,422,382.099,422,407z"/>
<path style="fill:#E7812E;" d="M209.677,433.999c1.8,9.3-5.4,18.001-14.7,18.001h-90V332h72.001c7.2,0,13.2,5.099,14.7,11.999  L209.677,433.999z"/>
<path style="fill:#F39E31;" d="M195.277,362h-90.3v-90h60c7.2,0,13.2,5.099,14.7,11.999L195.277,362z"/>
<path style="fill:#C5C9F7;" d="M194.977,0c-57.9,0-105,47.1-105,105s47.1,105,105,105s105-47.1,105-105S252.877,0,194.977,0z"/>
<path style="fill:#E1E4FB;" d="M194.977,60c-24.901,0-45,20.099-45,45c0,24.899,20.099,45,45,45s45-20.101,45-45  C239.977,80.099,219.878,60,194.977,60z"/>
<path style="fill:#A8AFF1;" d="M299.977,105c0,57.9-47.1,105-105,105V0C252.877,0,299.977,47.1,299.977,105z"/>
<path style="fill:#C5C9F7;" d="M239.977,105c0,24.899-20.099,45-45,45V60C219.878,60,239.977,80.099,239.977,105z"/>
<path style="fill:#032E68;" d="M134.977,512h-30v-30h30C154.776,482,154.776,512,134.977,512z"/>
<g>
</g>
<g>
</g>
<g>
</g>
<g>
</g>
<g>
</g>
<g>
</g>
<g>
</g>
<g>
</g>
<g>
</g>
<g>
</g>
<g>
</g>
<g>
</g>
<g>
</g>
<g>
</g>
<g>
</g>
</svg>
