<?xml version="1.0" encoding="iso-8859-1"?>
<!-- Generator: Adobe Illustrator 19.0.0, SVG Export Plug-In . SVG Version: 6.00 Build 0)  -->
<svg xmlns="http://www.w3.org/2000/svg" xmlns:xlink="http://www.w3.org/1999/xlink" version="1.1" id="Capa_1" x="0px" y="0px" viewBox="0 0 512 512" style="enable-background:new 0 0 512 512;" xml:space="preserve">
<g>
	<path style="fill:#FEA832;" d="M256.792,0c-24.901,0-46.596,20.099-46.596,45c0,30,24.096,45,46.596,45s45-15,45-45   C301.792,20.099,281.692,0,256.792,0z M256.792,59.7c-7.5,0-16.596-4.801-16.596-14.7c0-8.401,8.195-15,16.596-15   c8.401,0,15,6.599,15,15C271.792,54.6,264.292,59.7,256.792,59.7z"/>
	<path style="fill:#FEA832;" d="M195.211,270c-5.508,0-10.796-3.032-13.433-8.291l-76.582-153.164L28.614,261.709   c-8.82,17.641-35.729,4.368-26.836-13.418l90-180c5.098-10.166,21.738-10.166,26.836,0l90,180   c3.706,7.412,0.703,16.421-6.709,20.127C199.752,269.487,197.466,270,195.211,270z"/>
</g>
<path style="fill:#FE9923;" d="M483.374,261.709l-76.582-153.164L330.21,261.709c-8.91,17.75-35.681,4.273-26.836-13.418l90-180  c5.098-10.166,21.738-10.166,26.836,0l90,180C519.145,266.161,492.183,279.28,483.374,261.709z"/>
<path style="fill:#FEA832;" d="M271.792,75v302c0,9.899-7.5,15-15,15c-7.5,0-16.596-5.101-16.596-15V75c0-9.901,9.096-15,16.596-15  C264.292,60,271.792,65.099,271.792,75z"/>
<path style="fill:#FE9923;" d="M436.792,90h-30c-7.134,0-13.286-5.024-14.707-12.012C386.547,50.625,360.62,30,331.792,30  c-13.96,0-27.554,4.893-38.262,13.784c-15.27,12.655-34.422-10.42-19.16-23.086C290.468,7.354,310.859,0,331.792,0  c39.214,0,73.726,24.595,86.353,60h18.647C456.565,60,456.646,90,436.792,90z"/>
<path style="fill:#FEA832;" d="M105.196,90h-30c-19.773,0-19.854-30,0-30h18.647c12.627-35.405,47.139-60,86.353-60  c20.933,0,41.323,7.354,57.422,20.698c15.307,12.703-4.018,35.733-19.16,23.086C207.75,34.893,194.156,30,180.196,30  c-28.828,0-54.756,20.625-60.293,47.988C118.482,84.976,112.33,90,105.196,90z"/>
<g>
	<path style="fill:#FE9923;" d="M301.792,45c0,30-22.5,45-45,45V59.7c7.5,0,15-5.099,15-14.7c0-8.401-6.599-15-15-15V0   C281.692,0,301.792,20.099,301.792,45z"/>
	<path style="fill:#FE9923;" d="M256.792,392V60c7.5,0,15,5.099,15,15v302C271.792,386.899,264.292,392,256.792,392z"/>
</g>
<path style="fill:#9D481A;" d="M316.792,362H195.196c-8.401,0-15,6.599-15,15v60c0,8.399,6.599,15,15,15h121.596  c8.401,0,15-6.601,15-15v-60C331.792,368.599,325.192,362,316.792,362z"/>
<path style="fill:#6E351C;" d="M331.792,377v60c0,8.399-6.599,15-15,15h-60v-90h60C325.192,362,331.792,368.599,331.792,377z"/>
<path style="fill:#BC620F;" d="M376.792,422H135.196c-41.7,0-75,34.2-75,75c0,8.399,6.599,15,15,15h361.596c8.401,0,15-6.601,15-15  C451.792,455.6,418.192,422,376.792,422z"/>
<path style="fill:#9D481A;" d="M451.792,497c0,8.399-6.599,15-15,15h-180v-90h120C418.192,422,451.792,455.6,451.792,497z"/>
<path style="fill:#FEA832;" d="M301.792,135c0,8.399-6.599,15-15,15h-61.596c-8.401,0-15-6.601-15-15c0-8.401,6.599-15,15-15h61.596  C295.192,120,301.792,126.599,301.792,135z"/>
<path style="fill:#FE9923;" d="M286.792,150h-30v-30h30c8.401,0,15,6.599,15,15C301.792,143.399,295.192,150,286.792,150z"/>
<path style="fill:#FEDB41;" d="M105.196,360c-57.891,0-105-47.109-105-105c0-8.291,6.709-15,15-15h180c8.291,0,15,6.709,15,15  C210.196,312.891,163.087,360,105.196,360z"/>
<path style="fill:#FFCC33;" d="M406.792,360c-57.891,0-105-47.109-105-105c0-8.291,6.709-15,15-15h180c8.291,0,15,6.709,15,15  C511.792,312.891,464.682,360,406.792,360z"/>
<g>
</g>
<g>
</g>
<g>
</g>
<g>
</g>
<g>
</g>
<g>
</g>
<g>
</g>
<g>
</g>
<g>
</g>
<g>
</g>
<g>
</g>
<g>
</g>
<g>
</g>
<g>
</g>
<g>
</g>
</svg>
