<?xml version="1.0" encoding="iso-8859-1"?>
<!-- Generator: Adobe Illustrator 19.0.0, SVG Export Plug-In . SVG Version: 6.00 Build 0)  -->
<svg xmlns="http://www.w3.org/2000/svg" xmlns:xlink="http://www.w3.org/1999/xlink" version="1.1" id="Capa_1" x="0px" y="0px" viewBox="0 0 512 512" style="enable-background:new 0 0 512 512;" xml:space="preserve">
<path style="fill:#48A7E6;" d="M511.846,494.438c0.63,4.397-0.688,8.867-3.606,12.238c-2.917,3.356-7.152,5.291-11.608,5.291  h-90.049c-7.943,0-14.583-6.053-15.301-13.968l-19.215-213.212c-0.615-6.874,3.415-13.322,9.863-15.756  c14.773-5.624,10.917-28.213-5.364-28.213h-8.706c-9.325,0-16.559-8.256-15.198-17.559l8.706-60.033  c0.322-2.272,1.158-4.426,2.418-6.316l52.822-79.248c2.829-4.25,7.577-6.816,12.678-6.845c4.881-0.439,9.893,2.462,12.766,6.669  c8.633,12.575,14.29,27.32,16.371,42.65L511.846,494.438z"/>
<path style="fill:#50B9FF;" d="M121.72,497.999c-0.718,7.914-7.358,13.968-15.301,13.968h-91.05c-4.455,0-8.692-1.935-11.608-5.291  c-2.917-3.371-4.235-7.841-3.606-12.238l54.438-374.404c2.066-15.228,7.724-29.972,16.357-42.547  c2.858-4.177,7.607-6.669,12.663-6.669c5.364,0.586,9.937,2.579,12.78,6.845l52.822,79.248c1.261,1.891,2.096,4.045,2.418,6.316  l8.706,60.033c1.36,9.303-5.873,17.559-15.198,17.559h-8.706c-8.075,0-14.656,6.581-14.656,14.656  c0,5.906,3.825,11.476,9.292,13.557c6.449,2.433,10.48,8.882,9.863,15.756L121.72,497.999z"/>
<path style="fill:#FE9923;" d="M423.401,511.967H286.517c-4.44,0-8.677-1.92-11.593-5.276c-2.917-3.356-4.235-7.812-3.62-12.209  l17.118-120.725c0.953-6.713,6.199-11.989,12.912-13c19.552-2.961,34.633-19.248,37.521-39.063l5.394-38.341  c1.07-7.577,7.563-13.22,15.213-13.22h17.104c1.92,0,3.386-0.234,4.455-0.732c9.591-4.314,20.679,2.046,21.648,12.605  L423.401,511.967z"/>
<path style="fill:#FEA832;" d="M241.698,494.482c0.615,4.397-0.703,8.853-3.62,12.209c-2.917,3.356-7.152,5.276-11.593,5.276H89.6  l20.731-229.964c0.454-4.954,3.269-9.38,7.563-11.887c4.309-2.491,9.541-2.755,14.085-0.718c1.07,0.498,2.535,0.732,4.455,0.732  h17.104c7.65,0,14.144,5.643,15.213,13.22l5.408,38.415c2.873,19.742,17.954,36.03,37.506,38.99c6.713,1.012,11.96,6.287,12.912,13  L241.698,494.482z"/>
<path style="fill:#4DA6FF;" d="M310.23,438.675c1.215-9.103-5.435-17.411-15.306-17.411H218.08c-4.501,0-8.704,1.801-11.705,5.102  c-2.702,3.602-4.202,7.804-3.602,12.308l10.205,73.24h87.049L310.23,438.675z"/>
<path style="fill:#4596E6;" d="M310.23,438.675l-10.205,73.24h-43.524v-90.651h38.422  C304.795,421.265,311.445,429.572,310.23,438.675z"/>
<path style="fill:#50B9FF;" d="M302.127,360.632c-9.062,1.134-85.51,0.718-91.251,0c-11.103-0.694-17.975,8.65-16.809,17.411  l8.706,60.634l2.112,13.207h103.234l2.112-13.207l8.706-60.634C320.102,369.281,313.23,359.936,302.127,360.632z"/>
<path style="fill:#48A7E6;" d="M318.936,378.041l-8.706,60.634l-2.112,13.207h-51.616v-90.651c7.667,0,38.299,0.315,45.626-0.601  C313.23,359.936,320.102,369.281,318.936,378.041z"/>
<path style="fill:#FEDB41;" d="M385.572,211.048l6.304-43.523c0.601-4.202-0.901-8.706-3.602-12.008  c-3.003-3.602-7.204-5.403-11.706-5.403H136.436c-10.106,0-16.499,9.083-15.308,17.411l6.304,43.523  c-20.711,4.202-36.321,22.512-36.321,44.425c0,18.61,11.706,35.72,28.215,42.022c5.102,2.101,10.806,3.303,17.109,3.303h3.602  l3.602,25.213c5.102,33.318,30.317,60.134,64.235,65.236c8.021,0.669,80.981,1.146,98.155,0  c33.017-5.102,58.232-31.919,63.335-65.236l3.602-25.213h3.602c6.304,0,12.008-1.202,16.208-3.003  c17.411-6.603,29.117-23.712,29.117-42.322C421.892,233.561,406.283,215.252,385.572,211.048z"/>
<path style="fill:#FFCC33;" d="M421.892,255.475c0,18.61-11.706,35.72-29.117,42.322c-4.201,1.801-9.904,3.003-16.208,3.003h-3.602  l-3.602,25.213c-5.102,33.318-30.317,60.134-63.335,65.236c-12.994,0.867-34.4,0.601-49.528,0.601V150.116h120.066  c4.503,0,8.704,1.801,11.706,5.403c2.701,3.302,4.202,7.804,3.602,12.008l-6.304,43.523  C406.283,215.252,421.892,233.561,421.892,255.475z"/>
<path style="fill:#FEA832;" d="M212.077,14.742c-0.902-4.201-3.303-7.804-6.905-9.904c-2.7-1.801-5.403-2.402-8.404-2.402  c-0.3-0.3-0.901,0-1.202,0c-1.801,0.3-3.302,0.601-5.102,1.2c-0.599,0-0.899,0.3-1.501,0.3c-3.302,1.2-6.304,2.101-9.605,3.602  c-2.7,0.901-5.703,2.101-8.704,3.602l-58.532,29.417c-17.109,8.404-31.517,21.311-41.423,37.521l-5.403,8.404l58.232,87.347  c3.001,4.503,7.804,6.905,12.907,6.905h90.049c4.503,0,9.005-2.101,12.008-5.703c2.7-3.303,3.902-8.105,3.001-12.608L212.077,14.742  z"/>
<path style="fill:#FE9923;" d="M442.303,78.078c-9.906-16.21-24.313-29.117-41.123-37.521l-59.133-29.417  c-3.001-1.501-5.703-2.7-8.704-3.602c-3.001-1.501-6.304-2.7-9.305-3.602c-0.601,0-0.901-0.3-1.501-0.3  c-1.801-0.599-3.302-0.899-5.102-1.2h-1.202c-3.001,0-5.703,0.601-8.404,2.402c-3.602,2.099-6.003,5.703-6.905,9.904l-29.415,147.68  c-0.901,4.503,0.3,9.305,3.001,12.608c3.003,3.602,7.504,5.703,12.008,5.703h90.049c5.102,0,9.906-2.402,12.907-6.905l58.232-87.347  L442.303,78.078z"/>
<path style="fill:#BC620F;" d="M271.81,315.508c0,8.404-6.903,16.309-15.308,16.309h-30.016c-8.406,0-15.308-7.905-15.308-16.309  v-74.741h-14.708c-20.109,0-20.274-30.618,0-30.618h30.016c8.406,0,15.308,6.903,15.308,15.308v74.741h14.708  C264.906,300.198,271.81,307.102,271.81,315.508z"/>
<path style="fill:#9D481A;" d="M316.534,240.818h-30.016c-20.197,0-20.363-30.72,0-30.72h30.016  C336.731,210.098,336.897,240.818,316.534,240.818z"/>
<path style="fill:#4DA6FF;" d="M324.038,3.937c-0.601,0-0.901-0.3-1.501-0.3c-1.801-0.599-3.302-0.899-5.102-1.2h-1.202  c-7.204-1.801-14.407-2.402-21.012-2.402H217.78c-6.605,0-13.809,0.601-21.012,2.402c-0.3-0.3-0.901,0-1.202,0  c-1.801,0.3-3.302,0.601-5.102,1.2c-0.599,0-0.899,0.3-1.501,0.3c-3.302,1.2-6.304,2.101-9.605,3.602l32.118,160.888  c1.501,7.204,7.804,12.308,15.008,12.308h60.033c7.204,0,13.507-5.104,15.008-12.308C327.641,36.656,332.743,11.442,333.344,7.539  C330.342,6.038,327.039,4.837,324.038,3.937z"/>
<path style="fill:#9D481A;" d="M256.501,331.817v-31.618c8.406,0,15.308,6.903,15.308,15.308  C271.81,323.911,264.906,331.817,256.501,331.817z"/>
<path style="fill:#4596E6;" d="M286.517,180.734h-30.016V0.034h38.72c6.605,0,13.809,0.601,21.012,2.402h1.202  c1.801,0.3,3.302,0.601,5.102,1.2c0.599,0,0.899,0.3,1.501,0.3c3.001,0.901,6.304,2.101,9.305,3.602  c-0.601,3.902-5.703,29.117-31.817,160.888C300.026,175.63,293.721,180.734,286.517,180.734z"/>
<g>
</g>
<g>
</g>
<g>
</g>
<g>
</g>
<g>
</g>
<g>
</g>
<g>
</g>
<g>
</g>
<g>
</g>
<g>
</g>
<g>
</g>
<g>
</g>
<g>
</g>
<g>
</g>
<g>
</g>
</svg>
