<?xml version="1.0" encoding="iso-8859-1"?>
<!-- Generator: Adobe Illustrator 19.0.0, SVG Export Plug-In . SVG Version: 6.00 Build 0)  -->
<svg xmlns="http://www.w3.org/2000/svg" xmlns:xlink="http://www.w3.org/1999/xlink" version="1.1" id="Capa_1" x="0px" y="0px" viewBox="0 0 512 512" style="enable-background:new 0 0 512 512;" xml:space="preserve">
<path style="fill:#E50027;" d="M512,436.701c0,8.481-6.87,15.352-15.352,15.352H315.352c-8.481,0-15.352-6.87-15.352-15.352v-30  c0-58.096,47.256-105.352,105.352-105.352S512,348.605,512,406.701V436.701z"/>
<path style="fill:#1689FC;" d="M210.703,436.701c0,8.481-6.87,15.352-15.352,15.352h-180C6.87,452.052,0,445.182,0,436.701v-30  c0-58.096,47.256-105.352,105.352-105.352s105.351,47.256,105.351,105.352V436.701z"/>
<path style="fill:#C5C9F7;" d="M394.497,207.555l-55.503-56.851h-83.643c-20.186,0-20.352-30.703,0-30.703  c8.071,0,14.648-6.577,14.648-14.648v-60c0-8.071-6.577-14.648-14.648-14.648C235.166,30.704,235,0.001,255.352,0.001h211.297  C491.653,0.001,512,20.348,512,45.353v60c0,25.005-20.347,45.352-45.352,45.352h-45.945v45.996  C420.703,210.4,404.042,217.148,394.497,207.555z"/>
<path style="fill:#E1E4FB;" d="M90,196.701v-45.997H45.352C20.347,150.704,0,130.357,0,105.353v-60  C0,20.348,20.347,0.001,45.352,0.001h210c25.005,0,45.352,20.347,45.352,45.352v60c0,25.005-20.347,45.352-45.352,45.352h-83.643  l-55.503,56.851C106.642,217.167,90,210.428,90,196.701z"/>
<path style="fill:#18A7FC;" d="M105.352,332.052C63.809,332.052,30,298.244,30,256.701s33.809-75.352,75.352-75.352  s75.352,33.809,75.352,75.352S146.895,332.052,105.352,332.052z"/>
<path style="fill:#FD003A;" d="M405.352,332.052c-41.543,0-75.352-33.809-75.352-75.352s33.809-75.352,75.352-75.352  s75.352,33.809,75.352,75.352S446.895,332.052,405.352,332.052z"/>
<path style="fill:#0A4EAF;" d="M0.051,421.4v75.3c0,8.401,6.899,15.3,15.3,15.3h481.297c8.401,0,15.3-6.899,15.3-15.3v-75.3H0.051z"/>
<path style="fill:#063E8B;" d="M511.949,421.4v75.3c0,8.401-6.899,15.3-15.3,15.3H255.352v-90.601h256.597V421.4z"/>
<g>
</g>
<g>
</g>
<g>
</g>
<g>
</g>
<g>
</g>
<g>
</g>
<g>
</g>
<g>
</g>
<g>
</g>
<g>
</g>
<g>
</g>
<g>
</g>
<g>
</g>
<g>
</g>
<g>
</g>
</svg>
