<?xml version="1.0" encoding="iso-8859-1"?>
<!-- Generator: Adobe Illustrator 19.0.0, SVG Export Plug-In . SVG Version: 6.00 Build 0)  -->
<svg xmlns="http://www.w3.org/2000/svg" xmlns:xlink="http://www.w3.org/1999/xlink" version="1.1" id="Capa_1" x="0px" y="0px" viewBox="0 0 512 512" style="enable-background:new 0 0 512 512;" xml:space="preserve">
<path style="fill:#E1E4FB;" d="M270,45c0-24.901-20.099-45-45-45H105C80.099,0,60,20.099,60,45c0,19.501,12.599,36.301,30,42.299  v112.7C56.1,217.4,29.099,245.9,14.099,280.401c-2.699,5.4-4.799,10.8-6.599,16.5c-0.3,1.199-0.601,2.1-0.601,2.999  c-1.8,6.601,1.201,13.5,7.2,16.8C41.4,331.399,59.7,323,70.8,313.1c21.601-19.799,48.3-19.799,69.6,0  c7.8,6.899,15.901,12.301,24.6,16.199c9.901,4.2,20.099,6.301,30.3,6.301c12.599,0,25.199-3.3,36.899-9.6  c4.801-2.699,7.8-7.8,7.8-13.2V227c0-8.401-6.599-15-15-15c-19.799,0-19.799-30,0-30c8.401,0,15-6.599,15-15V87.299  C257.401,81.301,270,64.501,270,45z"/>
<path style="fill:#C5C9F7;" d="M225,0c24.901,0,45,20.099,45,45c0,19.501-12.599,36.301-30,42.299V167c0,8.401-6.599,15-15,15  c-19.799,0-19.799,30,0,30c8.401,0,15,6.599,15,15v85.8c0,5.4-2.999,10.501-7.8,13.2c-11.7,6.301-24.3,9.6-36.899,9.6  c-10.201,0-20.4-2.1-30.3-6.301V0H225z"/>
<path style="fill:#66BD21;" d="M251.1,466.7c-7.2-8.101-11.1-18.9-11.1-29.7V312.8c0-11.4-11.7-18.3-22.2-13.2  c-17.401,9.6-36.601,7.5-52.8-5.4c-1.5-0.899-2.701-2.1-4.2-3.3c-32.699-30.3-77.1-30.3-110.099,0  c-5.099,4.501-12.599,8.399-36.601-10.499c-2.699,5.4-4.799,10.8-6.599,16.5c-0.3,1.199-0.601,2.1-0.601,2.999  C2.1,315.801,0,331.7,0,347c0,90.901,74.099,165,165,165c29.099,0,57.599-7.8,82.5-22.5C256.5,484.1,257.1,473.301,251.1,466.7z"/>
<path style="fill:#5DAD1D;" d="M247.5,489.5C222.599,504.2,194.099,512,165,512V294.2c16.199,12.9,35.4,15,52.8,5.4  c10.499-5.099,22.2,1.8,22.2,13.2V437c0,10.8,3.9,21.599,11.1,29.7C257.1,473.301,256.5,484.1,247.5,489.5z"/>
<circle style="fill:#78DE28;" cx="105" cy="377" r="15"/>
<path style="fill:#CA80DC;" d="M459.425,297.479c4.632-2.803,10.415-2.893,15.132-0.234c4.717,2.659,7.634,7.653,7.634,13.067V437  c0,41.4-33.6,75-75,75h-120c-40.2,0-77.191-32.401-77.191-75l0.3-123.6v-0.901c-0.136-0.339-0.226-1.954-0.283-4.267  c-0.129-5.184,2.428-10.067,6.763-12.912s9.826-3.241,14.533-1.064c11.001,5.088,21.53,8.944,26.48,8.944c16.8,0,30-8.699,30-16.199  c0-19.799,30-19.799,30,0c0,10.499,14.7,15.601,29.399,15.601c15.3,0.3,30.601-5.101,30.601-15.601c0-19.799,30-19.799,30,0  c0,12.299,31.199,23.401,51.599,10.499L459.425,297.479z"/>
<path style="fill:#B758CE;" d="M482.192,283.7V437c0,41.4-33.6,75-75,75h-60V302.601c15.3,0.3,30.601-5.101,30.601-15.601  c0-19.799,30-19.799,30,0c0,12.299,31.199,23.401,51.599,10.499L482.192,283.7z"/>
<circle style="fill:#FE52A2;" cx="407.19" cy="377" r="15"/>
<path style="fill:#FE73B1;" d="M347.192,373.7c-7.8-7.2-18.3-11.7-30-11.7c-24.901,0-45,20.099-45,45s20.099,45,45,45  c11.7,0,22.2-4.501,30-11.7c9.3-8.099,15-20.099,15-33.3S356.492,381.799,347.192,373.7z"/>
<path style="fill:#FE52A2;" d="M347.192,373.7c9.3,8.099,15,20.099,15,33.3s-5.7,25.201-15,33.3V373.7z"/>
<path style="fill:#E1E4FB;" d="M467.192,152H225c-51,0-61.8,71.1-15,87.299c0,1.501-0.3,71.7,0.3,73.2v0.901  c4.2,17.1,61.291,31.5,92.792,4.2c11.1,9.899,27.599,15.3,44.099,15.599c16.5,0.3,33.6-4.799,45.901-15.599  c20.4,17.999,56.398,20.999,81.899,5.7c4.499-2.701,7.2-7.8,7.2-12.9v-71.102C528.992,223.1,518.192,152,467.192,152z"/>
<path style="fill:#C5C9F7;" d="M482.192,239.299v71.102c0,5.099-2.701,10.199-7.2,12.9c-25.501,15.298-61.5,12.299-81.899-5.7  c-12.301,10.8-29.401,15.899-45.901,15.599V152h120C518.192,152,528.992,223.1,482.192,239.299z"/>
<g>
</g>
<g>
</g>
<g>
</g>
<g>
</g>
<g>
</g>
<g>
</g>
<g>
</g>
<g>
</g>
<g>
</g>
<g>
</g>
<g>
</g>
<g>
</g>
<g>
</g>
<g>
</g>
<g>
</g>
</svg>
