<?xml version="1.0" encoding="iso-8859-1"?>
<!-- Generator: Adobe Illustrator 19.0.0, SVG Export Plug-In . SVG Version: 6.00 Build 0)  -->
<svg xmlns="http://www.w3.org/2000/svg" xmlns:xlink="http://www.w3.org/1999/xlink" version="1.1" id="Capa_1" x="0px" y="0px" viewBox="0 0 512 512" style="enable-background:new 0 0 512 512;" xml:space="preserve">
<rect x="44.913" y="77.087" style="fill:#E1E4FB;" width="419.873" height="269.918"/>
<rect x="254.853" y="77.087" style="fill:#C5C9F7;" width="209.936" height="269.918"/>
<path style="fill:#1689FC;" d="M332.226,295.42l-17.396-26.392l-17.396,26.392c-10.797,16.196-36.288,0-25.191-16.795l24.593-36.588  l-24.593-36.59c-10.798-16.495,14.095-33.29,25.191-16.795l17.396,26.392l17.396-26.392c11.097-16.495,35.989,0.3,25.191,16.795  l-24.593,36.59l24.593,36.588C368.514,295.42,343.023,311.616,332.226,295.42z"/>
<path style="fill:#18A7FC;" d="M374.813,152.064H265.048l-10.198,25.491l-46.186,115.166c-5.099,12.896-23.694,12.295-27.892-0.901  l-26.692-79.775h-19.194c-19.793,0-19.793-29.991,0-29.991h29.991c6.597,0,12.295,4.199,14.095,10.196l17.095,51.285l44.986-112.166  c2.099-5.698,7.798-9.297,13.797-9.297h119.964C394.606,122.073,394.606,152.064,374.813,152.064z"/>
<g>
	<path style="fill:#9D481A;" d="M451.289,503.557l-24.593-51.583H83.002l-24.593,51.583c-8.398,17.696-35.689,4.8-26.993-13.196   l71.979-149.955c8.696-17.694,35.689-4.798,26.991,13.196l-32.989,68.38h142.457v-74.977c0-9.898,7.498-14.995,14.995-14.995   s14.995,5.097,14.995,14.995v74.977h142.457l-32.989-68.38c-8.398-17.694,18.294-31.19,26.991-13.196l71.979,149.955   C486.978,508.356,459.989,521.252,451.289,503.557z"/>
	<path style="fill:#9D481A;" d="M464.786,62.091H44.913c-8.398,0-14.995,6.597-14.995,14.995v269.918   c0,8.396,6.597,14.995,14.995,14.995h419.873c8.398,0,14.995-6.599,14.995-14.995V77.087   C479.782,68.688,473.185,62.091,464.786,62.091z M449.791,332.009H59.909V92.082h389.882V332.009z"/>
</g>
<path style="fill:#6E351C;" d="M451.289,503.557l-24.593-51.583H254.85V332.009c7.498,0,14.995,5.097,14.995,14.995v74.977h142.457  l-32.989-68.38c-8.398-17.694,18.294-31.19,26.991-13.196l71.979,149.955C486.978,508.356,459.989,521.252,451.289,503.557z"/>
<path style="fill:#9D481A;" d="M307.934,21.304C293.837,6.908,274.643,0.009,254.85,0.009c-19.495-0.3-38.988,6.899-52.784,20.994  c-14.395,14.097-22.193,35.69-22.193,56.084c0,8.396,6.597,14.995,14.995,14.995h119.964c8.398,0,14.995-6.599,14.995-14.995  C329.827,56.693,322.028,35.099,307.934,21.304z"/>
<path style="fill:#6E351C;" d="M314.832,92.082c8.398,0,14.995-6.599,14.995-14.995c0-20.394-7.798-41.987-21.892-55.783  C293.837,6.908,274.643,0.009,254.85,0.009v92.073H314.832z"/>
<path style="fill:#1689FC;" d="M374.813,152.064H265.048l-10.198,25.491v-55.482h119.964  C394.606,122.073,394.606,152.064,374.813,152.064z"/>
<path style="fill:#6E351C;" d="M479.782,77.087v269.918c0,8.396-6.597,14.995-14.995,14.995H254.85v-29.991h194.941V92.082H254.85  V62.091h209.936C473.185,62.091,479.782,68.688,479.782,77.087z"/>
<path style="fill:#BC620F;" d="M497.077,92.082H14.922c-19.793,0-19.793-29.991,0-29.991h482.155  C516.87,62.091,516.87,92.082,497.077,92.082z"/>
<path style="fill:#9D481A;" d="M497.077,92.082H254.85V62.091h242.228C516.87,62.091,516.87,92.082,497.077,92.082z"/>
<path style="fill:#BC620F;" d="M497.077,362H14.922c-19.793,0-19.793-29.991,0-29.991h482.155  C516.87,332.009,516.87,362,497.077,362z"/>
<path style="fill:#9D481A;" d="M497.077,362H254.85v-29.991h242.228C516.87,332.009,516.87,362,497.077,362z"/>
<g>
</g>
<g>
</g>
<g>
</g>
<g>
</g>
<g>
</g>
<g>
</g>
<g>
</g>
<g>
</g>
<g>
</g>
<g>
</g>
<g>
</g>
<g>
</g>
<g>
</g>
<g>
</g>
<g>
</g>
</svg>
