<?xml version="1.0" encoding="iso-8859-1"?>
<!-- Generator: Adobe Illustrator 19.0.0, SVG Export Plug-In . SVG Version: 6.00 Build 0)  -->
<svg xmlns="http://www.w3.org/2000/svg" xmlns:xlink="http://www.w3.org/1999/xlink" version="1.1" id="Capa_1" x="0px" y="0px" viewBox="0 0 512 512" style="enable-background:new 0 0 512 512;" xml:space="preserve">
<path style="fill:#BC620F;" d="M450.2,108.236c-45.901-53.401-115-58.2-194.2-58.5l0,0c-66.899,0-143.5,0-193.9,57.9  c-5.4,6.301-4.501,15.899,1.8,21.301c8.699,7.2,17.1,10.8,26.1,10.8h107c24.901,0,45,20.099,45,45c0,9.899,6.5,15,14,15  s16-5.101,16-15c0-24.901,20.099-45,45-45h106.8C442.4,139.735,462.499,122.635,450.2,108.236z"/>
<path style="fill:#9D481A;" d="M256,199.735v-60v-90c79.2,0.3,148.299,5.099,194.2,58.5c12.299,14.399-7.8,31.5-26.4,31.5H317  c-24.901,0-45,20.099-45,45C272,194.634,263.5,199.735,256,199.735z"/>
<path style="fill:#BC620F;" d="M487.099,165.535c-4.199-8.699-15.3-11.1-22.8-5.099c-7.798,6-17.098,9.3-27.299,9.3h-90  c-8.401,0-15,6.599-15,15c0,8.399,6.599,15,15,15c41.4,0,75,33.6,75,75s-33.6,75-75,75c-8.101,0-15.601-1.201-22.2-3.6  c-5.7-2.1-11.7-0.601-15.901,3.6L257,403.134l-51.899-53.399c-8.701-9-24.8,0-40.101,0c-41.4,0-75-33.6-75-75s33.6-75,75-75  c21.799,0,21.799-30,0-30H75c-9.901,0-19.799-3.3-27.9-9.6c-7.5-5.7-18.3-3.001-22.5,5.4c-16.199,33.9-24.6,70.8-24.6,109.2  c0,132.599,107,225,257,225s255-92.401,255-225C512,236.034,503.599,199.135,487.099,165.535z"/>
<path style="fill:#9D481A;" d="M512,274.735c0,132.599-105,225-255,225v-96.601l51.899-53.399c4.2-4.2,10.201-5.7,15.901-3.6  c6.599,2.399,14.099,3.6,22.2,3.6c41.4,0,75-33.6,75-75s-33.6-75-75-75c-8.401,0-15-6.601-15-15c0-8.401,6.599-15,15-15h90  c10.201,0,19.501-3.3,27.299-9.3c7.5-6,18.602-3.6,22.8,5.099C503.599,199.135,512,236.034,512,274.735z"/>
<path style="fill:#E1E4FB;" d="M498.8,12.834c-13.801-2.999-19.501,8.401-30.601,31.501c-5.7,11.999-31.199,65.4-44.399,65.4H317  c-24.6,0-47.199,11.7-61,30c-13.801-18.3-34.4-30-59-30H90c-14.099,0-39.3-52.5-45.601-65.101c-11.699-24-17.1-35.099-31.199-31.8  C4.501,14.934,0,22.134,0,34.735v90c0,23.099,10.499,44.7,29.099,59.399c13.2,9.901,29.401,15.601,45.901,15.601h90  c41.4,0,77,33.6,77,75c0,9.899,6.5,15,14,15s16-5.101,16-15c0-41.4,33.6-75,75-75h90c17.1,0,32.999-5.4,45.601-15.601  C501.2,170.036,512,147.834,512,124.735v-90C512,22.134,507.499,14.934,498.8,12.834z"/>
<path style="fill:#C5C9F7;" d="M512,34.735v90c0,23.099-10.8,45.3-29.399,59.399C470,194.335,454.101,199.735,437,199.735h-90  c-41.4,0-75,33.6-75,75c0,9.899-8.5,15-16,15v-150c13.801-18.3,36.4-30,61-30h106.8c13.2,0,38.699-53.401,44.399-65.4  c11.1-23.101,16.8-34.501,30.601-31.501C507.499,14.934,512,22.134,512,34.735z"/>
<path style="fill:#F6B73C;" d="M324.2,345.835c-31.199-9.6-52.2-38.401-52.2-71.1c0-9.901-8.5-15-16-15s-14,5.099-14,15  c0,32.699-21,61.5-52.2,71.1c-10.501,3.3-14.101,16.8-6.301,24.901l62.701,64.499c2.999,3.001,6.899,4.501,10.8,4.501  c3.901,0,7.8-1.5,10.8-4.501l62.701-64.499C338.301,362.635,334.701,349.135,324.2,345.835z"/>
<path style="fill:#F29737;" d="M330.5,370.736l-62.7,64.499c-2.999,3.001-6.899,4.501-10.8,4.501l-1-180c7.5,0,16,5.099,16,15  c0,32.699,21,61.5,52.2,71.1C334.701,349.135,338.301,362.635,330.5,370.736z"/>
<path style="fill:#FFDAAA;" d="M452,274.735c0,57.9-47.1,105-105,105c-38.101,0-72.7-20.7-91-51.601  c-18.6,31.201-53.2,51.601-91,51.601c-57.9,0-105-47.1-105-105s47.1-105,105-105c38.401,0,72.7,21,91,51.899  c18.3-30.899,52.599-51.899,91-51.899C404.9,169.735,452,216.836,452,274.735z"/>
<path style="fill:#FFC27A;" d="M452,274.735c0,57.9-47.1,105-105,105c-38.101,0-72.7-20.7-91-51.601v-106.5  c18.3-30.899,52.599-51.899,91-51.899C404.9,169.735,452,216.836,452,274.735z"/>
<g>
	<path style="fill:#6E351C;" d="M165,319.735c-24.814,0-45-20.186-45-45s20.186-45,45-45s47,20.186,47,45   S189.814,319.735,165,319.735z"/>
	<path style="fill:#6E351C;" d="M347,319.735c-24.814,0-45-20.186-45-45s20.186-45,45-45s45,20.186,45,45   S371.814,319.735,347,319.735z"/>
</g>
<g>
</g>
<g>
</g>
<g>
</g>
<g>
</g>
<g>
</g>
<g>
</g>
<g>
</g>
<g>
</g>
<g>
</g>
<g>
</g>
<g>
</g>
<g>
</g>
<g>
</g>
<g>
</g>
<g>
</g>
</svg>
