<?xml version="1.0" encoding="iso-8859-1"?>
<!-- Generator: Adobe Illustrator 19.0.0, SVG Export Plug-In . SVG Version: 6.00 Build 0)  -->
<svg xmlns="http://www.w3.org/2000/svg" xmlns:xlink="http://www.w3.org/1999/xlink" version="1.1" id="Capa_1" x="0px" y="0px" viewBox="0 0 512 512" style="enable-background:new 0 0 512 512;" xml:space="preserve">
<path style="fill:#FEA832;" d="M256,421c-24.901,0-45,21.099-45,46c0,24.899,20.099,45,45,45s45-20.101,45-45  C301,442.099,280.901,421,256,421z"/>
<path style="fill:#FE9923;" d="M301,467c0,24.899-20.099,45-45,45v-91C280.901,421,301,442.099,301,467z"/>
<path style="fill:#FEA832;" d="M446.499,365.499C425.2,344.2,410.799,323.2,402.1,301c-2.401-6-4.2-12.301-5.7-18.6  c0-0.3,0-0.3-0.3-0.601c-1.8-6.301-7.8-10.8-14.399-10.8H130.3c-6.599,0-12.599,4.499-14.399,10.8c-0.3,0.3-0.3,0.3-0.3,0.601  c-1.5,6.299-3.3,12.599-5.7,18.6c-8.699,22.2-23.101,43.2-44.399,64.499C55.901,374.5,62.8,391,76,391h360  C449.2,391,456.099,374.5,446.499,365.499z"/>
<path style="fill:#FE9923;" d="M436,391H256V271h125.7c6.599,0,12.599,4.499,14.399,10.8c0.3,0.3,0.3,0.3,0.3,0.601  c1.5,6.299,3.3,12.599,5.7,18.6c8.699,22.2,23.101,43.2,44.399,64.499C456.099,374.5,449.2,391,436,391z"/>
<path style="fill:#9D481A;" d="M256,0c-24.901,0-45,20.099-45,45v34.2c0,10.199,9.901,17.399,19.501,14.399  C237.7,91.5,246.4,90,256,90c8.401,0,17.401,0.899,26.1,3.3c9.6,2.7,18.9-4.501,18.9-14.4V45C301,20.099,280.901,0,256,0z"/>
<path style="fill:#6E351C;" d="M282.1,93.3c-8.699-2.401-17.699-3.3-26.1-3.3V0c24.901,0,45,20.099,45,45v33.9  C301,88.799,291.7,96,282.1,93.3z"/>
<path style="fill:#FEA832;" d="M289.9,64.499C278.5,61.5,267.1,60,256,60c-12.599,0-24.3,1.8-33.9,4.799  C163.6,80.099,121,138.386,121,201.386v24.901c0,8.399,6.599,14.714,15,14.714h240c8.401,0,15-6.315,15-14.714v-30  C391,134.486,349.3,79.499,289.9,64.499z"/>
<path style="fill:#FE9923;" d="M391,226.286c0,8.399-6.599,14.714-15,14.714H256V60c11.1,0,22.5,1.5,33.9,4.499  c59.399,15,101.1,69.987,101.1,131.787V226.286z"/>
<path style="fill:#FEDB41;" d="M402.1,301H109.9c2.401-6,4.2-12.301,5.7-18.6c0-0.3,0-0.3,0.3-0.601c3.3-12,5.1-25.499,5.1-40.499  v-30.014h270V241.3c0,15,1.8,28.499,5.099,40.499c0.3,0.3,0.3,0.3,0.3,0.601C397.899,288.699,399.699,295,402.1,301z"/>
<path style="fill:#FFCC33;" d="M402.1,301H256v-89.714h135V241.3c0,15,1.8,28.499,5.099,40.499c0.3,0.3,0.3,0.3,0.3,0.601  C397.899,288.699,399.699,295,402.1,301z"/>
<path style="fill:#FEDB41;" d="M436,361H76c-24.901,0-45,20.099-45,45c0,24.899,20.099,45,45,45h360c24.901,0,45-20.101,45-45  C481,381.099,460.901,361,436,361z"/>
<path style="fill:#FFCC33;" d="M481,406c0,24.899-20.099,45-45,45H256v-90h180C460.901,361,481,381.099,481,406z"/>
<g>
</g>
<g>
</g>
<g>
</g>
<g>
</g>
<g>
</g>
<g>
</g>
<g>
</g>
<g>
</g>
<g>
</g>
<g>
</g>
<g>
</g>
<g>
</g>
<g>
</g>
<g>
</g>
<g>
</g>
</svg>
