<?xml version="1.0" encoding="iso-8859-1"?>
<!-- Generator: Adobe Illustrator 19.0.0, SVG Export Plug-In . SVG Version: 6.00 Build 0)  -->
<svg xmlns="http://www.w3.org/2000/svg" xmlns:xlink="http://www.w3.org/1999/xlink" version="1.1" id="Capa_1" x="0px" y="0px" viewBox="0 0 512 512" style="enable-background:new 0 0 512 512;" xml:space="preserve">
<path style="fill:#0A4EAF;" d="M467,0H45C20.099,0,0,20.099,0,45v90c0,8.399,6.599,17,15,17h482c8.401,0,15-8.601,15-17V45  C512,20.099,491.901,0,467,0z"/>
<path style="fill:#063E8B;" d="M512,45v90c0,8.399-6.599,17-15,17H255V0h212C491.901,0,512,20.099,512,45z"/>
<g>
	<circle style="fill:#C5C9F7;" cx="437" cy="75" r="15"/>
	<circle style="fill:#C5C9F7;" cx="375" cy="75" r="15"/>
	<circle style="fill:#C5C9F7;" cx="315" cy="75" r="15"/>
</g>
<path style="fill:#E1E4FB;" d="M0,120v347c0,24.899,19.501,44.7,45,45h422c24.901,0,45-20.101,45-45V120H0z"/>
<path style="fill:#C5C9F7;" d="M512,120v347c0,24.899-20.099,45-45,45H255V120H512z"/>
<g>
	<path style="fill:#1689FC;" d="M437,242h-62c-19.773,0-19.854-30,0-30h62C456.773,212,456.854,242,437,242z"/>
	<path style="fill:#1689FC;" d="M437,332h-62c-19.773,0-19.854-30,0-30h62C456.773,302,456.854,332,437,332z"/>
	<path style="fill:#1689FC;" d="M437,422h-62c-19.773,0-19.854-30,0-30h62C456.773,392,456.854,422,437,422z"/>
</g>
<path style="fill:#FD003A;" d="M315,182H75c-8.401,0-15,6.599-15,15v240c0,8.399,6.599,15,15,15h240c8.401,0,15-6.601,15-15V197  C330,188.599,323.401,182,315,182z"/>
<path style="fill:#E50027;" d="M255,212v-30h60c8.401,0,15,6.599,15,15v240c0,8.399-6.599,15-15,15h-60v-30V212z"/>
<path style="fill:#E1E4FB;" d="M261.599,303.5l-120-60C131.7,238.7,120,245.9,120,257v120c0,11.1,11.7,18.3,21.599,13.5l120-60  C272.701,324.8,272.701,309.2,261.599,303.5z"/>
<path style="fill:#C5C9F7;" d="M261.599,330.5L255,333.8v-33.6l6.599,3.3C272.701,309.2,272.701,324.8,261.599,330.5z"/>
<g>
</g>
<g>
</g>
<g>
</g>
<g>
</g>
<g>
</g>
<g>
</g>
<g>
</g>
<g>
</g>
<g>
</g>
<g>
</g>
<g>
</g>
<g>
</g>
<g>
</g>
<g>
</g>
<g>
</g>
</svg>
