<?xml version="1.0" encoding="iso-8859-1"?>
<!-- Generator: Adobe Illustrator 19.0.0, SVG Export Plug-In . SVG Version: 6.00 Build 0)  -->
<svg xmlns="http://www.w3.org/2000/svg" xmlns:xlink="http://www.w3.org/1999/xlink" version="1.1" id="Capa_1" x="0px" y="0px" viewBox="0 0 512 512" style="enable-background:new 0 0 512 512;" xml:space="preserve">
<g>
	<path style="fill:#063E8B;" d="M384,297.877l-3.9,3.001l-125.1,93.9l-111,83.099c-15.899,12.001-33.6-12.299-17.999-24l129-96.599   l75-56.4l36-27.001C381.599,261.879,399.901,285.878,384,297.877z"/>
	<path style="fill:#063E8B;" d="M366,477.877l-111-83.099l-129-96.901c-6.601-5.099-8.101-14.399-3.001-20.999   c5.101-6.601,14.401-7.8,21-3.001l111,83.401l129,96.599C399.6,465.578,381.899,489.878,366,477.877z"/>
</g>
<g>
	<path style="fill:#032E68;" d="M255,394.778l24.9-18.9l100.2-75l3.9-3c15.9-12-2.4-36-18-24l-36,27l-75,56.4L255,394.778   L255,394.778z"/>
	<path style="fill:#032E68;" d="M384,453.878c15.601,11.7-2.1,36-17.999,24l-111-83.099v-37.5L384,453.878z"/>
</g>
<path style="fill:#E1E4FB;" d="M497,150.878H15c-8.401,0-15,6.599-15,15v90c0,24.899,20.099,45,45,45h422c24.901,0,45-20.101,45-45  v-90C512,157.477,505.401,150.878,497,150.878z"/>
<path style="fill:#C5C9F7;" d="M512,165.878v90c0,24.899-20.099,45-45,45H255v-150h242C505.401,150.878,512,157.477,512,165.878z"/>
<g>
	<path style="fill:#0A4EAF;" d="M92,225.878v75H62v-75C62,206.006,92,206.006,92,225.878z"/>
	<path style="fill:#0A4EAF;" d="M152,225.878v75h-30v-75C122,206.006,152,206.006,152,225.878z"/>
	<path style="fill:#0A4EAF;" d="M212,225.878v75h-30v-75C182,206.006,212,206.006,212,225.878z"/>
</g>
<g>
	<path style="fill:#063E8B;" d="M332,225.878v75h-30v-75C302,206.006,332,206.006,332,225.878z"/>
	<path style="fill:#063E8B;" d="M392,225.878v75h-30v-75C362,206.006,392,206.006,392,225.878z"/>
	<path style="fill:#063E8B;" d="M454,225.878v75h-30v-75C424,206.006,454,206.006,454,225.878z"/>
</g>
<path style="fill:#FD003A;" d="M467,30.878H45c-24.901,0-45,20.099-45,45v105h512v-105C512,50.978,491.901,30.878,467,30.878z"/>
<path style="fill:#E50027;" d="M512,75.878v105H255v-150h212C491.901,30.878,512,50.978,512,75.878z"/>
<circle style="fill:#E1E4FB;" cx="195" cy="105.88" r="15"/>
<g>
	<circle style="fill:#C5C9F7;" cx="315" cy="105.88" r="15"/>
	<path style="fill:#C5C9F7;" d="M437,120.878h-62c-19.773,0-19.854-30,0-30h62C456.773,90.878,456.854,120.878,437,120.878z"/>
</g>
<g>
	<path style="fill:#E1E4FB;" d="M135,120.878H75c-19.773,0-19.854-30,0-30h60C154.773,90.878,154.854,120.878,135,120.878z"/>
	<rect x="240" y="90.88" style="fill:#E1E4FB;" width="30" height="30"/>
</g>
<rect x="255" y="90.88" style="fill:#C5C9F7;" width="15" height="30"/>
<path style="fill:#0A4EAF;" d="M270.236,225.122v75h-30v-75c0-9.901,7.5-15,15-15C262.736,210.122,270.236,215.221,270.236,225.122z  "/>
<path style="fill:#063E8B;" d="M270.236,300.122h-15v-90c7.5,0,15,5.099,15,15V300.122z"/>
<g>
</g>
<g>
</g>
<g>
</g>
<g>
</g>
<g>
</g>
<g>
</g>
<g>
</g>
<g>
</g>
<g>
</g>
<g>
</g>
<g>
</g>
<g>
</g>
<g>
</g>
<g>
</g>
<g>
</g>
</svg>
