<?xml version="1.0" encoding="iso-8859-1"?>
<!-- Generator: Adobe Illustrator 19.0.0, SVG Export Plug-In . SVG Version: 6.00 Build 0)  -->
<svg xmlns="http://www.w3.org/2000/svg" xmlns:xlink="http://www.w3.org/1999/xlink" version="1.1" id="Capa_1" x="0px" y="0px" viewBox="0 0 512.001 512.001" style="enable-background:new 0 0 512.001 512.001;" xml:space="preserve">
<path style="fill:#FEA832;" d="M419.564,485.55L246.165,312.149c-6-6-15.901-6-21.901,0l-12.599,12.9l-35.099,16.5  c-9.6,4.501-11.7,17.1-4.2,24.6l54.6,54.901h-132.9v-132.6l55.199,54.899c7.5,7.5,20.101,5.4,24.6-4.199l16.8-34.801l13.2-12.599  c6-6,6-15.901,0-21.899L26.1,96.15C16.5,86.55,0,93.149,0,106.95v389.3c0,4.2,1.8,8.099,4.501,10.8  c2.699,2.701,6.599,4.501,10.8,4.501l393.464,0.1C422.265,511.65,429.164,495.149,419.564,485.55z"/>
<path style="fill:#E1E4FB;" d="M468.764,361.05h-60c-8.401,0-15.3,6.899-15.3,15.3v30c0,3.9,29.399,90.899,30.601,94.799  c2.401,7.2,8.699,10.501,14.7,10.501s12.299-3.301,14.7-10.501c1.201-3.9,30.601-90.899,30.601-94.799v-30  C484.065,367.949,477.165,361.05,468.764,361.05z"/>
<path style="fill:#C5C9F7;" d="M484.065,376.35v30c0,3.9-29.399,90.899-30.601,94.799c-2.401,7.2-8.699,10.501-14.7,10.501v-150.6  h30C477.165,361.05,484.065,367.949,484.065,376.35z"/>
<path style="fill:#78DE28;" d="M460.964,115.049c-6.299,3.9-14.399,5.7-22.2,5.7c-3.9,0-7.8-0.3-11.4-1.199  c-5.099-1.201-10.499,0.3-14.399,4.199c-6.901,6.901-19.501,16.802-19.501,25.801v242.1h90.601V128.249  C484.065,116.249,471.165,109.049,460.964,115.049z"/>
<path style="fill:#6ECD24;" d="M484.065,128.249V391.65h-45.3V120.749c7.8,0,15.901-1.8,22.2-5.7  C471.165,109.049,484.065,116.249,484.065,128.249z"/>
<path style="fill:#FE9923;" d="M419.564,485.55c9.6,9.598,2.701,26.1-10.8,26.1L15.3,511.55c-4.2,0-8.101-1.8-10.8-4.501l89.564-86  h132.9l-54.6-54.901c-7.5-7.5-5.4-20.099,4.2-24.6l35.099-16.5l12.599-12.9c6-6,15.901-6,21.901,0L419.564,485.55z"/>
<path style="fill:#E1E4FB;" d="M222.223,290.55l-31.5-31.501l-25.8,25.201c-3.001,2.999-40.501,81.301-42.301,85.499  c-3.3,6.601-1.199,13.2,3.001,17.401c4.2,4.2,10.8,6,17.399,2.999c4.2-1.8,83.101-38.099,86.4-41.4l25.201-25.8L222.223,290.55z"/>
<path style="fill:#C5C9F7;" d="M222.223,290.55l32.401,32.399l-25.201,25.8c-3.3,3.301-82.2,39.6-86.4,41.4  c-6.599,3.001-13.198,1.201-17.399-2.999L222.223,290.55z"/>
<path style="fill:#78DE28;" d="M425.624,119.85c-4.2-1.201-8.101-2.701-11.4-4.801s-6.601-4.499-9.3-7.2  c-5.4-5.099-9.6-12.001-11.7-19.501c-3.3-11.4-17.401-14.7-25.499-6.599L169.133,280.658l63.891,63.891l199.2-199.2  C440.624,136.949,436.724,122.849,425.624,119.85z"/>
<path style="fill:#6ECD24;" d="M432.223,145.349l-199.2,199.2l-32.4-32.4l204.3-204.3c2.699,2.701,6,5.099,9.3,7.2  s7.2,3.6,11.4,4.801C436.724,122.849,440.624,136.949,432.223,145.349z"/>
<path style="fill:#C5C9F7;" d="M489.8,22.55c-13.5-13.801-32.4-22.2-53.1-22.2c-41.4,0-75.3,33.9-75.3,75.3  c0,21,8.701,39.6,22.2,53.099c13.5,13.801,32.701,22.202,53.101,22.202c40.499,0,75.3-32.701,75.3-75.3  C512,54.95,503.599,36.05,489.8,22.55z"/>
<path style="fill:#A8AFF1;" d="M512,75.65c0,42.599-34.801,75.3-75.3,75.3c-20.4,0-39.6-8.401-53.101-22.202L489.8,22.55  C503.599,36.05,512,54.95,512,75.65z"/>
<path style="fill:#E1E4FB;" d="M451.7,75.65c0,8.399-6.599,15-15,15c-4.2,0-7.8-1.8-10.8-4.2c-2.401-2.999-4.2-6.599-4.2-10.8  c0-8.401,6.599-15,15-15c4.2,0,7.8,1.8,10.8,4.2C449.9,67.85,451.7,71.45,451.7,75.65z"/>
<path style="fill:#C5C9F7;" d="M451.7,75.65c0,8.399-6.599,15-15,15c-4.2,0-7.8-1.8-10.8-4.2l21.599-21.599  C449.9,67.85,451.7,71.45,451.7,75.65z"/>
<g>
</g>
<g>
</g>
<g>
</g>
<g>
</g>
<g>
</g>
<g>
</g>
<g>
</g>
<g>
</g>
<g>
</g>
<g>
</g>
<g>
</g>
<g>
</g>
<g>
</g>
<g>
</g>
<g>
</g>
</svg>
