<?xml version="1.0" encoding="iso-8859-1"?>
<!-- Generator: Adobe Illustrator 19.0.0, SVG Export Plug-In . SVG Version: 6.00 Build 0)  -->
<svg xmlns="http://www.w3.org/2000/svg" xmlns:xlink="http://www.w3.org/1999/xlink" version="1.1" id="Capa_1" x="0px" y="0px" viewBox="0 0 512 512" style="enable-background:new 0 0 512 512;" xml:space="preserve">
<path style="fill:#4596E6;" d="M436.996,182h-105c-8.291,0-15-6.709-15-15s6.709-15,15-15h105c8.291,0,15,6.709,15,15  S445.287,182,436.996,182z"/>
<g>
	<path style="fill:#4DA6FF;" d="M195.002,122h-120c-8.291,0-15-6.709-15-15s6.709-15,15-15h120c8.291,0,15,6.709,15,15   S203.293,122,195.002,122z"/>
	<path style="fill:#4DA6FF;" d="M150.002,242h-75c-8.291,0-15-6.709-15-15s6.709-15,15-15h75c8.291,0,15,6.709,15,15   S158.293,242,150.002,242z"/>
</g>
<path style="fill:#48A7E6;" d="M466.996,212c-24.814,0-45-20.186-45-45s20.186-45,45-45s45,20.186,45,45S491.81,212,466.996,212z"/>
<g>
	<path style="fill:#50B9FF;" d="M45.002,152c-24.814,0-45-20.186-45-45s20.186-45,45-45s45,20.186,45,45S69.816,152,45.002,152z"/>
	<path style="fill:#50B9FF;" d="M45.002,272c-24.814,0-45-20.186-45-45s20.186-45,45-45s45,20.186,45,45S69.816,272,45.002,272z"/>
</g>
<path style="fill:#9D481A;" d="M496.996,512H255.002c-8.291,0-15-6.709-15-15V14.997c0-6.958,4.79-13.008,11.558-14.604  c6.724-1.567,13.74,1.655,16.86,7.896l241.994,482.003c2.329,4.644,2.08,10.166-0.659,14.59  C507.016,509.306,502.196,512,496.996,512z"/>
<path style="fill:#E1E4FB;" d="M255.002,395.604c-11.895,0-23.76-5.083-34.233-14.634c-32.813-30.264-77.124-30.308-110.317-0.015  c-14.048,12.905-30.674,17.578-47.065,13.081c-6.899-1.919-14.194,1.333-17.388,7.734l-44.4,88.506  c-2.344,4.644-2.095,10.181,0.645,14.604c2.724,4.425,7.558,7.12,12.758,7.12h240V395.604z"/>
<path style="fill:#A8AFF1;" d="M255.002,339.059c0,36.41,0,86.544,0,86.544c-19.233,0-38.584-7.998-54.507-22.515  c-21.416-19.775-48.135-19.746-69.785,0c-16.128,14.81-35.508,22.603-55.195,22.603c-12.36,0-24.819-3.033-36.645-9.464  c3.66-7.498,7.113-14.427,7.113-14.427l45.601-91.494c2.534-5.083,7.734-8.306,13.418-8.306h150  C255.002,302,255.002,318.299,255.002,339.059z"/>
<path style="fill:#FFCC33;" d="M126.178,241.104l-34.594,69.188c0,0-5.427,10.854-10.854,21.709c12.136,0,24.272,0,24.272,0h150  V212.066c-0.135,0.004-0.26-0.073-0.396-0.066c-16.714,0.439-31.787,8.73-41.514,22.925c-3.867,5.845-10.166,9.214-17.271,9.243  c-7.061-0.879-13.74-3.369-17.563-9.023c-5.581-8.774-13.813-15.557-23.789-19.629l-27.983,24.966"/>
<path style="fill:#FD003A;" d="M255.002,183.121c0,26.048,0,58.987,0,58.987c-6.819,0.304-13.017,3.719-17.021,9.575  c-9.229,13.931-24.99,22.412-42.275,22.485c-17.08,0-32.959-8.423-42.524-22.559c-5.084-7.984-13.524-10.78-26.693-11.128  c4.072-8.14,8.896-17.788,8.896-17.788l31.201-62.402c2.549-5.083,7.734-8.291,13.418-8.291h75  C255.002,152,255.002,166.087,255.002,183.121z"/>
<path style="fill:#18A7FC;" d="M255.002,0.18c-5.568,0.009-10.854,2.933-13.418,8.108l-75,152.003c0,0-5.427,10.854-10.854,21.709  c12.136,0,24.272,0,24.272,0h75V0.18z"/>
<g>
</g>
<g>
</g>
<g>
</g>
<g>
</g>
<g>
</g>
<g>
</g>
<g>
</g>
<g>
</g>
<g>
</g>
<g>
</g>
<g>
</g>
<g>
</g>
<g>
</g>
<g>
</g>
<g>
</g>
</svg>
