<?xml version="1.0" encoding="iso-8859-1"?>
<!-- Generator: Adobe Illustrator 19.0.0, SVG Export Plug-In . SVG Version: 6.00 Build 0)  -->
<svg xmlns="http://www.w3.org/2000/svg" xmlns:xlink="http://www.w3.org/1999/xlink" version="1.1" id="Capa_1" x="0px" y="0px" viewBox="0 0 512 512" style="enable-background:new 0 0 512 512;" xml:space="preserve">
<path style="fill:#9D481A;" d="M512,45c0-24.901-20.099-45-45-45H45C20.099,0,0,20.099,0,45v240c0,19.799,30,19.799,30,0  c0-41.4,33.6-75,75-75h188.599c6.901,0,12.902-4.801,14.401-11.4l24.6-97.2c4.499-19.2,33.6-12.001,28.799,7.2l-30,120  c-1.5,6.599-7.5,11.4-14.399,11.4h-92c-8.401,0-15,6.599-15,15v105c0,8.399,6.599,15,15,15s15-6.601,15-15c0-19.2,17-30,32-30  c11.7,0,23.401,6.299,28.2,19.799c2.1,6,7.8,10.201,14.099,10.201h65.402c6.299,0,11.999-4.2,14.099-10.201  c9.3-26.4,47.1-26.4,56.4,0c2.1,6,10.499,10.201,16.8,10.201c24.901,0,45-20.101,45-45V45z"/>
<path style="fill:#6E351C;" d="M512,45v270c0,24.899-20.099,45-45,45c-6.301,0-14.7-4.2-16.8-10.201c-9.3-26.4-47.1-26.4-56.4,0  c-2.1,6-7.8,10.201-14.099,10.201h-65.402c-6.299,0-11.999-4.2-14.099-10.201C295.401,336.299,283.7,330,272,330v-90h45  c6.899,0,12.9-4.801,14.399-11.4l30-120c4.801-19.2-24.3-26.4-28.799-7.2L308,198.6c-1.5,6.599-7.5,11.4-14.401,11.4H272V0h195  C491.901,0,512,20.099,512,45z"/>
<path style="fill:#4596E6;" d="M512,512H332v-30c0-49.629,40.371-92,90-92c50.03,0,90,42.19,90,92V512z"/>
<path style="fill:#E1E4FB;" d="M467,330H45c-8.284,0-15-6.716-15-15V45c0-8.284,6.716-15,15-15h422c8.284,0,15,6.716,15,15v270  C482,323.284,475.284,330,467,330z"/>
<path style="fill:#C5C9F7;" d="M422.013,330H467c8.284,0,15-6.716,15-15V45c0-8.284-6.716-15-15-15H272v180h21.599  c6.901,0,12.902-4.801,14.401-11.4l24.6-97.2c4.499-19.2,33.6-12.001,28.799,7.2l-30,120c-1.5,6.599-7.5,11.4-14.399,11.4h-45v90  h149.987H422.013z"/>
<g>
	<path style="fill:#FD003A;" d="M358.1,61.5c-24.6-6.599-48.9,9-54.6,32.701L281.901,180H105C47.1,180,0,227.1,0,285v212   c0,8.399,6.599,15,15,15h30c8.401,0,15-6.601,15-15v-15c0-33.001,27.001-62,60-62c16.199,0,31.199,6.299,42.599,17.399   C173.699,448.5,180,466.099,180,482c0,19.799,30,19.799,30,0c0-33.001,29.001-62,62-62c8.401,0,15-6.601,15-15   c0-8.401-6.599-15-15-15c-16.5,0-32-13.5-32-30v-90h77c20.7,0,38.699-14.101,43.5-34.2l30-120c0.3,0,0.3,0,0.3,0   C396.799,91.199,381.2,66.899,358.1,61.5z"/>
	<path style="fill:#FD003A;" d="M135,210c-41.353,0-75-33.647-75-75s33.647-75,75-75s75,33.647,75,75S176.353,210,135,210z"/>
</g>
<path style="fill:#E50027;" d="M390.801,115.8c0,0,0,0-0.3,0l-30,120c-4.801,20.099-22.8,34.2-43.5,34.2h-45v-90h9.901L303.5,94.2  c5.7-23.701,30-39.3,54.6-32.701C381.2,66.899,396.799,91.199,390.801,115.8z"/>
<path style="fill:#48A7E6;" d="M422,420c-33.091,0-60-26.909-60-60c0-7.031,1.187-13.652,3.633-20.229  C373.792,316.113,396.497,300,422,300c33.784,0,60,27.629,60,60C482,393.091,455.091,420,422,420z"/>
<path style="fill:#4DA6FF;" d="M335.9,416.4c-16.5-16.501-39-26.4-63.9-26.4s-49.401,10.199-65.6,26.4  C190.201,432.599,180,457.099,180,482v30h182v-30C362,457.099,352.099,432.599,335.9,416.4z"/>
<path style="fill:#4596E6;" d="M362,482v30h-90V390c24.901,0,47.401,9.899,63.9,26.4C352.099,432.599,362,457.099,362,482z"/>
<path style="fill:#4DA6FF;" d="M210,512H30v-30c0-49.629,40.371-92,90-92c50.03,0,90,42.19,90,92V512z"/>
<path style="fill:#18A7FC;" d="M120,420c-33.091,0-60-26.909-60-60s26.909-60,60-60s60,26.909,60,60S153.091,420,120,420z"/>
<path style="fill:#50B9FF;" d="M272,300c-32.999,0-62,26.999-62,60c0,32.999,29.001,60,62,60s60-27.001,60-60  C332,327.599,305.9,300,272,300z"/>
<path style="fill:#48A7E6;" d="M332,360c0,32.999-27.001,60-60,60V300C305.9,300,332,327.599,332,360z"/>
<g>
</g>
<g>
</g>
<g>
</g>
<g>
</g>
<g>
</g>
<g>
</g>
<g>
</g>
<g>
</g>
<g>
</g>
<g>
</g>
<g>
</g>
<g>
</g>
<g>
</g>
<g>
</g>
<g>
</g>
</svg>
