<?xml version="1.0" encoding="iso-8859-1"?>
<!-- Generator: Adobe Illustrator 19.0.0, SVG Export Plug-In . SVG Version: 6.00 Build 0)  -->
<svg xmlns="http://www.w3.org/2000/svg" xmlns:xlink="http://www.w3.org/1999/xlink" version="1.1" id="Capa_1" x="0px" y="0px" viewBox="0 0 512 512" style="enable-background:new 0 0 512 512;" xml:space="preserve">
<path style="fill:#FD003A;" d="M503.639,192.261l-9.899,10.199l-92.703-91.199h-0.3l-97.5-95.4l16.501-7.5  c73.198-15.901,138.9-8.699,165.901,17.999v0.3C512.337,53.661,519.54,119.361,503.639,192.261z"/>
<path style="fill:#E50027;" d="M503.639,192.261l-9.899,10.199l-92.703-91.199l84.602-84.6  C512.337,53.661,519.54,119.361,503.639,192.261z"/>
<g>
	<path style="fill:#FD003A;" d="M494.641,226.461c-19.204,62.399-61.179,127.612-104.978,171.412   c-43.802,43.799-100.803,77.699-163.202,96.899l-30-10.201l-84.298-84.3l-91.501-91.5l-3.303-23.101   c19.204-62.399,53.101-119.399,96.899-163.2C158.06,78.671,223.14,36.559,285.538,17.358l17.699-1.5l97.5,95.4h0.3l93.303,91.8   L494.641,226.461z"/>
	<path style="fill:#FD003A;" d="M198.86,486.973l-6.899,16.5c-49.2,10.8-130.499,17.1-165.3-17.699h-0.3   c-26.697-27.001-33.9-92.701-17.999-165.901l10.499-12.9l93.303,93.3L198.86,486.973z"/>
</g>
<g>
	<path style="fill:#E50027;" d="M494.641,226.461c-19.204,62.399-61.179,127.612-104.978,171.412   c-43.802,43.799-100.803,77.699-163.202,96.899l-30-10.201l-84.298-84.3l288.874-289.012l93.303,91.8L494.641,226.461z"/>
	<path style="fill:#E50027;" d="M198.86,486.973l-6.899,16.5c-49.2,10.8-130.499,17.1-165.3-17.699l85.503-85.501L198.86,486.973z"/>
</g>
<path style="fill:#E1E4FB;" d="M226.462,494.773c-8.101,2.401-16.501,4.799-24.901,6.599c-0.3,0.3-0.601,0.3-0.901,0.3  c-2.999,0.901-5.999,1.5-8.699,1.8c-18.6-18.3-54.901-54.6-91.5-91.5c-36.601-36.599-73.5-73.5-92.1-92.1  c0.601-2.699,1.199-5.7,2.1-8.399c0-0.3,0-0.601,0.3-0.901c1.8-8.399,4.199-16.8,6.599-24.901  c15.901,15.901,60.3,60.3,104.7,104.702C166.161,434.473,209.96,478.573,226.462,494.773z"/>
<path style="fill:#C5C9F7;" d="M226.462,494.773c-8.101,2.401-16.501,4.799-24.901,6.599c-0.3,0.3-0.601,0.3-0.901,0.3  c-2.999,0.901-5.999,1.5-8.699,1.8c-18.6-18.3-54.901-54.6-91.5-91.5l21.599-21.599C166.161,434.473,209.96,478.573,226.462,494.773  z"/>
<path style="fill:#E1E4FB;" d="M503.639,192.261c-0.601,2.699-1.199,5.7-2.1,8.399v0.3c0,0.3,0,0.3-0.3,0.601  c-1.8,8.399-4.199,16.8-6.599,24.901c-15.901-15.901-60.3-60.3-104.399-104.401c-44.401-44.399-88.2-88.5-104.702-104.7  c8.101-2.401,16.501-4.799,24.901-6.599c0.3-0.3,0.3-0.3,0.601-0.3h0.3c2.699-0.901,5.7-1.5,8.399-2.1  c19.801,20.099,56.1,56.1,92.1,92.1C448.44,137.06,485.039,173.661,503.639,192.261z"/>
<path style="fill:#C5C9F7;" d="M503.639,192.261c-0.601,2.699-1.199,5.7-2.1,8.399v0.3c0,0.3,0,0.3-0.3,0.601  c-1.8,8.399-4.199,16.8-6.599,24.901c-15.901-15.901-60.3-60.3-104.399-104.401l21.599-21.599  C448.44,137.06,485.039,173.661,503.639,192.261z"/>
<path style="fill:#E1E4FB;" d="M354.109,241.03l-31.8-31.8l-21,21.301l31.8,31.8c14.101,14.099-7.2,35.099-21.301,21.299l-31.8-31.8  l-29.377,29.513l31.8,31.8c14.099,13.799-7.2,35.099-21,21l-31.8-31.8l-21.301,21.299l31.8,31.8  c14.101,14.101-7.2,35.101-21.299,21.301l-31.8-31.8l-25.501,25.499c-6.599,6.601-15,5.4-20.4,0.901c-6-5.4-8.399-14.7-0.899-22.2  l25.499-25.501l-31.8-31.8c-14.099-14.099,7.5-35.099,21.301-21.299l31.8,31.8l21.299-21l-31.8-32.1  c-14.099-13.801,7.2-35.099,21-21l32.1,31.8l29.079-29.511l-31.8-31.802c-14.101-14.099,7.2-35.099,21.299-21.299l31.8,31.8  l21.301-21l-31.8-31.8c-14.099-14.099,7.2-35.4,21-21.301l31.8,31.8l25.8-25.499c7.5-7.5,16.8-5.099,21.899,0.901  c4.501,5.4,5.7,13.499-0.899,20.099l-25.499,25.8l31.8,31.8C389.509,233.831,368.208,255.129,354.109,241.03z"/>
<path style="fill:#C5C9F7;" d="M141.13,371.343c5.4,4.499,13.801,5.7,20.4-0.901l25.501-25.499l31.8,31.8  c14.099,13.801,35.4-7.2,21.299-21.301l-31.8-31.8l21.301-21.299l31.8,31.8c13.801,14.099,35.099-7.202,21-21l-31.8-31.8  l29.377-29.513l31.8,31.8c14.101,13.801,35.402-7.2,21.301-21.299l-31.8-31.8l21-21.301l31.8,31.8c14.099,14.099,35.4-7.2,21.301-21  l-31.8-31.8l25.499-25.8c6.599-6.601,5.4-14.7,0.899-20.099c-0.004-0.005-0.008-0.009-0.013-0.014L141.104,371.318  C141.113,371.326,141.121,371.335,141.13,371.343z"/>
<g>
</g>
<g>
</g>
<g>
</g>
<g>
</g>
<g>
</g>
<g>
</g>
<g>
</g>
<g>
</g>
<g>
</g>
<g>
</g>
<g>
</g>
<g>
</g>
<g>
</g>
<g>
</g>
<g>
</g>
</svg>
