<?xml version="1.0" encoding="iso-8859-1"?>
<!-- Generator: Adobe Illustrator 19.0.0, SVG Export Plug-In . SVG Version: 6.00 Build 0)  -->
<svg xmlns="http://www.w3.org/2000/svg" xmlns:xlink="http://www.w3.org/1999/xlink" version="1.1" id="Capa_1" x="0px" y="0px" viewBox="0 0 512 512" style="enable-background:new 0 0 512 512;" xml:space="preserve">
<path style="fill:#E50027;" d="M166,240c-41.353,0-75-33.647-75-75c0-8.291,6.709-15,15-15c24.814,0,45-20.186,45-45  c0-8.291,6.709-15,15-15s15,6.709,15,15c0,41.353,33.647,75,75,75c8.291,0,15,6.709,15,15s-6.709,15-15,15  c-29.707,0-57.7,9.316-80.933,26.953C172.46,238.931,169.281,240,166,240z"/>
<path style="fill:#C1001F;" d="M346,240c-3.281,0-6.46-1.069-9.067-3.047C313.7,219.316,285.707,210,256,210  c-8.291,0-15-6.709-15-15s6.709-15,15-15c41.353,0,75-33.647,75-75c0-8.291,6.709-15,15-15s15,6.709,15,15c0,24.814,20.186,45,45,45  c8.291,0,15,6.709,15,15C421,206.353,387.353,240,346,240z"/>
<g>
	<path style="fill:#6E351C;" d="M388.001,246C355.6,202.2,305.799,180.599,256,180.599c-50.099,0-99.901,21.901-132.001,65.402   C117.7,254.7,121,268.2,136.3,270c30.601-0.601,92.999-4.801,106.199,21.599C245.2,296.999,250.6,300,256,300   s10.8-3.001,13.5-8.401c12.9-26.4,76.5-22.5,105.899-21.599C387.7,270.599,395.501,256.199,388.001,246z"/>
	<path style="fill:#6E351C;" d="M375.399,270C346,269.099,282.4,265.199,269.5,291.599c-2.7,5.4-8.1,8.401-13.5,8.401V180.599   c49.799,0,99.6,21.601,132.001,65.402C395.501,256.199,387.7,270.599,375.399,270z"/>
</g>
<path style="fill:#FFDAAA;" d="M346,90h-30c-24.901,0-45-20.101-45-45c0-9.901-7.5-15-15-15s-15,5.099-15,15  c0,24.899-20.099,45-45,45h-30c-8.401,0-15,6.599-15,15c0,57.9,47.1,105,105,105s105-47.1,105-105C361,96.599,354.401,90,346,90z"/>
<path style="fill:#FFC27A;" d="M361,105c0,57.9-47.1,105-105,105V30c7.5,0,15,5.099,15,15c0,24.899,20.099,45,45,45h30  C354.401,90,361,96.599,361,105z"/>
<path style="fill:#CA80DC;" d="M421,345v32c0,8.399,6.599,15,15,15s15,6.599,15,15v60c0,8.399-6.599,15-15,15  c-51.599,0-127.2,5.4-173.401,28.5c-2.098,0.899-4.199,1.5-6.599,1.5s-4.501-0.601-6.599-1.5C203.2,487.4,127.599,482,76,482  c-8.401,0-15-6.601-15-15v-60c0-8.401,6.599-15,15-15s15-6.601,15-15v-32c0-8.401-6.599-15-15-15s-15-6.601-15-15v-60  c0-8.401,6.599-15,15-15c96.899-0.3,148.801-5.4,180,21.599c28.801-25.199,82.5-22.8,120.601-21.599H436c8.401,0,15,6.599,15,15v60  c0,8.399-6.599,15-15,15S421,336.599,421,345z"/>
<path style="fill:#B758CE;" d="M421,345v32c0,8.399,6.599,15,15,15s15,6.599,15,15v60c0,8.399-6.599,15-15,15  c-51.599,0-127.2,5.4-173.401,28.5c-2.098,0.899-4.199,1.5-6.599,1.5V261.599c28.801-25.199,82.5-22.8,120.601-21.599H436  c8.401,0,15,6.599,15,15v60c0,8.399-6.599,15-15,15S421,336.599,421,345z"/>
<path style="fill:#FFC27A;" d="M391,377v-32c0-59.44,90-59.487,90,0v32C481,436.44,391,436.487,391,377z"/>
<path style="fill:#FFDAAA;" d="M31,377v-32c0-59.44,90-59.487,90,0v32C121,436.44,31,436.487,31,377z"/>
<path style="fill:#FD003A;" d="M361,105c0,8.399-6.599,15-15,15h-30c-24.6,0-46.5-12.001-60-30.601  C242.199,107.999,220.6,120,196,120h-30c-8.401,0-15-6.601-15-15C151,47.1,198.1,0,256,0S361,47.1,361,105z"/>
<path style="fill:#E50027;" d="M256,89.399V0c57.9,0,105,47.1,105,105c0,8.399-6.599,15-15,15h-30  C291.4,120,269.5,107.999,256,89.399z"/>
<g>
</g>
<g>
</g>
<g>
</g>
<g>
</g>
<g>
</g>
<g>
</g>
<g>
</g>
<g>
</g>
<g>
</g>
<g>
</g>
<g>
</g>
<g>
</g>
<g>
</g>
<g>
</g>
<g>
</g>
</svg>
