<?xml version="1.0" encoding="iso-8859-1"?>
<!-- Generator: Adobe Illustrator 19.0.0, SVG Export Plug-In . SVG Version: 6.00 Build 0)  -->
<svg xmlns="http://www.w3.org/2000/svg" xmlns:xlink="http://www.w3.org/1999/xlink" version="1.1" id="Capa_1" x="0px" y="0px" viewBox="0 0 512 512" style="enable-background:new 0 0 512 512;" xml:space="preserve">
<path style="fill:#18A7FC;" d="M90,407c0,8.291-6.709,15-15,15H15c-8.291,0-15-6.709-15-15v-90c0-24.814,20.186-45,45-45h30  c8.291,0,15,6.709,15,15V407z"/>
<path style="fill:#495A79;" d="M330,47v40.199c0,19.801-30,19.801-30,0V47c0-8.401-6.599-17-15-17h-60c-8.401,0-15,8.599-15,17  v40.199c0,19.801-30,19.801-30,0V47c0-24.901,20.099-47,45-47h60C309.901,0,330,22.099,330,47z"/>
<g>
	<path style="fill:#1689FC;" d="M90,467c0,8.291-6.709,15-15,15H45c-24.814,0-45-20.186-45-45v-45h75c8.291,0,15,6.709,15,15V467z"/>
	<path style="fill:#1689FC;" d="M512,407c0,8.291-6.709,15-15,15h-62c-8.291,0-15-6.709-15-15V287c0-8.291,6.709-15,15-15h32   c24.814,0,45,20.186,45,45V407z"/>
</g>
<path style="fill:#136EF1;" d="M512,437c0,24.814-20.186,45-45,45h-32c-8.291,0-15-6.709-15-15v-60c0-8.291,6.709-15,15-15h77V437z"/>
<path style="fill:#0A4EAF;" d="M435,332h-60c-8.401,0-15,6.599-15,15v30c0,8.399-6.599,15-15,15H165c-8.401,0-15-6.601-15-15v-30  c0-8.401-6.599-15-15-15H75c-8.401,0-15,6.599-15,15v120c0,24.899,20.099,45,45,45h300c24.901,0,45-20.101,45-45V347  C450,338.599,443.401,332,435,332z"/>
<path style="fill:#063E8B;" d="M450,347v120c0,24.899-20.099,45-45,45H255V392h90c8.401,0,15-6.601,15-15v-30  c0-8.401,6.599-15,15-15h60C443.401,332,450,338.599,450,347z"/>
<path style="fill:#C5C9F7;" d="M210,437v-30c0-19.773,30-19.854,30,0v30C240,456.773,210,456.854,210,437z"/>
<path style="fill:#18A7FC;" d="M375,332H135c-8.401,0-15,6.599-15,15v30c0,24.899,20.099,45,45,45h180c24.901,0,45-20.101,45-45v-30  C390,338.599,383.401,332,375,332z"/>
<path style="fill:#1689FC;" d="M390,347v30c0,24.899-20.099,45-45,45h-90v-90h120C383.401,332,390,338.599,390,347z"/>
<path style="fill:#0A4EAF;" d="M435,242h-33.3c-7.2,0-13.2-5.4-14.7-12.9C374.099,167,318.6,122,255,122s-119.099,45-132.001,107.1  c-1.5,7.5-7.5,12.9-14.7,12.9H75c-8.401,0-15,6.599-15,15v105h390V257C450,248.599,443.401,242,435,242z"/>
<path style="fill:#063E8B;" d="M450,257v105H255V122c63.6,0,119.099,45,132.001,107.1c1.5,7.5,7.5,12.9,14.7,12.9H435  C443.401,242,450,248.599,450,257z"/>
<path style="fill:#C5C9F7;" d="M308.101,216.499L265.5,173.9c-2.699-2.699-6.599-4.2-10.499-4.2s-7.8,1.501-10.499,4.2  l-42.601,42.599c-5.7,5.7-5.7,15.3,0,21l42.601,42.599c2.699,3.001,6.599,4.2,10.499,4.2s7.8-1.199,10.499-4.2l42.601-42.599  C313.801,231.799,313.801,222.199,308.101,216.499z"/>
<path style="fill:#A8AFF1;" d="M265.499,280.099c-2.699,3.001-6.599,4.2-10.499,4.2v-114.6c3.9,0,7.8,1.501,10.499,4.2  l42.601,42.599c5.7,5.7,5.7,15.3,0,21L265.499,280.099z"/>
<path style="fill:#42516D;" d="M285,30h-30V0h30c24.901,0,45,22.099,45,47v40.199c0,19.801-30,19.801-30,0V47  C300,38.599,293.401,30,285,30z"/>
<path style="fill:#18A7FC;" d="M392.999,119.299c-20.4-20.7-45.599-36.599-73.2-46.199C298.801,65.6,277.2,62,255,62  c-21.899,0-43.801,3.6-65.099,11.1C112.2,100.399,60,174.5,60,257v15h48.3c21.601,0,39.6-15.3,44.101-36.901  C162.599,187.099,205.499,152,255,152s92.401,35.099,102.599,83.099C362.1,256.7,380.099,272,401.7,272c33.3,0,47.699,0,47.699,0  C453.6,214.1,433.2,159.2,392.999,119.299z"/>
<path style="fill:#1689FC;" d="M449.399,272c0,0-14.399,0-47.699,0c-21.601,0-39.6-15.3-44.101-36.901  C347.401,187.099,304.501,152,255,152V62c22.2,0,43.801,3.6,64.799,11.1c27.601,9.6,52.8,25.499,73.2,46.199  C433.2,159.2,453.6,214.1,449.399,272z"/>
<g>
</g>
<g>
</g>
<g>
</g>
<g>
</g>
<g>
</g>
<g>
</g>
<g>
</g>
<g>
</g>
<g>
</g>
<g>
</g>
<g>
</g>
<g>
</g>
<g>
</g>
<g>
</g>
<g>
</g>
</svg>
