<?xml version="1.0" encoding="iso-8859-1"?>
<!-- Generator: Adobe Illustrator 19.0.0, SVG Export Plug-In . SVG Version: 6.00 Build 0)  -->
<svg xmlns="http://www.w3.org/2000/svg" xmlns:xlink="http://www.w3.org/1999/xlink" version="1.1" id="Capa_1" x="0px" y="0px" viewBox="0 0 512 512" style="enable-background:new 0 0 512 512;" xml:space="preserve">
<g>
	<path style="fill:#E0E4EC;" d="M374.95,210h-240c-8.401,0-15,6.599-15,15v60c0,8.399,6.599,15,15,15h240c8.401,0,15-6.601,15-15   v-60C389.95,216.599,383.351,210,374.95,210z"/>
	<path style="fill:#E0E4EC;" d="M374.95,330h-240c-8.401,0-15,6.599-15,15v152c0,8.399,6.599,15,15,15h240c8.401,0,15-6.601,15-15   V345C389.95,336.599,383.351,330,374.95,330z"/>
</g>
<path style="fill:#D1D7E3;" d="M389.95,345v152c0,8.399-6.599,15-15,15h-120V330h120C383.351,330,389.95,336.599,389.95,345z"/>
<path style="fill:#C5C9F7;" d="M374.95,330h-240c-8.401,0-15,6.599-15,15v152c0,8.399,6.599,15,15,15h240c8.401,0,15-6.601,15-15  V345C389.95,336.599,383.351,330,374.95,330z M359.95,482h-210V360h210V482z"/>
<rect x="200.96" y="291.01" style="fill:#0A4EAF;" width="47.988" height="47.988"/>
<rect x="260.96" y="291.01" style="fill:#063E8B;" width="47.988" height="47.988"/>
<path style="fill:#0A4EAF;" d="M284.95,392h-60c-24.901,0-45,20.099-45,45v60c0,8.399,6.599,15,15,15h120c8.401,0,15-6.601,15-15  v-60C329.95,412.099,309.85,392,284.95,392z"/>
<path style="fill:#063E8B;" d="M329.95,437v60c0,8.399-6.599,15-15,15h-60V392h30C309.85,392,329.95,412.099,329.95,437z"/>
<path style="fill:#D1D7E3;" d="M389.95,225v60c0,8.399-6.599,15-15,15h-120v-90h120C383.351,210,389.95,216.599,389.95,225z"/>
<rect x="140.96" y="291.01" style="fill:#0A4EAF;" width="47.988" height="47.988"/>
<rect x="320.96" y="291.01" style="fill:#063E8B;" width="47.988" height="47.988"/>
<path style="fill:#C5C9F7;" d="M374.95,270h-240c-8.401,0-15,6.599-15,15v60c0,8.399,6.599,15,15,15h240c8.401,0,15-6.601,15-15v-60  C389.95,276.599,383.351,270,374.95,270z M179.95,330h-30v-30h30V330z M239.95,330h-30v-30h30V330z M299.95,330h-30v-30h30V330z   M359.95,330h-30v-30h30V330z"/>
<path style="fill:#A8AFF1;" d="M374.95,270h-120v90h120c8.401,0,15-6.601,15-15v-60C389.95,276.599,383.351,270,374.95,270z   M299.95,330h-30v-30h30V330z M359.95,330h-30v-30h30V330z"/>
<g>
	<rect x="380.96" y="413.01" style="fill:#D1D7E3;" width="80.09" height="77.988"/>
	<rect x="380.96" y="321.01" style="fill:#D1D7E3;" width="80.09" height="79.988"/>
	<rect x="380.96" y="231.01" style="fill:#D1D7E3;" width="80.09" height="77.988"/>
</g>
<g>
	<rect x="50.956" y="321.01" style="fill:#E0E4EC;" width="77.988" height="79.988"/>
	<rect x="50.956" y="413.01" style="fill:#E0E4EC;" width="77.988" height="77.988"/>
	<rect x="50.956" y="231.01" style="fill:#E0E4EC;" width="77.988" height="77.988"/>
</g>
<path style="fill:#A8AFF1;" d="M467.05,210h-92.1c-8.291,0-15,6.709-15,15v272c0,8.291,6.709,15,15,15h92.1c8.291,0,15-6.709,15-15  V225C482.05,216.709,475.341,210,467.05,210z M389.95,330h62.1v62h-62.1V330z M452.05,240v60h-62.1v-60H452.05z M389.95,482v-60  h62.1v60H389.95z"/>
<path style="fill:#1689FC;" d="M344.95,0h-90v89.7c9,1.5,20.099,0.3,30,0.3c41.4,0,75-33.6,75-75C359.95,6.599,353.351,0,344.95,0z"/>
<path style="fill:#495A79;" d="M269.95,0v105c0,9.899-7.5,15-15,15c-7.5,0-15-5.101-15-15V0H269.95z"/>
<path style="fill:#42516D;" d="M269.95,0v105c0,9.899-7.5,15-15,15V0H269.95z"/>
<path style="fill:#C5C9F7;" d="M134.95,210h-90c-8.291,0-15,6.709-15,15v272c0,8.291,6.709,15,15,15h90c8.291,0,15-6.709,15-15V225  C149.95,216.709,143.241,210,134.95,210z M59.95,330h60v62h-60C59.95,392,59.95,330,59.95,330z M119.95,240v60h-60v-60H119.95z   M59.95,482v-60h60v60H59.95z"/>
<path style="fill:#0A4EAF;" d="M497.05,512H14.95c-19.799,0-19.799-30,0-30h482.1C516.849,482,516.849,512,497.05,512z"/>
<path style="fill:#063E8B;" d="M497.05,512h-242.1v-30h242.1C516.849,482,516.849,512,497.05,512z"/>
<path style="fill:#FD003A;" d="M503.649,211.5l-242.1-120c-2.098-0.901-4.199-1.5-6.599-1.5c-2.401,0-4.501,0.599-6.599,1.5  l-240,120C-5.75,218.7-0.951,240,14.95,240h482.1C512.951,240,517.75,218.699,503.649,211.5z"/>
<path style="fill:#E50027;" d="M497.05,240h-242.1V90c2.4,0,4.501,0.599,6.599,1.5l242.1,120C517.75,218.699,512.951,240,497.05,240  z"/>
<path style="fill:#E0E4EC;" d="M269.95,165c0,8.399-6.599,15-15,15c-8.401,0-15-6.601-15-15c0-8.401,6.599-15,15-15  C263.351,150,269.95,156.599,269.95,165z"/>
<path style="fill:#D1D7E3;" d="M254.95,180v-30c8.401,0,15,6.599,15,15C269.95,173.399,263.351,180,254.95,180z"/>
<g>
</g>
<g>
</g>
<g>
</g>
<g>
</g>
<g>
</g>
<g>
</g>
<g>
</g>
<g>
</g>
<g>
</g>
<g>
</g>
<g>
</g>
<g>
</g>
<g>
</g>
<g>
</g>
<g>
</g>
</svg>
