<?xml version="1.0" encoding="iso-8859-1"?>
<!-- Generator: Adobe Illustrator 19.0.0, SVG Export Plug-In . SVG Version: 6.00 Build 0)  -->
<svg xmlns="http://www.w3.org/2000/svg" xmlns:xlink="http://www.w3.org/1999/xlink" version="1.1" id="Capa_1" x="0px" y="0px" viewBox="0 0 512 512" style="enable-background:new 0 0 512 512;" xml:space="preserve">
<path style="fill:#FFDE33;" d="M325.499,66.499l-60-62C262.8,1.5,258.9,0,255,0s-7.8,1.5-10.499,4.499l-60,62  C174.901,75.799,181.5,92,195,92h120C328.5,92,335.099,75.799,325.499,66.499z"/>
<path style="fill:#FFBC33;" d="M420,317V197c0-13.306,16.158-20.053,25.605-10.605l62,60c5.859,5.859,5.859,15.352,0,21.211l-62,60  C436.201,337.01,420,330.41,420,317z"/>
<g>
	<path style="fill:#FFDE33;" d="M315,422H195c-13.5,0-20.099,16.199-10.499,25.499l60,60C247.2,510.5,251.1,512,255,512   s7.8-1.5,10.499-4.501l60-60C335.099,438.199,328.5,422,315,422z"/>
	<path style="fill:#FFDE33;" d="M64.395,327.605l-60-60c-5.859-5.859-5.859-15.352,0-21.211l60-60C73.861,176.928,90,183.721,90,197   v120C90,330.376,73.776,336.987,64.395,327.605z"/>
</g>
<path style="fill:#F6B73C;" d="M60,197V77c0-8.291,6.709-15,15-15h120c13.361,0,20.014,16.197,10.605,25.605l-120,120  C76.201,217.01,60,210.41,60,197z"/>
<g>
	<path style="fill:#F29737;" d="M424.395,207.605l-120-120C294.986,78.197,301.639,62,315,62h120c8.291,0,15,6.709,15,15v120   C450,210.376,433.776,216.987,424.395,207.605z"/>
	<path style="fill:#F29737;" d="M435,452H315c-13.361,0-20.014-16.197-10.605-25.605l120-120C433.861,296.928,450,303.721,450,317   v120C450,445.291,443.291,452,435,452z"/>
</g>
<path style="fill:#F6B73C;" d="M195,452H75c-8.291,0-15-6.709-15-15V317c0-13.349,16.166-20.045,25.605-10.605l120,120  C215.014,435.803,208.361,452,195,452z"/>
<path style="fill:#FFDE33;" d="M445.499,186.499l-120-120C322.8,63.5,318.9,62,315,62H195c-3.9,0-7.8,1.5-10.499,4.499l-120,120  C61.5,189.2,60,193.1,60,197v120c0,3.9,1.5,7.8,4.501,10.499l120,120C187.2,450.5,191.1,452,195,452h120c3.9,0,7.8-1.5,10.499-4.501  l120-120C448.5,324.8,450,320.9,450,317V197C450,193.1,448.5,189.2,445.499,186.499z"/>
<g>
	<path style="fill:#FFBC33;" d="M325.499,447.499l-60,60C262.8,510.5,258.9,512,255,512v-90h60   C328.5,422,335.099,438.199,325.499,447.499z"/>
	<path style="fill:#FFBC33;" d="M315,92h-60V0c3.9,0,7.8,1.5,10.499,4.499l60,62C335.099,75.799,328.5,92,315,92z"/>
	<path style="fill:#FFBC33;" d="M450,197v120c0,3.9-1.5,7.8-4.501,10.499l-120,120C322.8,450.5,318.9,452,315,452h-60V62h60   c3.9,0,7.8,1.5,10.499,4.499l120,120C448.5,189.2,450,193.1,450,197z"/>
</g>
<path style="fill:#E1E4FB;" d="M208.198,348.802c-19.55,0-125.383-68.18-141.738-79.468C62.417,266.521,60,261.922,60,257  s2.417-9.521,6.46-12.334c3.12-2.153,77.227-53.364,135.879-78.281c7.207-3.032,15.601-0.044,19.189,6.929  c3.604,6.973,1.216,15.542-5.464,19.658C193.477,206.888,180,230.823,180,257c0,26.162,13.491,50.112,36.079,64.028  C228.928,328.992,223.192,348.802,208.198,348.802z"/>
<path style="fill:#C5C9F7;" d="M302.095,348.802c-15.007,0-20.683-19.729-7.969-27.7C316.582,306.995,330,283.03,330,257  s-13.418-49.995-35.874-64.102c-6.636-4.16-8.95-12.729-5.317-19.673c3.647-6.943,12.041-9.873,19.219-6.812  c58.608,25.21,132.393,76.099,135.513,78.252c4.043,2.798,6.46,7.412,6.46,12.334c0,4.922-2.417,9.536-6.46,12.334  C427.424,280.456,321.262,348.802,302.095,348.802z"/>
<path style="fill:#495A79;" d="M343.2,200.3c-9.901-16.5-22.8-28.801-35.7-34.2c-22.8-9.601-39.3-14.1-52.5-14.1  s-29.7,4.499-52.5,14.099C177.299,177.199,150,215.3,150,257c0,21,6.899,40.8,16.8,56.999c9.901,16.201,23.101,28.2,35.7,33.9  C225.3,357.499,241.8,362,255,362c13.2,0,29.7-4.501,52.5-14.101C331.8,338,360,298.999,360,257  C360,236.6,353.401,216.499,343.2,200.3z"/>
<path style="fill:#42516D;" d="M360,257c0,41.999-28.2,81-52.5,90.899C284.7,357.499,268.2,362,255,362V152  c13.2,0,29.7,4.499,52.5,14.099c12.9,5.4,25.8,17.701,35.7,34.2C353.401,216.499,360,236.6,360,257z"/>
<path style="fill:#1DE8F1;" d="M255,212c-24.901,0-45,20.099-45,45c0,24.899,20.099,45,45,45s45-20.101,45-45  C300,232.099,279.901,212,255,212z"/>
<path style="fill:#1BD9DE;" d="M255,212v90c24.901,0,45-20.101,45-45C300,232.1,279.901,212,255,212z"/>
<g>
</g>
<g>
</g>
<g>
</g>
<g>
</g>
<g>
</g>
<g>
</g>
<g>
</g>
<g>
</g>
<g>
</g>
<g>
</g>
<g>
</g>
<g>
</g>
<g>
</g>
<g>
</g>
<g>
</g>
</svg>
