<?xml version="1.0" encoding="iso-8859-1"?>
<!-- Generator: Adobe Illustrator 19.0.0, SVG Export Plug-In . SVG Version: 6.00 Build 0)  -->
<svg xmlns="http://www.w3.org/2000/svg" xmlns:xlink="http://www.w3.org/1999/xlink" version="1.1" id="Capa_1" x="0px" y="0px" viewBox="0 0 512 512" style="enable-background:new 0 0 512 512;" xml:space="preserve">
<path style="fill:#C5C9F7;" d="M269.987,75v422c0,8.399-6.599,15-15,15c-8.401,0-15-6.601-15-15V75c0-9.901,7.5-15,15-15  C262.487,60,269.987,65.099,269.987,75z"/>
<path style="fill:#A8AFF1;" d="M269.987,75v422c0,8.399-6.599,15-15,15V60C262.487,60,269.987,65.099,269.987,75z"/>
<path style="fill:#C5C9F7;" d="M344.987,362h-150c-8.401,0-15,6.599-15,15c0,8.399,6.599,15,15,15h90c59.399,0,59.399,90,0,90h-60  c-19.799,0-19.799-30,0-30h60c19.799,0,19.799-30,0-30h-90c-59.399,0-59.399-90,0-90h150c8.401,0,15-6.601,15-15  c0-8.401-6.599-15-15-15h-210c-24.901,0-45-20.101-45-45v-30c0-19.801,30-19.801,30,0v30c0,8.399,6.599,15,15,15h210  C404.387,272,404.387,362,344.987,362z"/>
<g>
	<path style="fill:#A8AFF1;" d="M284.987,482h-30v-30h30c19.799,0,19.799-30,0-30h-30v-30h30C344.387,392,344.387,482,284.987,482z"/>
	<path style="fill:#A8AFF1;" d="M344.987,362h-90v-30h90c8.401,0,15-6.601,15-15c0-8.401-6.599-15-15-15h-90v-30h90   C404.387,272,404.387,362,344.987,362z"/>
</g>
<path style="fill:#E1E4FB;" d="M506.313,215.3c-16.8-14.099-31.125-24.3-43.726-44.7l-23.399-36.9  c-15.901-25.801-47.701-41.7-82.5-41.7c-30.601,0-59.101,12.299-76.5,33.3c-2.401,2.999-9.6,11.4-11.7,14.099  c-2.701,3.301-7.8,5.101-13.5,5.101c-5.4-0.3-10.8-2.401-15-6.901L229.786,125.3c-17.399-21-45.899-33.3-76.5-33.3  c-34.799,0-66.599,15.899-82.5,41.7l-23.398,36.9C34.786,191,22.487,201.2,5.687,215.3c-10.8,8.101-5.4,26.7,9.3,26.7h482.026  C511.713,242,517.112,223.4,506.313,215.3z"/>
<g>
	<path style="fill:#C5C9F7;" d="M497.013,242H254.987v-97.5c5.7,0,10.8-1.8,13.5-5.101c2.1-2.699,9.3-11.1,11.7-14.099   c17.399-21,45.899-33.3,76.5-33.3c34.799,0,66.599,15.899,82.5,41.7l23.399,36.899c12.601,20.4,26.926,30.601,43.726,44.7   C517.112,223.4,511.713,242,497.013,242z"/>
	<path style="fill:#C5C9F7;" d="M254.987,0c-24.901,0-45,20.099-45,45c0,24.899,20.099,45,45,45s45-20.101,45-45   C299.987,20.099,279.888,0,254.987,0z M254.987,60c-7.5,0-15-5.101-15-15c0-8.401,6.599-15,15-15c8.401,0,15,6.599,15,15   C269.987,54.899,262.487,60,254.987,60z"/>
	<path style="fill:#C5C9F7;" d="M134.086,186.799L115.787,242h-31.8l21.901-64.801C111.529,158.855,140.72,167.639,134.086,186.799z   "/>
	<path style="fill:#C5C9F7;" d="M194.086,186.799L175.787,242h-31.5l21.601-64.801C171.529,158.855,200.72,167.639,194.086,186.799z   "/>
</g>
<g>
	<path style="fill:#A8AFF1;" d="M425.687,242h-31.5l-18.3-55.201c-6.634-19.16,22.557-27.944,28.198-9.6L425.687,242z"/>
	<path style="fill:#A8AFF1;" d="M365.987,242h-31.8l-18.3-55.201c-6.634-19.16,22.557-27.944,28.198-9.6L365.987,242z"/>
	<path style="fill:#A8AFF1;" d="M299.987,45c0,24.899-20.099,45-45,45V60c7.5,0,15-5.101,15-15c0-8.401-6.599-15-15-15V0   C279.888,0,299.987,20.099,299.987,45z"/>
</g>
<g>
</g>
<g>
</g>
<g>
</g>
<g>
</g>
<g>
</g>
<g>
</g>
<g>
</g>
<g>
</g>
<g>
</g>
<g>
</g>
<g>
</g>
<g>
</g>
<g>
</g>
<g>
</g>
<g>
</g>
</svg>
