<?xml version="1.0" encoding="iso-8859-1"?>
<!-- Generator: Adobe Illustrator 19.0.0, SVG Export Plug-In . SVG Version: 6.00 Build 0)  -->
<svg xmlns="http://www.w3.org/2000/svg" xmlns:xlink="http://www.w3.org/1999/xlink" version="1.1" id="Capa_1" x="0px" y="0px" viewBox="0 0 512 512" style="enable-background:new 0 0 512 512;" xml:space="preserve">
<path style="fill:#1689FC;" d="M512,317c0,8.291-6.709,15-15,15H345c-8.291,0-15-6.709-15-15v-45c0-49.629,40.371-90,90-90  s92,40.371,92,90V317z"/>
<path style="fill:#F24D25;" d="M512,497c0,8.291-6.709,15-15,15H345c-8.291,0-15-6.709-15-15V377c0-8.291,6.709-15,15-15h152  c8.291,0,15,6.709,15,15V497z"/>
<path style="fill:#FE9923;" d="M512,392H345c-8.291,0-15-6.709-15-15v-60c0-8.291,6.709-15,15-15h167V392z"/>
<path style="fill:#1689FC;" d="M180,347c0,8.291-6.709,15-15,15H15c-8.291,0-15-6.709-15-15v-45c0-49.629,40.371-90,90-90  s90,40.371,90,90V347z"/>
<path style="fill:#FE5436;" d="M180,497c0,8.291-6.709,15-15,15H15c-8.291,0-15-6.709-15-15v-90c0-8.291,6.709-15,15-15h150  c8.291,0,15,6.709,15,15V497z"/>
<path style="fill:#FEA832;" d="M180,407c0,8.291-6.709,15-15,15H0v-90h165c8.291,0,15,6.709,15,15V407z"/>
<path style="fill:#18A7FC;" d="M90,242c-33.091,0-60-26.909-60-60s26.909-60,60-60s60,26.909,60,60S123.091,242,90,242z"/>
<path style="fill:#B758CE;" d="M255,122c-57.9,0-105,47.1-105,105v60c0,8.399,6.599,15,15,15h180c8.401,0,15-6.601,15-15v-60  C360,169.1,312.9,122,255,122z"/>
<path style="fill:#FEA832;" d="M345,332H165c-8.401,0-15,6.599-15,15v165h210V347C360,338.599,353.401,332,345,332z"/>
<path style="fill:#9332B0;" d="M360,227v60c0,8.399-6.599,15-15,15h-90V122C312.9,122,360,169.1,360,227z"/>
<path style="fill:#FE9923;" d="M360,347v165H255V332h90C353.401,332,360,338.599,360,347z"/>
<path style="fill:#CA80DC;" d="M255,0c-41.4,0-75,33.6-75,75s33.6,77,75,77s75-35.6,75-77S296.4,0,255,0z"/>
<path style="fill:#FEDB41;" d="M150,272v90h210v-90H150z"/>
<path style="fill:#B758CE;" d="M255,152V0c41.4,0,75,33.6,75,75S296.4,152,255,152z"/>
<rect x="255" y="272" style="fill:#FFCC33;" width="105" height="90"/>
<path style="fill:#18A7FC;" d="M420,212c-33.091,0-60-26.909-60-60s26.909-60,60-60s60,26.909,60,60S453.091,212,420,212z"/>
<g>
</g>
<g>
</g>
<g>
</g>
<g>
</g>
<g>
</g>
<g>
</g>
<g>
</g>
<g>
</g>
<g>
</g>
<g>
</g>
<g>
</g>
<g>
</g>
<g>
</g>
<g>
</g>
<g>
</g>
</svg>
