<?xml version="1.0" encoding="iso-8859-1"?>
<!-- Generator: Adobe Illustrator 19.0.0, SVG Export Plug-In . SVG Version: 6.00 Build 0)  -->
<svg xmlns="http://www.w3.org/2000/svg" xmlns:xlink="http://www.w3.org/1999/xlink" version="1.1" id="Capa_1" x="0px" y="0px" viewBox="0 0 512 512" style="enable-background:new 0 0 512 512;" xml:space="preserve">
<path style="fill:#063E8B;" d="M255,289.18c-24.814,0-45-20.186-45-45s20.186-45,45-45s45,20.186,45,45S279.814,289.18,255,289.18z"/>
<path style="fill:#A8AFF1;" d="M344.312,475.523c-8.027,0-14.678-6.357-14.971-14.443c-0.308-8.276,6.152-15.234,14.429-15.542  c8.833-0.337,16.816-2.52,23.745-6.504c22.236-12.847,33.486-45.439,30.85-89.414c-2.9-48.311-21.519-104.399-52.441-157.939  c-30.908-53.54-70.166-97.705-110.552-124.38c-36.782-24.272-70.664-30.835-92.871-17.974C120.25,62.174,109,94.766,111.637,138.741  c2.9,48.311,21.519,104.399,52.441,157.939c35.449,61.421,83.716,111.987,129.097,135.278c7.383,3.779,10.283,12.817,6.504,20.186  c-3.75,7.383-12.803,10.313-20.186,6.504c-51.064-26.191-102.598-79.761-141.401-146.968  c-33.193-57.495-53.232-118.271-56.396-171.138C78.296,83.985,94.57,42.354,127.5,23.341  c65.61-37.866,172.925,29.517,244.409,153.34c33.193,57.495,53.232,118.271,56.396,171.138  c3.398,56.558-12.876,98.188-45.806,117.202c-11.206,6.46-23.862,9.99-37.617,10.488  C344.692,475.523,344.502,475.523,344.312,475.523z"/>
<path style="fill:#C5C9F7;" d="M255,379.18c-142.998,0-255-59.297-255-135c0-15.381,4.6-30.381,13.682-44.59  c4.438-7.002,13.696-9.038,20.713-4.57c6.987,4.453,9.023,13.74,4.57,20.713C33.018,225.05,30,234.615,30,244.18  c0,56.909,103.037,105,225,105s227-48.091,227-105s-105.037-105-227-105c-69.067,0-133.652,15.073-177.188,41.353  c-7.09,4.263-16.304,2.007-20.596-5.098c-4.277-7.09-1.992-16.304,5.098-20.596C110.391,125.821,180.615,109.18,255,109.18  c142.998,0,257,59.297,257,135S397.998,379.18,255,379.18z"/>
<path style="fill:#E1E4FB;" d="M168.413,475.538c-14.78,0-28.579-3.398-40.913-10.518c-32.93-19.014-49.204-60.645-45.806-117.202  c3.164-52.866,23.203-113.643,56.396-171.138C209.604,52.857,317.007-14.438,382.5,23.341c4.014,2.314,7.764,4.966,11.265,7.925  c6.313,5.361,7.09,14.839,1.729,21.152c-5.376,6.328-14.824,7.075-21.152,1.729c-2.124-1.816-4.409-3.413-6.841-4.819  c-49.264-28.39-142.442,36.737-203.424,142.352c-30.923,53.54-49.541,109.629-52.441,157.939  c-2.637,43.975,8.613,76.567,30.864,89.414c49.233,28.447,142.456-36.738,203.423-142.354  c41.147-71.265,60.366-147.964,50.156-200.186c-1.582-8.13,3.721-15.996,11.851-17.593c8.115-1.655,15.996,3.706,17.593,11.851  c11.704,59.897-8.335,142.5-53.613,220.928C313.857,412.213,232.163,475.523,168.413,475.538z"/>
<path style="fill:#E50027;" d="M405,109.18c-24.814,0-45-20.186-45-45s20.186-45,45-45s45,20.186,45,45S429.814,109.18,405,109.18z"/>
<path style="fill:#1689FC;" d="M315,499.18c-24.814,0-45-20.186-45-45s20.186-45,45-45s45,20.186,45,45S339.814,499.18,315,499.18z"/>
<path style="fill:#66BD21;" d="M45,229.18c-24.814,0-45-20.186-45-45s20.186-45,45-45s45,20.186,45,45S69.814,229.18,45,229.18z"/>
<g>
</g>
<g>
</g>
<g>
</g>
<g>
</g>
<g>
</g>
<g>
</g>
<g>
</g>
<g>
</g>
<g>
</g>
<g>
</g>
<g>
</g>
<g>
</g>
<g>
</g>
<g>
</g>
<g>
</g>
</svg>
