<?xml version="1.0" encoding="iso-8859-1"?>
<!-- Generator: Adobe Illustrator 19.0.0, SVG Export Plug-In . SVG Version: 6.00 Build 0)  -->
<svg xmlns="http://www.w3.org/2000/svg" xmlns:xlink="http://www.w3.org/1999/xlink" version="1.1" id="Capa_1" x="0px" y="0px" viewBox="0 0 512 512" style="enable-background:new 0 0 512 512;" xml:space="preserve">
<g>
	<circle style="fill:#E1E4FB;" cx="317" cy="345" r="15"/>
	<path style="fill:#E1E4FB;" d="M377,330c-24.814,0-45-20.186-45-45c0-4.849,0.879-9.668,2.593-14.326   C313.733,250.898,302,223.96,302,195v-90C302,47.109,349.109,0,407,0s105,47.109,105,105v90c0,53.599-40.371,97.954-92.314,104.238   C413.724,317.095,396.834,330,377,330z"/>
</g>
<path style="fill:#CA80DC;" d="M330,497c0,8.4-6.6,15-15,15H15c-8.4,0-15-6.6-15-15c0-61.8,34.8-117.9,88.2-145.8  c4.66-2.54,9.31-4.78,14.18-6.82c1.16-0.5,2.33-0.97,3.52-1.44c0.01,0,0.02-0.01,0.03-0.01c0.88-0.35,1.77-0.69,2.67-1.03h0.3  c0.2-0.08,0.41-0.16,0.62-0.22c5.25-1.76,11.23-0.22,14.98,3.82l12.66,12.56L165,385.7l27.84-27.64l12.66-12.56  c3.75-4.04,9.73-5.58,14.98-3.82c0.21,0.06,0.42,0.14,0.62,0.22h0.3c0.9,0.34,1.79,0.68,2.67,1.03c0.01,0,0.02,0.01,0.03,0.01  c1.19,0.47,2.36,0.94,3.52,1.44c4.87,2.04,9.52,4.28,14.18,6.82C295.2,379.1,330,435.2,330,497z"/>
<path style="fill:#B758CE;" d="M330,497c0,8.4-6.6,15-15,15H165V385.7l27.84-27.64l12.66-12.56c3.75-4.04,9.73-5.58,14.98-3.82  c0.21,0.06,0.42,0.14,0.62,0.22h0.3c0.9,0.34,1.79,0.68,2.67,1.03c0.01,0,0.02,0.01,0.03,0.01c1.19,0.47,2.36,0.94,3.52,1.44  c4.87,2.04,9.52,4.28,14.18,6.82C295.2,379.1,330,435.2,330,497z"/>
<path style="fill:#FFC27A;" d="M221.4,341.899h-0.3C203.701,335.3,184.2,332,165,332s-38.701,3.3-56.1,9.899h-0.3  c-2.098,0.901-4.2,1.501-6.302,2.401L165,407l62.703-62.701C225.601,343.4,223.499,342.8,221.4,341.899z"/>
<path style="fill:#FFAD4D;" d="M221.4,341.899c2.098,0.901,4.2,1.501,6.302,2.401L165,407v-75c19.2,0,38.701,3.3,56.1,9.899H221.4z"/>
<path style="fill:#FFDAAA;" d="M255,240h-30c-24.902,0-45-20.101-45-45c0-9.901-7.5-15-15-15s-15,5.099-15,15  c0,24.899-20.098,45-45,45H75c-7.2,0-13.198,5.099-14.7,11.999C60,252.9,60,254.099,60,255c0,5.099,0.3,10.199,1.201,15  c7.2,50.7,50.999,92,103.799,92s96.599-41.3,103.799-92c0.901-4.801,1.201-9.901,1.201-15C270,246.899,263.401,240,255,240z"/>
<path style="fill:#FEDB41;" d="M270,255c0,5.099-0.3,10.199-1.201,15H225c-24.602,0-46.501-12.001-60-30.601  C151.201,257.999,129.602,270,105,270H61.201C60.3,265.199,60,260.099,60,255c0-0.901,0-2.1,0.3-3.001  C61.501,195.601,107.999,150,165,150s103.499,45.601,104.7,101.999C270,252.9,270,254.099,270,255z"/>
<path style="fill:#FFC27A;" d="M270,255c0,5.099-0.3,10.199-1.201,15c-7.2,50.7-50.999,92-103.799,92V180c7.5,0,15,5.099,15,15  c0,24.899,20.098,45,45,45h30C263.401,240,270,246.899,270,255z"/>
<path style="fill:#FFCC33;" d="M270,255c0,5.099-0.3,10.199-1.201,15H225c-24.602,0-46.501-12.001-60-30.601V150  c57.001,0,103.499,45.601,104.7,101.999C270,252.9,270,254.099,270,255z"/>
<path style="fill:#C5C9F7;" d="M419.686,299.238C471.629,292.954,512,248.599,512,195v-90C512,47.109,464.891,0,407,0v317.862  C412.596,312.746,417.234,306.584,419.686,299.238z"/>
<g>
	<path style="fill:#FD003A;" d="M407,179.648c-8.291,0-15-6.357-15-14.648v-0.703c0-18.56,8.921-36.196,23.877-47.212   C419.759,114.229,422,109.819,422,105c0-8.276-6.724-15-15-15s-15,6.724-15,15c0,8.291-6.709,15-15,15s-15-6.709-15-15   c0-24.814,20.186-45,45-45s45,20.186,45,45c0,14.238-6.855,27.788-18.325,36.24c-7.31,5.391-11.675,14.004-11.675,23.057   C422,172.588,415.291,179.648,407,179.648z"/>
	<circle style="fill:#FD003A;" cx="407" cy="225" r="15"/>
</g>
<g>
	<path style="fill:#E50027;" d="M422,105c0,4.819-2.241,9.229-6.123,12.085c-3.307,2.435-6.193,5.303-8.877,8.324v54.24   c8.291,0,15-7.061,15-15.352c0-9.053,4.365-17.666,11.675-23.057C445.145,132.788,452,119.238,452,105c0-24.814-20.186-45-45-45v30   C415.276,90,422,96.724,422,105z"/>
	<path style="fill:#E50027;" d="M422,225c0-8.284-6.716-15-15-15v30C415.284,240,422,233.284,422,225z"/>
</g>
<g>
</g>
<g>
</g>
<g>
</g>
<g>
</g>
<g>
</g>
<g>
</g>
<g>
</g>
<g>
</g>
<g>
</g>
<g>
</g>
<g>
</g>
<g>
</g>
<g>
</g>
<g>
</g>
<g>
</g>
</svg>
