<?xml version="1.0" encoding="iso-8859-1"?>
<!-- Generator: Adobe Illustrator 19.0.0, SVG Export Plug-In . SVG Version: 6.00 Build 0)  -->
<svg xmlns="http://www.w3.org/2000/svg" xmlns:xlink="http://www.w3.org/1999/xlink" version="1.1" id="Capa_1" x="0px" y="0px" viewBox="0 0 512 512" style="enable-background:new 0 0 512 512;" xml:space="preserve">
<path style="fill:#F24D25;" d="M467,210h-30c-8.291,0-15-6.709-15-15V75c0-8.291,6.709-15,15-15h30c24.814,0,45,20.186,45,45v60  C512,189.814,491.814,210,467,210z"/>
<path style="fill:#FE5436;" d="M75,210H45c-24.814,0-45-20.186-45-45v-60c0-24.814,20.186-45,45-45h30c8.291,0,15,6.709,15,15v120  C90,203.291,83.291,210,75,210z"/>
<path style="fill:#FEA832;" d="M377,0H135C93.6,0,60,33.6,60,75v158.099c0,11.7,12.599,18.9,22.5,12.902c14.399-8.401,35.7-6,52.5-6  c8.401,0,15-6.601,15-15V105c0-8.401,6.599-15,15-15h182c8.401,0,15,6.599,15,15v120c0,8.399,6.599,15,15,15  c16.8,0,38.101-2.401,52.5,6c9.901,5.7,22.5-1.201,22.5-12.902V75C452,33.6,418.4,0,377,0z"/>
<path style="fill:#E1E4FB;" d="M347,60H165c-24.901,0-45,20.099-45,45v120c0,8.399,6.599,15,15,15h242c8.401,0,15-6.601,15-15V105  C392,80.099,371.901,60,347,60z"/>
<path style="fill:#FE9923;" d="M452,75v158.099c0,11.7-12.599,18.602-22.5,12.902c-14.399-8.401-35.7-6-52.5-6  c-8.401,0-15-6.601-15-15V105c0-8.401-6.599-15-15-15h-90V0h120C418.4,0,452,33.6,452,75z"/>
<path style="fill:#C5C9F7;" d="M392,105v120c0,8.399-6.599,15-15,15H257V60h90C371.901,60,392,80.099,392,105z"/>
<path style="fill:#FEDB41;" d="M407,210H105c-39.901,0-75,32.1-75,75v90c0,8.399,6.599,15,15,15h422c8.401,0,15-6.601,15-15v-90  C482,242.399,447.201,210,407,210z"/>
<path style="fill:#FFCC33;" d="M482,285v90c0,8.399-6.599,15-15,15H257V210h150C447.201,210,482,242.399,482,285z"/>
<path style="fill:#063E8B;" d="M75,512c-24.814,0-45-20.186-45-45v-30c0-8.291,6.709-15,15-15h60c8.291,0,15,6.709,15,15v30  C120,491.814,99.814,512,75,512z"/>
<path style="fill:#032E68;" d="M437,512c-24.814,0-45-20.186-45-45v-30c0-8.291,6.709-15,15-15h60c8.291,0,15,6.709,15,15v30  C482,491.814,461.814,512,437,512z"/>
<path style="fill:#063E8B;" d="M347,315v60H165v-60c0-16.5,13.5-30,30-30h122C333.5,285,347,298.5,347,315z"/>
<circle style="fill:#D1D7E3;" cx="407" cy="315" r="15"/>
<circle style="fill:#E0E4EC;" cx="105" cy="315" r="15"/>
<path style="fill:#C5C9F7;" d="M317,270H195c-24.901,0-45,20.099-45,45v60c0,8.399,6.599,15,15,15h182c8.401,0,15-6.601,15-15v-60  C362,290.099,341.901,270,317,270z M210,360h-30v-45c0-8.401,6.599-15,15-15h15V360z M272,360h-30v-60h30V360z M332,360h-30v-60h15  c8.401,0,15,6.599,15,15V360z"/>
<path style="fill:#032E68;" d="M347,315v60h-90v-90h60C333.5,285,347,298.5,347,315z"/>
<path style="fill:#A8AFF1;" d="M317,270h-60v30h15v60h-15v30h90c8.401,0,15-6.601,15-15v-60C362,290.099,341.901,270,317,270z   M332,360h-30v-60h15c8.401,0,15,6.599,15,15V360z"/>
<path style="fill:#C5C9F7;" d="M467,360H45c-24.901,0-45,20.099-45,45v32c0,8.399,6.599,15,15,15h482c8.401,0,15-6.601,15-15v-32  C512,380.099,491.901,360,467,360z"/>
<path style="fill:#A8AFF1;" d="M512,405v32c0,8.399-6.599,15-15,15H257v-92h210C491.901,360,512,380.099,512,405z"/>
<g>
</g>
<g>
</g>
<g>
</g>
<g>
</g>
<g>
</g>
<g>
</g>
<g>
</g>
<g>
</g>
<g>
</g>
<g>
</g>
<g>
</g>
<g>
</g>
<g>
</g>
<g>
</g>
<g>
</g>
</svg>
