<?xml version="1.0" encoding="iso-8859-1"?>
<!-- Generator: Adobe Illustrator 19.0.0, SVG Export Plug-In . SVG Version: 6.00 Build 0)  -->
<svg xmlns="http://www.w3.org/2000/svg" xmlns:xlink="http://www.w3.org/1999/xlink" version="1.1" id="Capa_1" x="0px" y="0px" viewBox="0 0 512 512" style="enable-background:new 0 0 512 512;" xml:space="preserve">
<path style="fill:#063E8B;" d="M378.139,113.65l38.467-38.467c13.945-13.945,35.271,7.151,21.211,21.211l-38.467,38.467  C385.404,148.807,364.078,127.711,378.139,113.65z"/>
<path style="fill:#0A4EAF;" d="M112.65,134.861L74.184,96.395C60.239,82.45,81.335,61.124,95.395,75.184l38.467,38.467  C147.807,127.596,126.711,148.922,112.65,134.861z"/>
<g>
	<path style="fill:#C5C9F7;" d="M52.973,96.395l42.422-42.422c13.945-13.945,35.271,7.151,21.211,21.211l-42.422,42.422   C60.18,131.609,38.969,110.398,52.973,96.395z"/>
	<path style="fill:#C5C9F7;" d="M286,0h-60c-24.901,0-45,20.099-45,45v40.699c0,10.201,9.901,17.401,19.2,14.399   C218.2,94.699,237.1,92,256,92s37.8,2.699,55.8,8.099C321.1,103.1,331,95.9,331,85.7V45C331,20.099,310.901,0,286,0z"/>
</g>
<path style="fill:#A8AFF1;" d="M331,45v40.699c0,10.201-9.901,17.401-19.2,14.399C293.8,94.699,274.9,92,256,92V0h30  C310.901,0,331,20.099,331,45z"/>
<path style="fill:#FD003A;" d="M320.2,71.3C299.8,64.999,277.599,62,256,62c-21.899,0-43.801,2.999-64.2,9.3  C103.001,96.799,31,181.7,31,287c0,124.2,100.8,225,225,225s225-100.8,225-225C481,180.5,407.8,96.499,320.2,71.3z"/>
<path style="fill:#E50027;" d="M481,287c0,124.2-100.8,225-225,225V62c21.599,0,43.801,2.999,64.2,9.3  C407.8,96.499,481,180.5,481,287z"/>
<path style="fill:#C5C9F7;" d="M406,287c0,82.8-67.2,150-150,150s-150-67.2-150-150s67.2-150,150-150S406,204.2,406,287z"/>
<path style="fill:#A8AFF1;" d="M406,287c0-82.8-67.2-150-150-150v300C338.8,437,406,369.8,406,287z"/>
<path style="fill:#0A4EAF;" d="M331,287c0,8.399-6.599,15-15,15h-60c-8.401,0-15-6.601-15-15v-90c0-8.401,6.599-15,15-15  s15,6.599,15,15v75h45C324.401,272,331,278.599,331,287z"/>
<path style="fill:#A8AFF1;" d="M448.422,122c-3.838,0-7.676-1.465-10.605-4.395l-42.422-42.422c-5.859-5.859-5.859-15.352,0-21.211  s15.352-5.859,21.211,0l42.422,42.422C468.488,105.855,461.692,122,448.422,122z"/>
<g>
	<path style="fill:#0A4EAF;" d="M271,137.899V167c0,8.399-6.599,15-15,15s-15-6.601-15-15v-29.101c4.799-0.599,9.901-0.899,15-0.899   S266.201,137.3,271,137.899z"/>
	<path style="fill:#0A4EAF;" d="M271,407v29.099c-4.799,0.601-9.901,0.901-15,0.901s-10.201-0.3-15-0.901V407   c0-8.401,6.599-15,15-15S271,398.599,271,407z"/>
</g>
<path style="fill:#063E8B;" d="M406,287c0,5.099-0.3,10.199-0.901,15H376c-8.401,0-15-6.601-15-15c0-8.401,6.599-15,15-15h29.099  C405.7,276.799,406,281.899,406,287z"/>
<path style="fill:#0A4EAF;" d="M151,287c0,8.399-6.599,15-15,15h-29.099c-0.601-4.801-0.901-9.901-0.901-15  c0-5.101,0.3-10.201,0.901-15H136C144.401,272,151,278.599,151,287z"/>
<g>
	<path style="fill:#063E8B;" d="M256,182v-45c5.099,0,10.201,0.3,15,0.899V167C271,175.399,264.401,182,256,182z"/>
	<path style="fill:#063E8B;" d="M271,407v29.099c-4.799,0.601-9.901,0.901-15,0.901v-45C264.401,392,271,398.599,271,407z"/>
	<path style="fill:#063E8B;" d="M331,287c0,8.399-6.599,15-15,15h-60V182c8.401,0,15,6.599,15,15v75h45   C324.401,272,331,278.599,331,287z"/>
</g>
<path style="fill:#E1E4FB;" d="M256,122c-90.901,0-165,74.099-165,165c0,90.899,74.099,165,165,165s165-74.101,165-165  C421,196.099,346.901,122,256,122z M256,422c-74.399,0-135-60.601-135-135c0-74.401,60.601-135,135-135s135,60.599,135,135  C391,361.399,330.399,422,256,422z"/>
<path style="fill:#C5C9F7;" d="M391,287c0,74.399-60.601,135-135,135v30c90.901,0,165-74.101,165-165c0-90.901-74.099-165-165-165  v30C330.399,152,391,212.599,391,287z"/>
<g>
</g>
<g>
</g>
<g>
</g>
<g>
</g>
<g>
</g>
<g>
</g>
<g>
</g>
<g>
</g>
<g>
</g>
<g>
</g>
<g>
</g>
<g>
</g>
<g>
</g>
<g>
</g>
<g>
</g>
</svg>
