<?xml version="1.0" encoding="iso-8859-1"?>
<!-- Generator: Adobe Illustrator 19.0.0, SVG Export Plug-In . SVG Version: 6.00 Build 0)  -->
<svg xmlns="http://www.w3.org/2000/svg" xmlns:xlink="http://www.w3.org/1999/xlink" version="1.1" id="Capa_1" x="0px" y="0px" viewBox="0 0 512 512" style="enable-background:new 0 0 512 512;" xml:space="preserve">
<path style="fill:#A8AFF1;" d="M482,0h-45c-8.401,0-15,6.599-15,15v90c0,8.399,6.599,15,15,15l60,2c8.401,0,15-6.601,15-15V32  C512,15.5,498.501,0,482,0z"/>
<path style="fill:#E1E4FB;" d="M437,0H75C50.098,0,30,20.099,30,45v392c0,8.399,6.599,15,15,15h287c0,32.999,27.001,60,60,60h15  c0.601,0,1.501,0,2.102-0.3C433.1,510.799,452,491.3,452,467V30c0-16.5,13.499-30,30-30H437z"/>
<path style="fill:#C5C9F7;" d="M437,0H302v452h30c0,32.999,27.001,60,60,60h15c0.601,0,1.501,0,2.102-0.3  C433.1,510.799,452,491.3,452,467V30c0-16.5,13.499-30,30-30H437z"/>
<path d="M409.401,512H407c0.601,0,1.5,0,2.1-0.3L409.401,512z"/>
<path style="fill:#C5C9F7;" d="M407,512H60c-32.999,0-60-27.001-60-60v-15c0-8.401,6.599-15,15-15h332c8.401,0,15,6.599,15,15v30  C362,491.899,382.099,512,407,512z"/>
<path style="fill:#A8AFF1;" d="M407,512H302v-90h45c8.401,0,15,6.599,15,15v30C362,491.899,382.099,512,407,512z"/>
<g>
	<path style="fill:#18A7FC;" d="M165,120h-60c-19.773,0-19.854-30,0-30h60C184.773,90,184.854,120,165,120z"/>
	<path style="fill:#18A7FC;" d="M165,210h-60c-19.773,0-19.854-30,0-30h60C184.773,180,184.854,210,165,210z"/>
	<path style="fill:#18A7FC;" d="M197,300h-92c-19.773,0-19.854-30,0-30h92c8.291,0,15,6.709,15,15S205.291,300,197,300z"/>
	<path style="fill:#18A7FC;" d="M377,392H105c-19.799,0-19.799-30,0-30h272C396.799,362,396.799,392,377,392z"/>
</g>
<path style="fill:#FD003A;" d="M337.999,197.999c-10.199,7.8-23.101,11.7-35.999,11.7s-25.8-3.9-35.999-11.7  c-9.902-7.5-24.001-0.3-24.001,12.001v105c0,11.999,13.198,19.2,23.401,12.599l36.599-24.6l36.599,24.6  C348.501,334.2,362,326.999,362,315V210C362,197.699,347.901,190.499,337.999,197.999z"/>
<path style="fill:#E50027;" d="M338.599,327.599L302,302.999v-93.3c12.9,0,25.8-3.9,36-11.7c9.901-7.5,24-0.3,24,12.001v105  C362,326.999,348.5,334.2,338.599,327.599z"/>
<path style="fill:#1689FC;" d="M377,392h-75v-30h75C396.799,362,396.799,392,377,392z"/>
<path style="fill:#FEA832;" d="M311,60.599C307.4,60.3,304.701,60,302,60c-49.501,0-90,40.499-90,90c0,26.999,11.7,50.7,30,66.899  c16.199,14.4,36.899,23.101,60,23.101c2.401,0,5.099,0,8.401-0.3c19.799-2.1,37.5-10.201,51.599-22.8  c18.3-16.199,30-39.901,30-66.899C392,103.5,356.3,65.099,311,60.599z"/>
<path style="fill:#FE9923;" d="M392,150c0,26.999-11.7,50.7-30,66.899c-14.099,12.599-31.8,20.7-51.599,22.8  c-3.301,0.3-6,0.3-8.401,0.3V60c2.701,0,5.4,0.3,9,0.599C356.3,65.099,392,103.5,392,150z"/>
<g>
</g>
<g>
</g>
<g>
</g>
<g>
</g>
<g>
</g>
<g>
</g>
<g>
</g>
<g>
</g>
<g>
</g>
<g>
</g>
<g>
</g>
<g>
</g>
<g>
</g>
<g>
</g>
<g>
</g>
</svg>
