<?xml version="1.0" encoding="iso-8859-1"?>
<!-- Generator: Adobe Illustrator 19.0.0, SVG Export Plug-In . SVG Version: 6.00 Build 0)  -->
<svg xmlns="http://www.w3.org/2000/svg" xmlns:xlink="http://www.w3.org/1999/xlink" version="1.1" id="Capa_1" x="0px" y="0px" viewBox="0 0 511.999 511.999" style="enable-background:new 0 0 511.999 511.999;" xml:space="preserve">
<path style="fill:#FEDB41;" d="M340.097,37.065h-0.3c-30.601-13.5-64.201-20.7-97.801-20.7  c-133.613,0-249.184,111.049-241.647,254.102v0.901l9.602,17.1l204.747-4.501l12.297-12.599l22.2-10.501l99.303-215.403  L340.097,37.065z M9.948,288.468l204.747-4.5h0.3"/>
<path style="fill:#78DE28;" d="M421.998,419.27l-2.402-1.5c-51.599,56.694-124.412,82.707-190.197,78c-0.901,0.3-1.501,0-2.402,0  l-14.399-10.8l2.399-201.002l12.001-12.599l22.8,5.099l163.801,124.201L421.998,419.27z"/>
<path style="fill:#FD003A;" d="M453.58,423.934c38.203-48.136,58.419-106.085,58.419-167.565  c0-100.357-55.284-191.911-144.289-238.919c-7.178-3.853-16.143-1.172-20.098,5.962l-7.544,13.563L226.996,271.368l194.951,148.01  l11.565,7.705C439.986,431.39,448.716,430.027,453.58,423.934z"/>
<path style="fill:#18A7FC;" d="M0.495,271.368c-0.007,0.877,0,1.756,0.132,2.622c10.284,140.174,139.534,223.571,226.369,221.653  V271.368H0.495z"/>
<path style="fill:#FFCC33;" d="M376.998,196.367c-19.765,0-19.846-30,0-30c8.262,0,15,6.724,15,15c0,19.773,30,19.854,30,0  c0-19.53-12.576-36.024-30-42.238v-17.763c0-19.773-30-19.854-30,0v17.763c-47.494,16.934-35.184,87.238,15,87.238  c8.262,0,15,6.724,15,15s-6.738,15-15,15s-15-6.724-15-15c0-19.773-30-19.854-30,0c0,19.53,12.576,36.024,30,42.238v17.763  c0,19.773,30,19.854,30,0v-17.763C439.491,266.671,427.182,196.367,376.998,196.367z"/>
<g>
</g>
<g>
</g>
<g>
</g>
<g>
</g>
<g>
</g>
<g>
</g>
<g>
</g>
<g>
</g>
<g>
</g>
<g>
</g>
<g>
</g>
<g>
</g>
<g>
</g>
<g>
</g>
<g>
</g>
</svg>
